<svg width="32" height="32" viewBox="0 0 32 32" fill="none" xmlns="http://www.w3.org/2000/svg">
<path d="M23.3758 14.9511H11.5981L16.7436 9.80561C17.1548 9.39439 17.1548 8.71957 16.7436 8.30835C16.646 8.21061 16.5302 8.13306 16.4026 8.08015C16.2751 8.02723 16.1383 8 16.0002 8C15.8621 8 15.7254 8.02723 15.5978 8.08015C15.4703 8.13306 15.3544 8.21061 15.2569 8.30835L8.30835 15.2569C8.21061 15.3544 8.13306 15.4703 8.08015 15.5978C8.02724 15.7254 8 15.8621 8 16.0002C8 16.1383 8.02724 16.2751 8.08015 16.4026C8.13306 16.5302 8.21061 16.646 8.30835 16.7436L15.2569 23.6921C15.3545 23.7897 15.4704 23.8671 15.5979 23.92C15.7255 23.9728 15.8622 24 16.0002 24C16.1383 24 16.275 23.9728 16.4025 23.92C16.5301 23.8671 16.646 23.7897 16.7436 23.6921C16.8412 23.5945 16.9186 23.4786 16.9715 23.351C17.0243 23.2235 17.0515 23.0868 17.0515 22.9487C17.0515 22.8107 17.0243 22.674 16.9715 22.5464C16.9186 22.4189 16.8412 22.303 16.7436 22.2054L11.5981 17.0599H23.3758C23.9557 17.0599 24.4302 16.5854 24.4302 16.0055C24.4302 15.4256 23.9557 14.9511 23.3758 14.9511Z" fill="#0F2B54"/>
</svg>