<svg width="24" height="24" viewBox="0 0 24 24" fill="none" xmlns="http://www.w3.org/2000/svg">
<path d="M17.0249 8.9H13H12.9V9V11V11.1H13H20H20.1V11V4V3.9H20H18H17.9V4V6.48444C17.1769 5.6871 16.3237 5.06605 15.3412 4.62188C14.2783 4.14071 13.1642 3.9 12 3.9C9.74071 3.9 7.82344 4.68514 6.25429 6.25429C4.68514 7.82344 3.9 9.74071 3.9 12C3.9 14.2593 4.68514 16.1766 6.25429 17.7457C7.82344 19.3149 9.74071 20.1 12 20.1C13.8554 20.1 15.5104 19.5344 16.9615 18.4039C18.4122 17.2737 19.3745 15.8132 19.8467 14.0255L19.8798 13.9H19.75H17.65H17.5789L17.5555 13.9672C17.1457 15.1476 16.4334 16.0972 15.4171 16.8184C14.4009 17.5396 13.2629 17.9 12 17.9C10.3596 17.9 8.96841 17.327 7.82071 16.1793C6.67301 15.0316 6.1 13.6404 6.1 12C6.1 10.3596 6.67301 8.96841 7.82071 7.82071C8.96841 6.67301 10.3596 6.1 12 6.1C13.0661 6.1 14.0531 6.36219 14.9631 6.88664C15.8223 7.38222 16.5092 8.05294 17.0249 8.9Z" fill="#0F2B54" stroke="#0F2B54" stroke-width="0.2"/>
</svg>
