<svg width="24" height="24" viewBox="0 0 24 24" fill="none" xmlns="http://www.w3.org/2000/svg">
<path d="M6.4 11.8H8.1V10.1H6.4V11.8ZM6.4 15.2H13.2V13.5H6.4V15.2ZM14.9 15.2H16.6V13.5H14.9V15.2ZM9.8 11.8H16.6V10.1H9.8V11.8ZM4.7 18.6C4.2325 18.6 3.83243 18.4337 3.4998 18.1011C3.1666 17.7679 3 17.3675 3 16.9V6.7C3 6.2325 3.1666 5.83243 3.4998 5.4998C3.83243 5.1666 4.2325 5 4.7 5H18.3C18.7675 5 19.1679 5.1666 19.5011 5.4998C19.8337 5.83243 20 6.2325 20 6.7V16.9C20 17.3675 19.8337 17.7679 19.5011 18.1011C19.1679 18.4337 18.7675 18.6 18.3 18.6H4.7Z" fill="#0F2B54"/>
</svg>
