<svg width="32" height="32" viewBox="0 0 32 32" fill="none" xmlns="http://www.w3.org/2000/svg">
<path d="M19.3647 9.92352C18.6342 9.9234 17.9328 10.2101 17.4115 10.7218C16.8903 11.2336 16.5907 11.9295 16.5774 12.6599L16.5505 14.1737C16.5489 14.255 16.5301 14.335 16.4955 14.4085C16.4608 14.482 16.4109 14.5474 16.3492 14.6003C16.2875 14.6532 16.2153 14.6925 16.1374 14.7155C16.0594 14.7386 15.9774 14.7449 15.8969 14.734L14.3965 14.5303C12.4224 14.2612 10.5308 13.3519 8.71619 11.84C8.14142 15.0214 9.26404 17.2253 11.9677 18.9256L13.6468 19.9809C13.7266 20.031 13.7929 20.1 13.8399 20.1816C13.8869 20.2633 13.9131 20.3553 13.9163 20.4494C13.9196 20.5436 13.8997 20.6371 13.8584 20.7218C13.8171 20.8066 13.7557 20.8798 13.6795 20.9353L12.1494 22.0531C13.0596 22.1098 13.9237 22.0695 14.6407 21.9272C19.1753 21.0218 22.1904 17.6098 22.1904 11.9813C22.1904 11.5219 21.2178 9.92352 19.3647 9.92352ZM14.6551 12.6243C14.6719 11.6978 14.9616 10.7969 15.488 10.0343C16.0144 9.27165 16.754 8.68126 17.6144 8.33703C18.4747 7.99279 19.4175 7.91 20.3246 8.09903C21.2318 8.28806 22.063 8.74049 22.7143 9.3997C23.3976 9.39489 23.9791 9.5679 25.2795 8.77976C24.9576 10.356 24.799 11.0404 24.1127 11.9813C24.1127 19.3264 19.5982 22.898 15.0174 23.812C11.8764 24.4387 7.30908 23.4093 6 22.0426C6.66703 21.9907 9.37745 21.6994 10.9441 20.5528C9.6187 19.6791 4.34299 16.5746 7.80983 8.22807C9.43704 10.1282 11.0873 11.4219 12.7597 12.1082C13.8727 12.5647 14.1457 12.5551 14.656 12.6253L14.6551 12.6243Z" fill="#0D459D"/>
</svg>