<svg width="32" height="32" viewBox="0 0 32 32" fill="none" xmlns="http://www.w3.org/2000/svg">
<path d="M22.6317 19.8897C22.5157 20.0059 22.3779 20.0981 22.2262 20.161C22.0745 20.224 21.9119 20.2563 21.7477 20.2563C21.5835 20.2563 21.4209 20.224 21.2692 20.161C21.1175 20.0981 20.9798 20.0059 20.8638 19.8897L15.9989 15.0248L11.134 19.8897C10.8996 20.1241 10.5816 20.2558 10.2501 20.2558C9.91855 20.2558 9.60058 20.1241 9.36614 19.8897C9.1317 19.6552 9 19.3373 9 19.0057C9 18.6742 9.1317 18.3562 9.36614 18.1218L15.1212 12.3667C15.2372 12.2505 15.375 12.1582 15.5267 12.0953C15.6784 12.0324 15.841 12 16.0052 12C16.1694 12 16.332 12.0324 16.4837 12.0953C16.6353 12.1582 16.7731 12.2505 16.8891 12.3667L22.6442 18.1218C23.1207 18.5982 23.1207 19.4007 22.6317 19.8897Z" fill="#0F2B54"/>
</svg>
