<svg width="32" height="32" viewBox="0 0 32 32" fill="none" xmlns="http://www.w3.org/2000/svg">
<path d="M27.4162 16.6862C27.9462 15.9858 28.2396 15.1277 28.2396 14.2348C28.2396 12.8182 27.4477 11.4774 26.1731 10.7297C25.845 10.5372 25.4714 10.4359 25.091 10.4363H17.5254L17.7147 6.55881C17.7589 5.62179 17.4276 4.73209 16.784 4.05378C16.4681 3.71944 16.0871 3.45343 15.6644 3.27219C15.2416 3.09094 14.7862 2.99831 14.3263 3.00002C12.6857 3.00002 11.2344 4.10426 10.799 5.68489L8.08894 15.4968H8.07948V29H22.9803C23.2706 29 23.5545 28.9432 23.8164 28.8296C25.3181 28.1892 26.2867 26.7221 26.2867 25.0942C26.2867 24.6966 26.2299 24.3054 26.1163 23.9268C26.6464 23.2264 26.9398 22.3683 26.9398 21.4754C26.9398 21.0779 26.883 20.6867 26.7694 20.3081C27.2995 19.6077 27.5929 18.7496 27.5929 17.8567C27.5866 17.4592 27.5298 17.0648 27.4162 16.6862ZM3 16.5064V27.9904C3 28.5488 3.45116 29 4.00959 29H6.06031V15.4968H4.00959C3.45116 15.4968 3 15.948 3 16.5064Z" fill="#0D459D"/>
</svg>
