<svg width="32" height="32" viewBox="0 0 32 32" fill="none" xmlns="http://www.w3.org/2000/svg">
<path d="M27.4162 16.6862C27.9462 15.9858 28.2396 15.1277 28.2396 14.2348C28.2396 12.8182 27.4477 11.4774 26.1731 10.7297C25.845 10.5372 25.4714 10.4359 25.091 10.4363H17.5254L17.7147 6.55881C17.7589 5.62179 17.4276 4.73209 16.784 4.05378C16.4681 3.71944 16.0871 3.45343 15.6644 3.27219C15.2416 3.09094 14.7862 2.99831 14.3263 3.00002C12.6857 3.00002 11.2344 4.10426 10.799 5.68489L8.08894 15.4968H4.00959C3.45116 15.4968 3 15.948 3 16.5064V27.9904C3 28.5488 3.45116 29 4.00959 29H22.9803C23.2706 29 23.5545 28.9432 23.8164 28.8296C25.3181 28.1892 26.2867 26.7221 26.2867 25.0942C26.2867 24.6966 26.2299 24.3054 26.1164 23.9268C26.6464 23.2264 26.9398 22.3683 26.9398 21.4754C26.9398 21.0779 26.883 20.6867 26.7694 20.3081C27.2995 19.6077 27.5929 18.7496 27.5929 17.8567C27.5866 17.4592 27.5298 17.0648 27.4162 16.6862ZM5.27157 26.7284V17.7684H7.82708V26.7284H5.27157ZM25.3497 15.5914L24.6588 16.1909L25.0973 16.9922C25.2418 17.2562 25.3167 17.5526 25.315 17.8535C25.315 18.3741 25.0878 18.8694 24.6966 19.2102L24.0057 19.8096L24.4442 20.611C24.5887 20.875 24.6636 21.1714 24.6619 21.4723C24.6619 21.9928 24.4348 22.4882 24.0435 22.8289L23.3526 23.4284L23.7911 24.2297C23.9356 24.4937 24.0105 24.7901 24.0088 25.091C24.0088 25.7977 23.5924 26.435 22.9488 26.7253H9.84625V17.6674L12.9854 6.2938C13.0664 6.00228 13.2401 5.74509 13.4804 5.5612C13.7206 5.37732 14.0143 5.27675 14.3168 5.27475C14.5566 5.27475 14.7932 5.34415 14.9825 5.48613C15.2949 5.71959 15.4621 6.07295 15.4431 6.44839L15.1403 12.7078H25.0594C25.621 13.0517 25.9681 13.6322 25.9681 14.2348C25.9681 14.7554 25.7409 15.2476 25.3497 15.5914Z" fill="#838891"/>
</svg>
