<svg width="32" height="32" viewBox="0 0 32 32" fill="none" xmlns="http://www.w3.org/2000/svg">
<path d="M16 13.6C15.3635 13.6 14.753 13.8529 14.3029 14.3029C13.8529 14.753 13.6 15.3635 13.6 16C13.6 16.6365 13.8529 17.247 14.3029 17.6971C14.753 18.1471 15.3635 18.4 16 18.4C16.6365 18.4 17.247 18.1471 17.6971 17.6971C18.1471 17.247 18.4 16.6365 18.4 16C18.4 15.3635 18.1471 14.753 17.6971 14.3029C17.247 13.8529 16.6365 13.6 16 13.6ZM16 12C17.0609 12 18.0783 12.4214 18.8284 13.1716C19.5786 13.9217 20 14.9391 20 16C20 17.0609 19.5786 18.0783 18.8284 18.8284C18.0783 19.5786 17.0609 20 16 20C14.9391 20 13.9217 19.5786 13.1716 18.8284C12.4214 18.0783 12 17.0609 12 16C12 14.9391 12.4214 13.9217 13.1716 13.1716C13.9217 12.4214 14.9391 12 16 12ZM21.2 11.8C21.2 12.0652 21.0946 12.3196 20.9071 12.5071C20.7196 12.6946 20.4652 12.8 20.2 12.8C19.9348 12.8 19.6804 12.6946 19.4929 12.5071C19.3054 12.3196 19.2 12.0652 19.2 11.8C19.2 11.5348 19.3054 11.2804 19.4929 11.0929C19.6804 10.9054 19.9348 10.8 20.2 10.8C20.4652 10.8 20.7196 10.9054 20.9071 11.0929C21.0946 11.2804 21.2 11.5348 21.2 11.8ZM16 9.6C14.0208 9.6 13.6976 9.6056 12.7768 9.6464C12.1496 9.676 11.7288 9.76 11.3384 9.912C11.0117 10.032 10.7163 10.2242 10.4744 10.4744C10.224 10.7163 10.0315 11.0117 9.9112 11.3384C9.7592 11.7304 9.6752 12.1504 9.6464 12.7768C9.6048 13.66 9.6 13.9688 9.6 16C9.6 17.9792 9.6056 18.3024 9.6464 19.2232C9.676 19.8496 9.76 20.2712 9.9112 20.6608C10.0472 21.0088 10.2072 21.2592 10.4728 21.5248C10.7424 21.7936 10.9928 21.9544 11.3368 22.0872C11.732 22.24 12.1528 22.3248 12.7768 22.3536C13.66 22.3952 13.9688 22.4 16 22.4C17.9792 22.4 18.3024 22.3944 19.2232 22.3536C19.8488 22.324 20.2704 22.24 20.6608 22.0888C20.987 21.9682 21.2822 21.7764 21.5248 21.5272C21.7944 21.2576 21.9552 21.0072 22.088 20.6632C22.24 20.2688 22.3248 19.8472 22.3536 19.2232C22.3952 18.34 22.4 18.0312 22.4 16C22.4 14.0208 22.3944 13.6976 22.3536 12.7768C22.324 12.1512 22.24 11.7288 22.088 11.3384C21.9674 11.012 21.7753 10.7168 21.5256 10.4744C21.2838 10.2239 20.9884 10.0313 20.6616 9.9112C20.2696 9.7592 19.8488 9.6752 19.2232 9.6464C18.34 9.6048 18.0312 9.6 16 9.6ZM16 8C18.1736 8 18.4448 8.008 19.2976 8.048C20.1496 8.088 20.7296 8.2216 21.24 8.42C21.768 8.6232 22.2128 8.8984 22.6576 9.3424C23.0644 9.74232 23.3792 10.2261 23.58 10.76C23.7776 11.2696 23.912 11.8504 23.952 12.7024C23.9896 13.5552 24 13.8264 24 16C24 18.1736 23.992 18.4448 23.952 19.2976C23.912 20.1496 23.7776 20.7296 23.58 21.24C23.3797 21.7742 23.0649 22.2581 22.6576 22.6576C22.2576 23.0643 21.7738 23.379 21.24 23.58C20.7304 23.7776 20.1496 23.912 19.2976 23.952C18.4448 23.9896 18.1736 24 16 24C13.8264 24 13.5552 23.992 12.7024 23.952C11.8504 23.912 11.2704 23.7776 10.76 23.58C10.2259 23.3796 9.74202 23.0648 9.3424 22.6576C8.93553 22.2577 8.62075 21.774 8.42 21.24C8.2216 20.7304 8.088 20.1496 8.048 19.2976C8.0104 18.4448 8 18.1736 8 16C8 13.8264 8.008 13.5552 8.048 12.7024C8.088 11.8496 8.2216 11.2704 8.42 10.76C8.62019 10.2257 8.93504 9.74186 9.3424 9.3424C9.74214 8.93538 10.2259 8.62058 10.76 8.42C11.2704 8.2216 11.8496 8.088 12.7024 8.048C13.5552 8.0104 13.8264 8 16 8Z" fill="#0D459D"/>
</svg>