<svg width="32" height="32" viewBox="0 0 32 32" fill="none" xmlns="http://www.w3.org/2000/svg">
<path d="M19.488 17.6C19.552 17.072 19.6 16.544 19.6 16C19.6 15.456 19.552 14.928 19.488 14.4H22.192C22.32 14.912 22.4 15.448 22.4 16C22.4 16.552 22.32 17.088 22.192 17.6M18.072 22.048C18.552 21.16 18.92 20.2 19.176 19.2H21.536C20.7609 20.5346 19.5313 21.5456 18.072 22.048ZM17.872 17.6H14.128C14.048 17.072 14 16.544 14 16C14 15.456 14.048 14.92 14.128 14.4H17.872C17.944 14.92 18 15.456 18 16C18 16.544 17.944 17.072 17.872 17.6ZM16 22.368C15.336 21.408 14.8 20.344 14.472 19.2H17.528C17.2 20.344 16.664 21.408 16 22.368ZM12.8 12.8H10.464C11.2311 11.4618 12.4598 10.4492 13.92 9.952C13.44 10.84 13.08 11.8 12.8 12.8ZM10.464 19.2H12.8C13.08 20.2 13.44 21.16 13.92 22.048C12.4629 21.5453 11.2359 20.5342 10.464 19.2ZM9.808 17.6C9.68 17.088 9.6 16.552 9.6 16C9.6 15.448 9.68 14.912 9.808 14.4H12.512C12.448 14.928 12.4 15.456 12.4 16C12.4 16.544 12.448 17.072 12.512 17.6M16 9.624C16.664 10.584 17.2 11.656 17.528 12.8H14.472C14.8 11.656 15.336 10.584 16 9.624ZM21.536 12.8H19.176C18.9256 11.8092 18.5549 10.8527 18.072 9.952C19.544 10.456 20.768 11.472 21.536 12.8ZM16 8C11.576 8 8 11.6 8 16C8 18.1217 8.84285 20.1566 10.3431 21.6569C11.086 22.3997 11.9679 22.989 12.9385 23.391C13.9091 23.7931 14.9494 24 16 24C18.1217 24 20.1566 23.1571 21.6569 21.6569C23.1571 20.1566 24 18.1217 24 16C24 14.9494 23.7931 13.9091 23.391 12.9385C22.989 11.9679 22.3997 11.086 21.6569 10.3431C20.914 9.60028 20.0321 9.011 19.0615 8.60896C18.0909 8.20693 17.0506 8 16 8Z" fill="#0D459D"/>
</svg>