<svg width="32" height="32" viewBox="0 0 32 32" fill="none" xmlns="http://www.w3.org/2000/svg">
<path d="M23.606 10.995C23.53 10.697 23.314 10.472 23.067 10.403C22.63 10.28 20.5 10 16 10C11.5 10 9.372 10.28 8.931 10.403C8.687 10.471 8.471 10.696 8.394 10.995C8.285 11.419 8 13.196 8 16C8 18.804 8.285 20.58 8.394 21.006C8.47 21.303 8.686 21.528 8.932 21.596C9.372 21.72 11.5 22 16 22C20.5 22 22.629 21.72 23.069 21.597C23.313 21.529 23.529 21.304 23.606 21.005C23.715 20.581 24 18.8 24 16C24 13.2 23.715 11.42 23.606 10.995ZM25.543 10.498C26 12.28 26 16 26 16C26 16 26 19.72 25.543 21.502C25.289 22.487 24.546 23.262 23.605 23.524C21.896 24 16 24 16 24C16 24 10.107 24 8.395 23.524C7.45 23.258 6.708 22.484 6.457 21.502C6 19.72 6 16 6 16C6 16 6 12.28 6.457 10.498C6.711 9.513 7.454 8.738 8.395 8.476C10.107 8 16 8 16 8C16 8 21.896 8 23.605 8.476C24.55 8.742 25.292 9.516 25.543 10.498ZM14 19.5V12.5L20 16L14 19.5Z" fill="#0D459D"/>
</svg>