<svg xmlns="http://www.w3.org/2000/svg" xmlns:xlink="http://www.w3.org/1999/xlink" width="67.565" height="35.085" viewBox="0 0 67.565 35.085"><defs><style>.a{fill:#67c8d5;fill-rule:evenodd;}.b{fill:#f1f1f1;stroke:rgba(0,0,0,0);stroke-width:0.5px;}.c{filter:url(#a);}</style><filter id="a" x="32.48" y="0" width="35.085" height="35.085" filterUnits="userSpaceOnUse"><feOffset dy="2" input="SourceAlpha"/><feGaussianBlur stdDeviation="1" result="b"/><feFlood flood-opacity="0.239"/><feComposite operator="in" in2="b"/><feComposite in="SourceGraphic"/></filter></defs><g transform="translate(64.315 29.835) rotate(180)"><path class="a" d="M38.589,20.009H10A9.943,9.943,0,0,1,0,10,9.943,9.943,0,0,1,10,0H38.589a9.943,9.943,0,0,1,10,10A9.943,9.943,0,0,1,38.589,20.009Z" transform="translate(15.722 4.288)"/><path class="a" d="M38.589,20.009H10A9.943,9.943,0,0,1,0,10,9.943,9.943,0,0,1,10,0H38.589a9.943,9.943,0,0,1,10,10A9.943,9.943,0,0,1,38.589,20.009Z" transform="translate(-0.278 4.288)"/><g class="c" transform="matrix(-1, 0, 0, -1, 64.32, 29.83)"><path class="b" d="M14.292,0A14.292,14.292,0,1,1,0,14.292,14.292,14.292,0,0,1,14.292,0Z" transform="translate(64.32 29.83) rotate(180)"/></g></g></svg>