<svg width="19" height="19" viewBox="0 0 19 19" fill="none" xmlns="http://www.w3.org/2000/svg">
<path d="M5.39719 7.97288L4.88063 9.5H3.5625L5.77362 3.5625H7.29838L9.5 9.5H8.11419L7.59762 7.97288H5.39719ZM7.33756 7.09888L6.53125 4.69775H6.47306L5.66675 7.09888H7.33756Z" fill="#FDFDFD"/>
<path d="M0 2.375C0 1.74511 0.250223 1.14102 0.695621 0.695621C1.14102 0.250223 1.74511 0 2.375 0H10.6875C11.3174 0 11.9215 0.250223 12.3669 0.695621C12.8123 1.14102 13.0625 1.74511 13.0625 2.375V5.9375H16.625C17.2549 5.9375 17.859 6.18772 18.3044 6.63312C18.7498 7.07852 19 7.68261 19 8.3125V16.625C19 17.2549 18.7498 17.859 18.3044 18.3044C17.859 18.7498 17.2549 19 16.625 19H8.3125C7.68261 19 7.07852 18.7498 6.63312 18.3044C6.18772 17.859 5.9375 17.2549 5.9375 16.625V13.0625H2.375C1.74511 13.0625 1.14102 12.8123 0.695621 12.3669C0.250223 11.9215 0 11.3174 0 10.6875V2.375ZM2.375 1.1875C2.06006 1.1875 1.75801 1.31261 1.53531 1.53531C1.31261 1.75801 1.1875 2.06006 1.1875 2.375V10.6875C1.1875 11.0024 1.31261 11.3045 1.53531 11.5272C1.75801 11.7499 2.06006 11.875 2.375 11.875H10.6875C11.0024 11.875 11.3045 11.7499 11.5272 11.5272C11.7499 11.3045 11.875 11.0024 11.875 10.6875V2.375C11.875 2.06006 11.7499 1.75801 11.5272 1.53531C11.3045 1.31261 11.0024 1.1875 10.6875 1.1875H2.375ZM10.8514 13.0566C11.0806 13.414 11.3287 13.7489 11.5995 14.0612C10.7112 14.744 9.61281 15.2499 8.3125 15.5954C8.52388 15.8531 8.84806 16.3495 8.97156 16.625C10.3075 16.1987 11.4416 15.6227 12.3987 14.8509C13.3214 15.6406 14.4638 16.2343 15.8781 16.5989C16.036 16.2972 16.3697 15.7997 16.625 15.542C15.2891 15.2416 14.1823 14.7179 13.2763 14.0173C14.0849 13.1302 14.7274 12.0567 15.2012 10.7433H16.625V9.5H13.0625V10.7433H13.9709C13.5933 11.7456 13.0922 12.5792 12.4604 13.2727C12.2859 13.0868 12.1214 12.8918 11.9676 12.6884C11.6325 12.9033 11.2485 13.0299 10.8514 13.0566Z" fill="#FDFDFD"/>
</svg>
