<svg width="15" height="14" viewBox="0 0 15 14" fill="none" xmlns="http://www.w3.org/2000/svg">
<path d="M13.4708 0H5.7732V2.4055H6.73539V0.962199H13.4708C13.7594 0.962199 13.9519 1.15464 13.9519 1.4433V6.73539C13.9519 7.02405 13.7594 7.21649 13.4708 7.21649H7.21649V10.5842H4.66667L2.8866 11.9794V10.5842H1.4433C1.15464 10.5842 0.962199 10.3918 0.962199 10.1031V4.811C0.962199 4.52234 1.15464 4.3299 1.4433 4.3299H7.69759V3.3677H1.4433C0.62543 3.3677 0 3.99313 0 4.811V10.1031C0 10.921 0.62543 11.5464 1.4433 11.5464H1.9244V14L4.95533 11.5464H8.17869V8.17869H13.4708C14.2887 8.17869 14.9141 7.55326 14.9141 6.73539V1.4433C14.9141 0.62543 14.2887 0 13.4708 0Z" fill="black"/>
<path d="M2.02062 9.57388H3.17526L3.46392 8.80412H4.95533L5.24399 9.57388H6.39863L4.76289 5.2921H3.60825L2.02062 9.57388ZM4.18557 6.49485L4.66667 7.98625H3.70447L4.18557 6.49485Z" fill="black"/>
<path d="M8.65979 6.73539C9.189 6.73539 9.91065 6.59107 10.5842 6.2543C11.2577 6.59107 12.0275 6.73539 12.5086 6.73539V5.7732C12.5086 5.7732 12.0275 5.7732 11.4983 5.58076C12.0756 5.00344 12.5086 4.13746 12.5086 2.8866V2.4055H11.0653V1.4433H10.1031V2.4055H8.65979V3.3677H11.4983C11.4021 4.23368 11.0172 4.76289 10.5842 5.09966C10.2955 4.85911 10.0069 4.52234 9.81443 4.08935H8.80412C8.99656 4.71478 9.28522 5.19588 9.6701 5.58076C9.189 5.7732 8.75601 5.7732 8.65979 5.7732V6.73539Z" fill="black"/>
</svg>
