<svg width="40" height="40" viewBox="0 0 40 40" fill="none" xmlns="http://www.w3.org/2000/svg">
<rect width="40" height="40" rx="5" fill="url(#paint0_linear_508_95)"/>
<path fill-rule="evenodd" clip-rule="evenodd" d="M13.8808 7.00959C13.7881 7.02414 13.6031 7.13785 13.4699 7.26231C13.2292 7.48713 13.228 7.49216 13.2784 8.03852C13.3064 8.341 13.3624 9 13.4029 9.503C13.719 13.4243 13.7709 14.5985 13.632 14.6844C13.3982 14.8289 13.2692 14.6108 11.089 10.3832C10.3416 8.93385 10.1991 8.78113 9.73698 8.93362C9.00391 9.17552 9.0616 9.54118 10.2327 12.0754C10.3829 12.4005 10.5057 12.68 10.5057 12.6966C10.5057 12.7133 10.6377 13.0132 10.799 13.3632C11.6734 15.2607 11.9012 16.0325 11.619 16.1408C11.419 16.2175 11.0628 16.0268 10.77 15.6863C10.621 15.513 10.4377 15.3027 10.3628 15.2189C10.2877 15.135 10.0748 14.8778 9.88971 14.6473C9.70459 14.4167 9.53548 14.211 9.51391 14.19C9.49235 14.1691 9.13964 13.7522 8.73023 13.2636C8.32075 12.7751 7.93268 12.3549 7.86774 12.33C7.49438 12.1868 7 12.4694 7 12.8261C7 13.1375 7.74847 14.3899 9.30647 16.6856C10.2828 18.1241 10.5123 18.6421 10.7332 19.9059C11.2013 22.5833 11.8381 24.2246 12.6621 24.8775C13.2231 25.322 13.2389 25.3253 14.5596 25.2688L15.7691 25.2171L16.6882 23.9904C17.1937 23.3158 17.6471 22.7123 17.6957 22.6494C18.0482 22.1925 18.9652 20.5741 18.9652 20.4089C18.9652 20.3852 18.4887 20.3877 17.9063 20.4141C17.1891 20.4468 16.691 20.432 16.363 20.3682C15.7943 20.2575 15.078 19.9316 14.6852 19.6047C14.065 19.0887 13.8829 18.1728 14.2694 17.5134C14.558 17.0207 14.9584 16.8093 15.7998 16.7051C16.4798 16.6209 17.2073 16.4226 18.2603 16.0349L18.8128 15.8315V14.9415C18.8128 14.0297 18.9868 10.85 19.1188 9.35058C19.2225 8.17159 19.2242 8.18439 18.9347 7.89494C18.7348 7.69503 18.6121 7.63582 18.3978 7.63582C17.8581 7.63582 17.8285 7.71035 17.294 10.4185C17.0293 11.7593 16.765 13.1307 16.7065 13.466C16.5789 14.1979 16.4786 14.4676 16.3101 14.5324C16.0898 14.6169 15.8837 14.272 15.7847 13.6536C15.7346 13.3409 15.6041 12.5191 15.4948 11.8275C15.2921 10.5464 14.8871 8.14651 14.8006 7.71348C14.7486 7.45367 14.4074 7.06499 14.1871 7.01462C14.1115 6.99732 13.9737 6.99503 13.8808 7.00959ZM24.0333 14.8536C23.6941 14.9341 22.7088 15.291 22.2595 15.496C21.9964 15.6161 21.7613 15.7142 21.7369 15.7142C21.7125 15.7142 21.0703 16.0218 20.3098 16.3978C18.704 17.1916 16.8443 17.8481 16.2009 17.8483C15.7586 17.8484 15.2826 18.0441 15.2459 18.2409C15.205 18.4611 15.6682 18.8965 16.1309 19.0727C16.5411 19.229 16.6482 19.2354 18.118 19.1921C19.4315 19.1534 19.7102 19.1646 19.9211 19.2647C20.2837 19.4368 20.3834 19.73 20.2632 20.2724C20.1408 20.8253 19.4591 22.1927 18.9097 22.9873C18.5526 23.5037 16.4273 26.332 15.1927 27.9338C14.7521 28.5055 14.7324 28.7967 15.1089 29.1732C15.5964 29.6607 15.5336 29.7042 18.1537 27.0705C20.5993 24.6125 20.8034 24.4514 20.914 24.8922C20.9812 25.16 20.9967 25.1209 19.9094 27.4405C19.7254 27.8329 19.5749 28.1648 19.5749 28.1779C19.5749 28.1911 19.4508 28.4701 19.2991 28.798C18.0533 31.4909 18.0025 31.6718 18.3631 32.1301C18.492 32.2941 18.5807 32.3279 18.8755 32.3259C19.0715 32.3246 19.2848 32.2817 19.3493 32.2306C19.4139 32.1796 19.7882 31.5548 20.1812 30.8422C20.8697 29.5938 21.2739 28.8706 21.6163 28.274C22.8812 26.07 22.8751 26.079 23.104 26.079C23.2504 26.079 23.2544 26.1146 23.2092 27.0126C23.1679 27.8326 23.0638 28.8098 22.7768 31.0709C22.6684 31.9246 22.6823 32.642 22.8104 32.8112C22.9612 33.0102 23.485 33.0665 23.7248 32.9093C23.9711 32.7479 24.0859 32.3401 24.3712 30.6136C24.9758 26.9539 25.1273 26.2578 25.3667 26.0412C25.5143 25.9076 25.5247 25.9078 25.6789 26.0473C25.7666 26.1266 25.8697 26.2503 25.9081 26.322C25.9465 26.3936 26.062 27.2514 26.1647 28.2281C26.4538 30.977 26.4787 31.1194 26.7049 31.3185C26.9549 31.5386 27.2102 31.5361 27.4717 31.3112C27.6709 31.1398 27.6824 31.0897 27.7484 30.1108C27.7862 29.5491 27.8019 28.4378 27.7832 27.6413C27.7468 26.0904 27.8182 24.7918 27.9647 24.339C28.0146 24.1852 28.2524 23.5964 28.4933 23.0305C28.7343 22.4647 29.0763 21.5559 29.2535 21.0109C29.7994 19.3313 29.7582 17.9828 29.142 17.3634C29.0112 17.2318 28.6172 16.9702 28.2664 16.7821C27.8185 16.5418 27.3969 16.222 26.8494 15.7073C26.2241 15.1193 26.0016 14.9573 25.723 14.8871C25.3844 14.8019 24.3384 14.7811 24.0333 14.8536ZM29.9791 17.0817C29.9494 17.1754 30.0049 17.4309 30.1166 17.7149C30.3636 18.3428 30.4199 18.8957 30.3125 19.6391C30.1741 20.5972 30.1799 20.7023 30.3731 20.7298C30.6341 20.767 30.7671 20.4706 30.8642 19.6349C30.97 18.7247 30.8771 18.0311 30.5639 17.3909C30.3387 16.9306 30.0719 16.7895 29.9791 17.0817ZM31.3632 17.3447C31.3408 17.4032 31.3916 17.669 31.4761 17.9353C31.6752 18.563 31.637 19.5546 31.3844 20.3102C31.2263 20.7831 31.2217 20.8395 31.3316 20.9494C31.5917 21.2095 31.8581 20.8502 32.0395 19.9946C32.2317 19.088 32.1506 17.962 31.8533 17.4064C31.7521 17.2174 31.4278 17.1765 31.3632 17.3447ZM10.2945 23.8819C10.1376 24.0389 10.1889 24.2627 10.5188 24.8596C11.0787 25.8727 12.4312 27.0328 12.747 26.7708C12.9706 26.5851 12.8822 26.414 12.4125 26.1241C11.8255 25.7618 11.3088 25.1735 10.9214 24.4263C10.6125 23.8307 10.4698 23.7067 10.2945 23.8819ZM9.21113 24.363C9.09048 24.5084 9.18697 24.8679 9.53861 25.5836C10.0213 26.5662 11.0655 27.574 11.4484 27.427C11.6511 27.3493 11.5989 27.0419 11.359 26.9002C10.7229 26.5244 10.1048 25.6801 9.78134 24.7453C9.61306 24.2588 9.41042 24.1229 9.21113 24.363Z" fill="#FDFDFD"/>
<defs>
<linearGradient id="paint0_linear_508_95" x1="32.5" y1="-1.5" x2="-29.5" y2="46.5" gradientUnits="userSpaceOnUse">
<stop stop-color="#215FC3"/>
<stop offset="1" stop-color="#276AD1"/>
</linearGradient>
</defs>
</svg>
