<svg width="24" height="24" viewBox="0 0 24 24" fill="none" xmlns="http://www.w3.org/2000/svg">
<path fill-rule="evenodd" clip-rule="evenodd" d="M10.9789 12.3791C10.6529 12.4056 10.3266 12.4322 9.9987 12.4267H9.62771C8.83887 12.4255 8.1125 12.2274 7.46893 11.7783C7.07607 11.5043 6.78552 11.1496 6.70547 10.6801C6.55863 9.81998 7.08036 9.12897 7.98597 8.95385C8.17128 8.91798 8.3588 8.89787 8.54653 8.87775C8.85847 8.8443 9.17101 8.81079 9.47502 8.70477C9.68329 8.63221 9.89393 8.56556 10.1046 8.49889L10.1047 8.49886C10.4365 8.39391 10.7684 8.28888 11.0918 8.16056L11.1008 8.157C11.1668 8.13104 11.2264 8.10763 11.2241 8.00583C11.2042 7.09441 11.2425 6.1845 11.3046 5.27535C11.3513 4.59074 11.399 3.90638 11.4466 3.22187L11.4466 3.22184L11.4466 3.22182L11.4467 3.22165L11.4467 3.22149L11.4842 2.68187C11.494 2.54224 11.5047 2.40261 11.5154 2.26296C11.5408 1.93306 11.5661 1.60305 11.5787 1.27266C11.5928 0.912625 11.3175 0.646937 10.9395 0.619009C10.5337 0.589195 10.3256 0.742796 10.2557 1.11982C10.1028 1.94423 9.93206 2.76538 9.7613 3.58656C9.55988 4.55513 9.35846 5.52373 9.18643 6.49774C9.16456 6.62229 9.11965 6.74079 9.04428 6.84571C8.92205 7.01516 8.7549 7.03025 8.59948 6.88646C8.46084 6.75853 8.40344 6.59021 8.37454 6.41585C8.31818 6.07315 8.264 5.73008 8.20982 5.38703L8.20981 5.38696L8.20979 5.38689L8.20978 5.38682L8.20977 5.38675L8.20974 5.38656C8.14044 4.94777 8.07115 4.509 7.9973 4.07107C7.90338 3.51384 7.80653 2.95699 7.70968 2.40014C7.61283 1.84329 7.51599 1.28644 7.42207 0.72921C7.37598 0.456351 7.23852 0.254065 7.00304 0.101974C6.77303 -0.0467213 6.55238 -0.0225678 6.32901 0.108389C6.11578 0.233686 5.96895 0.398231 5.98808 0.656749C5.99625 0.769696 6.00807 0.882447 6.01989 0.995143C6.02446 1.03872 6.02903 1.08229 6.03338 1.12586C6.19208 2.73032 6.30064 4.3385 6.40922 5.94676L6.40922 5.9468L6.44265 6.44113L6.44541 6.48127C6.45581 6.63055 6.46634 6.78167 6.43445 6.93024C6.38251 7.17178 6.24465 7.21442 6.05174 7.04875C5.93888 6.95138 5.85726 6.83023 5.78501 6.70267C5.38678 5.99855 5.0099 5.28363 4.633 4.56867C4.42003 4.16466 4.20705 3.76065 3.99019 3.35854L3.88623 3.16588L3.88622 3.16586L3.88622 3.16586L3.88622 3.16585L3.88622 3.16585C3.68959 2.80127 3.49302 2.4368 3.28882 2.07614C3.14589 1.82329 2.93931 1.69988 2.72414 1.76026C2.28051 1.88443 2.05635 1.99651 2.18053 2.55431C2.25154 2.87326 2.39416 3.16735 2.53644 3.46073C2.57884 3.54817 2.62122 3.63554 2.66165 3.72349C2.81345 4.05339 2.96691 4.3826 3.12037 4.71182L3.12039 4.71188L3.12042 4.71193L3.12044 4.71198L3.12047 4.71204L3.12048 4.71206L3.12048 4.71206C3.53508 5.60151 3.94971 6.49104 4.3319 7.39444L4.33995 7.41346C4.44048 7.65063 4.54184 7.88978 4.55059 8.15113C4.55918 8.41644 4.41625 8.51909 4.15421 8.44927C3.92615 8.38851 3.74612 8.25906 3.59733 8.08659C3.32372 7.76952 3.05066 7.452 2.77758 7.13447L2.77756 7.13444L2.77753 7.13441L2.77751 7.13438L2.77748 7.13436C2.43984 6.74175 2.10219 6.34913 1.76346 5.95731L1.75079 5.94266L1.75079 5.94265L1.75078 5.94265L1.75078 5.94264L1.75077 5.94264C1.50468 5.65806 1.25841 5.37327 1.00195 5.09797C0.673916 4.74624 0.174834 4.83832 0.0217509 5.2678C-0.0383183 5.43658 0.0371604 5.57168 0.113133 5.70765L0.125238 5.72936C0.720388 6.79929 1.42098 7.80392 2.14383 8.79572C2.60425 9.42749 3.04905 10.0706 3.33217 10.8008C3.46958 11.1554 3.52669 11.5264 3.5838 11.8974L3.5838 11.8974C3.61173 12.0789 3.63967 12.2604 3.677 12.4399C3.87694 13.4015 4.11516 14.3518 4.50841 15.2583C4.79232 15.9123 5.22072 16.4535 5.8928 16.7837C6.06541 16.8683 6.23919 16.917 6.43601 16.8822C6.99015 16.7849 7.54938 16.7886 8.10782 16.8234C8.2445 16.832 8.32026 16.8003 8.39836 16.6988C8.69644 16.3103 8.99682 15.9235 9.29718 15.5366L9.29742 15.5363L9.29766 15.536C9.50831 15.2648 9.71895 14.9935 9.9288 14.7216C10.4622 14.0306 10.9566 13.317 11.3116 12.5203C11.3679 12.3938 11.378 12.3478 11.2054 12.361C11.13 12.3668 11.0545 12.3729 10.979 12.379L10.9789 12.3791ZM21.2362 12.8569C21.4186 12.2674 21.6006 11.6771 21.6103 10.988C21.6082 10.9666 21.6064 10.9408 21.6043 10.9117C21.5984 10.8266 21.5905 10.7138 21.5654 10.6038C21.444 10.0215 21.2971 9.45197 20.6126 9.23384C20.5958 9.22859 20.5799 9.22007 20.564 9.21156L20.564 9.21154C20.557 9.20781 20.5501 9.20408 20.5431 9.20063C19.7503 8.8104 19.0825 8.26468 18.48 7.64008C18.3003 7.45402 18.0879 7.32873 17.8309 7.28306C17.2623 7.1823 16.684 7.15588 16.1286 7.30722C14.9114 7.63895 13.7691 8.15901 12.6495 8.71756C11.3151 9.38329 9.94401 9.92674 8.43271 10.0698L8.40516 10.0723C8.3626 10.0761 8.3198 10.08 8.27806 10.0886L8.27584 10.0891C8.12228 10.121 7.96381 10.154 7.90629 10.3219C7.84888 10.4898 7.94612 10.614 8.05898 10.7231C8.32531 10.9804 8.66272 11.1114 9.02044 11.1903C9.41588 11.2773 9.81689 11.262 10.2176 11.2467L10.2177 11.2467C10.2914 11.2439 10.3651 11.2411 10.4388 11.239C10.6351 11.2332 10.8305 11.2152 11.0259 11.1972L11.0259 11.1972C11.2899 11.1729 11.5537 11.1486 11.8197 11.1544C12.3687 11.1661 12.6726 11.3846 12.7347 11.8141C12.7573 11.9722 12.7268 12.1285 12.6831 12.2791C12.464 13.0293 12.102 13.7181 11.6596 14.3631C10.8205 15.5866 9.89221 16.747 8.96388 17.9074C8.81847 18.0892 8.67306 18.2709 8.52799 18.4529C8.42985 18.576 8.33071 18.6985 8.23156 18.821L8.23142 18.8211C8.02606 19.0748 7.82065 19.3286 7.62394 19.5881C7.38963 19.8976 7.46813 20.2516 7.80514 20.5147C8.0871 20.7347 8.35499 20.6996 8.64241 20.4101C8.84509 20.2059 9.0505 20.0044 9.25748 19.8048L9.53904 19.5331L9.53907 19.5331C10.5358 18.5716 11.5326 17.6101 12.5066 16.6271C12.6097 16.5229 12.714 16.418 12.8452 16.3452C13.1127 16.1972 13.3236 16.3131 13.3357 16.6135C13.3431 16.7961 13.2724 16.9588 13.1947 17.1177C12.3582 18.8326 11.5444 20.5577 10.7563 22.2941C10.6649 22.4949 10.6477 22.6904 10.711 22.8987C10.7989 23.1897 10.9754 23.3421 11.2714 23.3723C11.5951 23.4051 11.8181 23.2927 11.9642 23.0259C12.9053 21.3038 13.9089 19.6157 14.9278 17.9359C15.0036 17.811 15.0809 17.6861 15.198 17.5925C15.3281 17.4887 15.4429 17.5151 15.5062 17.6657C15.5632 17.8015 15.578 17.9461 15.5624 18.0918C15.5413 18.2874 15.5204 18.483 15.4995 18.6787L15.4995 18.6789L15.4995 18.679L15.4994 18.679L15.4994 18.6791L15.4994 18.6792C15.4309 19.3204 15.3623 19.9615 15.2879 20.6022C15.26 20.8418 15.2309 21.0812 15.2019 21.3207L15.2018 21.3211L15.2018 21.3211C15.1196 21.9981 15.0374 22.6751 14.9829 23.355C14.9555 23.6954 15.1035 23.8995 15.3988 23.9679C15.7873 24.0577 15.9912 23.9645 16.1478 23.6218C16.1818 23.5474 16.2134 23.4704 16.2329 23.3919C16.3627 22.8748 16.4491 22.3502 16.5355 21.8256C16.5716 21.6067 16.6077 21.3878 16.6469 21.1694C16.6891 20.9344 16.7301 20.6992 16.7711 20.464C16.9092 19.6722 17.0473 18.8805 17.2307 18.0967C17.2721 17.9189 17.3279 17.7438 17.4361 17.5913C17.5642 17.4109 17.7348 17.3985 17.8926 17.5566C18.0121 17.6762 18.0926 17.8197 18.1324 17.9816C18.1777 18.1655 18.1965 18.3529 18.2153 18.5404C18.2203 18.5903 18.2253 18.6401 18.2308 18.6899C18.33 19.5893 18.4292 20.4886 18.5311 21.3876C18.5581 21.625 18.5877 21.862 18.628 22.0975C18.6787 22.3941 18.8884 22.5703 19.1696 22.5685C19.4691 22.5662 19.664 22.3941 19.7011 22.0801C19.7851 21.3683 19.8042 20.6528 19.819 19.9372C19.8274 19.5426 19.8143 19.148 19.8013 18.7534C19.7814 18.1501 19.7614 17.5467 19.8179 16.943C19.8667 16.4206 19.9545 15.9111 20.1865 15.4303C20.5907 14.5933 20.9621 13.743 21.2362 12.8569ZM3.06037 15.7742C3.07482 15.6609 3.12363 15.576 3.24352 15.5553C3.36849 15.5334 3.45987 15.5813 3.50009 15.7021C3.59811 15.9968 3.75471 16.2629 3.92224 16.5248C4.28972 17.0996 4.77396 17.5487 5.41129 17.8363C5.5382 17.8936 5.6124 17.9838 5.55539 18.1216C5.49486 18.2672 5.37223 18.2831 5.23282 18.234C5.20615 18.2248 5.18068 18.2121 5.15536 18.1994L5.14456 18.194C4.79544 18.0223 4.47209 17.8136 4.19365 17.5457C3.72308 17.0924 3.37005 16.5633 3.12129 15.9685C3.10319 15.9256 3.09053 15.8801 3.07812 15.8356L3.07812 15.8356L3.07812 15.8356C3.07232 15.8148 3.06658 15.7942 3.06037 15.7742ZM22.6362 12.3066C22.7526 11.9104 22.7905 11.5047 22.7905 11.0586C22.8167 10.483 22.6593 9.91203 22.3765 9.37047C22.2828 9.19082 22.1668 9.1444 22.0376 9.22064C21.8743 9.31688 21.9107 9.44255 21.9813 9.57955C22.2137 10.0298 22.3469 10.503 22.3457 11.0106C22.3449 11.4662 22.3004 11.9141 22.152 12.3485C22.1067 12.4802 22.1555 12.5738 22.2801 12.6214C22.407 12.6701 22.5097 12.6263 22.5648 12.5014C22.5925 12.438 22.6167 12.3727 22.6362 12.3066ZM23.9999 11.0612C23.9866 11.5239 23.8886 12.0458 23.7105 12.5538C23.6972 12.592 23.6791 12.6285 23.6611 12.665C23.6511 12.685 23.6412 12.7051 23.632 12.7255C23.5692 12.8666 23.4625 12.9448 23.3091 12.8749C23.1548 12.8047 23.1677 12.6836 23.2247 12.5402C23.5856 11.6352 23.6883 10.7192 23.3056 9.7931C23.2454 9.64818 23.2532 9.52666 23.4083 9.4625C23.5723 9.39457 23.6629 9.49835 23.7199 9.63233C23.9054 10.066 23.996 10.5188 23.9999 11.0612ZM2.52699 16.1799C2.49418 16.055 2.44342 15.9546 2.31376 15.9501C2.13881 15.9505 2.04431 16.0788 2.07789 16.2396C2.15404 16.6 2.31611 16.9275 2.48637 17.2525C2.81636 17.8831 3.28654 18.3911 3.90942 18.7636C4.0996 18.8776 4.21793 18.8685 4.30111 18.7436C4.3839 18.6194 4.33821 18.5107 4.15037 18.3983C3.81062 18.1945 3.50953 17.9473 3.26975 17.6374C2.92883 17.197 2.66875 16.7158 2.52699 16.1799Z" fill="#1447A6"/>
</svg>
