<svg width="78" height="24" viewBox="0 0 78 24" fill="none" xmlns="http://www.w3.org/2000/svg">
<path d="M3.70898 0.480469H4.41797L7.95703 9H7.06641L5.96484 6.33398H2.13867L1.04297 9H0.146484L3.70898 0.480469ZM5.77148 5.67773L4.05469 1.46484L2.31445 5.67773H5.77148ZM11.5312 9.11719C10.9375 9.11719 10.3984 8.96875 9.91406 8.67188C9.43359 8.375 9.05859 7.97852 8.78906 7.48242C8.52344 6.98633 8.39062 6.44336 8.39062 5.85352C8.39062 5.26367 8.52148 4.72461 8.7832 4.23633C9.04492 3.74805 9.41602 3.36133 9.89648 3.07617C10.377 2.78711 10.918 2.64258 11.5195 2.64258C12.1016 2.64258 12.6152 2.77539 13.0605 3.04102C13.5059 3.30664 13.8418 3.66992 14.0684 4.13086L13.2715 4.38281C13.0996 4.0625 12.8535 3.8125 12.5332 3.63281C12.2168 3.44922 11.8672 3.35742 11.4844 3.35742C10.8438 3.35742 10.3047 3.5957 9.86719 4.07227C9.43359 4.54883 9.2168 5.14258 9.2168 5.85352C9.2168 6.55664 9.44141 7.1582 9.89062 7.6582C10.3398 8.1543 10.875 8.40234 11.4961 8.40234C11.8945 8.40234 12.2734 8.29688 12.6328 8.08594C12.9961 7.87109 13.2266 7.61914 13.3242 7.33008L14.127 7.57031C13.9512 8.02344 13.623 8.39453 13.1426 8.68359C12.666 8.97266 12.1289 9.11719 11.5312 9.11719ZM18.0469 9.11719C17.457 9.11719 16.9199 8.96875 16.4355 8.67188C15.9551 8.375 15.582 7.97852 15.3164 7.48242C15.0508 6.98242 14.918 6.43945 14.918 5.85352C14.918 5.27539 15.0508 4.74219 15.3164 4.25391C15.582 3.76172 15.9551 3.37109 16.4355 3.08203C16.916 2.78906 17.4492 2.64258 18.0352 2.64258C18.6289 2.64258 19.1641 2.79102 19.6406 3.08789C20.1211 3.38086 20.4902 3.77148 20.748 4.25977C21.0059 4.74414 21.1348 5.27148 21.1348 5.8418C21.1348 6.02148 21.1309 6.13086 21.123 6.16992H15.7676C15.8184 6.83789 16.0664 7.39258 16.5117 7.83398C16.957 8.27539 17.4824 8.49609 18.0879 8.49609C18.498 8.49609 18.8828 8.39258 19.2422 8.18555C19.6016 7.97461 19.8555 7.70117 20.0039 7.36523L20.7129 7.55859C20.5176 8.01953 20.1738 8.39453 19.6816 8.68359C19.1934 8.97266 18.6484 9.11719 18.0469 9.11719ZM15.7441 5.57812H20.3672C20.3164 4.90625 20.0703 4.35547 19.6289 3.92578C19.1914 3.49219 18.6641 3.27539 18.0469 3.27539C17.4297 3.27539 16.9004 3.49219 16.459 3.92578C16.0215 4.35938 15.7832 4.91016 15.7441 5.57812ZM24.4453 9.11719C23.3789 9.11719 22.5234 8.77734 21.8789 8.09766L22.2129 7.52344C22.8691 8.14844 23.6016 8.46094 24.4102 8.46094C24.9062 8.46094 25.3027 8.36133 25.5996 8.16211C25.9004 7.95898 26.0508 7.67773 26.0508 7.31836C26.0508 7.09961 25.9766 6.91992 25.8281 6.7793C25.6797 6.63477 25.5195 6.5332 25.3477 6.47461C25.1758 6.41602 24.877 6.33203 24.4512 6.22266C24.3418 6.19531 24.2598 6.17383 24.2051 6.1582C23.8535 6.06055 23.5664 5.96875 23.3438 5.88281C23.1211 5.79297 22.9199 5.68359 22.7402 5.55469C22.5605 5.42578 22.4316 5.27539 22.3535 5.10352C22.2754 4.92773 22.2363 4.71875 22.2363 4.47656C22.2363 3.89453 22.4531 3.44336 22.8867 3.12305C23.3203 2.80273 23.8828 2.64258 24.5742 2.64258C25.043 2.64258 25.4648 2.71875 25.8398 2.87109C26.2148 3.01953 26.5176 3.23047 26.748 3.50391L26.3496 4.05469C25.916 3.55078 25.3086 3.29883 24.5273 3.29883C24.0977 3.29883 23.7363 3.38672 23.4434 3.5625C23.1504 3.73828 23.0039 4.01172 23.0039 4.38281C23.0039 4.49219 23.0156 4.58984 23.0391 4.67578C23.0625 4.75781 23.1074 4.83398 23.1738 4.9043C23.2441 4.9707 23.3105 5.02734 23.373 5.07422C23.4355 5.11719 23.5371 5.16602 23.6777 5.2207C23.8184 5.27148 23.9395 5.31445 24.041 5.34961C24.1426 5.38086 24.2969 5.42578 24.5039 5.48438C24.7031 5.53906 24.8555 5.58203 24.9609 5.61328C25.0703 5.64062 25.207 5.68164 25.3711 5.73633C25.5352 5.78711 25.6602 5.83203 25.7461 5.87109C25.8359 5.90625 25.9414 5.95312 26.0625 6.01172C26.1836 6.07031 26.2754 6.12695 26.3379 6.18164C26.4043 6.23633 26.4746 6.30273 26.5488 6.38086C26.623 6.45898 26.6777 6.54102 26.7129 6.62695C26.748 6.70898 26.7773 6.80469 26.8008 6.91406C26.8281 7.01953 26.8418 7.13477 26.8418 7.25977C26.8418 7.83789 26.623 8.29297 26.1855 8.625C25.752 8.95312 25.1719 9.11719 24.4453 9.11719ZM30.2461 9.11719C29.1797 9.11719 28.3242 8.77734 27.6797 8.09766L28.0137 7.52344C28.6699 8.14844 29.4023 8.46094 30.2109 8.46094C30.707 8.46094 31.1035 8.36133 31.4004 8.16211C31.7012 7.95898 31.8516 7.67773 31.8516 7.31836C31.8516 7.09961 31.7773 6.91992 31.6289 6.7793C31.4805 6.63477 31.3203 6.5332 31.1484 6.47461C30.9766 6.41602 30.6777 6.33203 30.252 6.22266C30.1426 6.19531 30.0605 6.17383 30.0059 6.1582C29.6543 6.06055 29.3672 5.96875 29.1445 5.88281C28.9219 5.79297 28.7207 5.68359 28.541 5.55469C28.3613 5.42578 28.2324 5.27539 28.1543 5.10352C28.0762 4.92773 28.0371 4.71875 28.0371 4.47656C28.0371 3.89453 28.2539 3.44336 28.6875 3.12305C29.1211 2.80273 29.6836 2.64258 30.375 2.64258C30.8438 2.64258 31.2656 2.71875 31.6406 2.87109C32.0156 3.01953 32.3184 3.23047 32.5488 3.50391L32.1504 4.05469C31.7168 3.55078 31.1094 3.29883 30.3281 3.29883C29.8984 3.29883 29.5371 3.38672 29.2441 3.5625C28.9512 3.73828 28.8047 4.01172 28.8047 4.38281C28.8047 4.49219 28.8164 4.58984 28.8398 4.67578C28.8633 4.75781 28.9082 4.83398 28.9746 4.9043C29.0449 4.9707 29.1113 5.02734 29.1738 5.07422C29.2363 5.11719 29.3379 5.16602 29.4785 5.2207C29.6191 5.27148 29.7402 5.31445 29.8418 5.34961C29.9434 5.38086 30.0977 5.42578 30.3047 5.48438C30.5039 5.53906 30.6562 5.58203 30.7617 5.61328C30.8711 5.64062 31.0078 5.68164 31.1719 5.73633C31.3359 5.78711 31.4609 5.83203 31.5469 5.87109C31.6367 5.90625 31.7422 5.95312 31.8633 6.01172C31.9844 6.07031 32.0762 6.12695 32.1387 6.18164C32.2051 6.23633 32.2754 6.30273 32.3496 6.38086C32.4238 6.45898 32.4785 6.54102 32.5137 6.62695C32.5488 6.70898 32.5781 6.80469 32.6016 6.91406C32.6289 7.01953 32.6426 7.13477 32.6426 7.25977C32.6426 7.83789 32.4238 8.29297 31.9863 8.625C31.5527 8.95312 30.9727 9.11719 30.2461 9.11719ZM34.6758 1.55859L34.1367 1.35352L34.8457 0.240234H35.707L34.6758 1.55859ZM33.9961 9V2.74805H34.8105V9H33.9961ZM38.4668 9L35.9355 2.74805H36.7852L38.9238 8.18555L41.0684 2.74805H41.877L39.3457 9H38.4668ZM45.4805 9.11719C44.8906 9.11719 44.3535 8.96875 43.8691 8.67188C43.3887 8.375 43.0156 7.97852 42.75 7.48242C42.4844 6.98242 42.3516 6.43945 42.3516 5.85352C42.3516 5.27539 42.4844 4.74219 42.75 4.25391C43.0156 3.76172 43.3887 3.37109 43.8691 3.08203C44.3496 2.78906 44.8828 2.64258 45.4688 2.64258C46.0625 2.64258 46.5977 2.79102 47.0742 3.08789C47.5547 3.38086 47.9238 3.77148 48.1816 4.25977C48.4395 4.74414 48.5684 5.27148 48.5684 5.8418C48.5684 6.02148 48.5645 6.13086 48.5566 6.16992H43.2012C43.252 6.83789 43.5 7.39258 43.9453 7.83398C44.3906 8.27539 44.916 8.49609 45.5215 8.49609C45.9316 8.49609 46.3164 8.39258 46.6758 8.18555C47.0352 7.97461 47.2891 7.70117 47.4375 7.36523L48.1465 7.55859C47.9512 8.01953 47.6074 8.39453 47.1152 8.68359C46.627 8.97266 46.082 9.11719 45.4805 9.11719ZM43.1777 5.57812H47.8008C47.75 4.90625 47.5039 4.35547 47.0625 3.92578C46.625 3.49219 46.0977 3.27539 45.4805 3.27539C44.8633 3.27539 44.334 3.49219 43.8926 3.92578C43.4551 4.35938 43.2168 4.91016 43.1777 5.57812ZM49.8633 0.240234H50.6777V7.58203C50.6777 7.87109 50.7266 8.07031 50.8242 8.17969C50.9219 8.28516 51.0645 8.33789 51.252 8.33789C51.5176 8.33789 51.7871 8.29102 52.0605 8.19727L52.2012 8.85352C52.0488 8.91211 51.8633 8.96289 51.6445 9.00586C51.4258 9.04883 51.2363 9.07031 51.0762 9.07031C50.7012 9.07031 50.4043 8.96289 50.1855 8.74805C49.9707 8.5293 49.8633 8.23242 49.8633 7.85742V0.240234ZM3.60938 23.1172C3.01562 23.1172 2.47656 22.9688 1.99219 22.6719C1.51172 22.375 1.13672 21.9785 0.867188 21.4824C0.601562 20.9863 0.46875 20.4434 0.46875 19.8535C0.46875 19.2637 0.599609 18.7246 0.861328 18.2363C1.12305 17.748 1.49414 17.3613 1.97461 17.0762C2.45508 16.7871 2.99609 16.6426 3.59766 16.6426C4.17969 16.6426 4.69336 16.7754 5.13867 17.041C5.58398 17.3066 5.91992 17.6699 6.14648 18.1309L5.34961 18.3828C5.17773 18.0625 4.93164 17.8125 4.61133 17.6328C4.29492 17.4492 3.94531 17.3574 3.5625 17.3574C2.92188 17.3574 2.38281 17.5957 1.94531 18.0723C1.51172 18.5488 1.29492 19.1426 1.29492 19.8535C1.29492 20.5566 1.51953 21.1582 1.96875 21.6582C2.41797 22.1543 2.95312 22.4023 3.57422 22.4023C3.97266 22.4023 4.35156 22.2969 4.71094 22.0859C5.07422 21.8711 5.30469 21.6191 5.40234 21.3301L6.20508 21.5703C6.0293 22.0234 5.70117 22.3945 5.2207 22.6836C4.74414 22.9727 4.20703 23.1172 3.60938 23.1172ZM6.99609 19.8945C6.99609 19.4609 7.07422 19.0469 7.23047 18.6523C7.38672 18.2539 7.59961 17.9082 7.86914 17.6152C8.13867 17.3184 8.4668 17.082 8.85352 16.9062C9.24023 16.7305 9.65234 16.6426 10.0898 16.6426C10.6758 16.6426 11.207 16.791 11.6836 17.0879C12.1641 17.3848 12.5371 17.7812 12.8027 18.2773C13.0684 18.7734 13.2012 19.3125 13.2012 19.8945C13.2012 20.4727 13.0684 21.0078 12.8027 21.5C12.541 21.9883 12.1699 22.3809 11.6895 22.6777C11.2129 22.9707 10.6797 23.1172 10.0898 23.1172C9.5 23.1172 8.9668 22.9707 8.49023 22.6777C8.01367 22.3809 7.64453 21.9883 7.38281 21.5C7.125 21.0078 6.99609 20.4727 6.99609 19.8945ZM8.48438 21.6758C8.92969 22.1602 9.46484 22.4023 10.0898 22.4023C10.7148 22.4023 11.25 22.1562 11.6953 21.6641C12.1445 21.1719 12.3691 20.5781 12.3691 19.8828C12.3691 19.1875 12.1445 18.5938 11.6953 18.1016C11.25 17.6055 10.7148 17.3574 10.0898 17.3574C9.68359 17.3574 9.30664 17.4707 8.95898 17.6973C8.61133 17.9238 8.33398 18.2344 8.12695 18.6289C7.92383 19.0195 7.82227 19.4453 7.82227 19.9062C7.82227 20.6016 8.04297 21.1914 8.48438 21.6758ZM23.8652 23H23.0508V19.5078C23.0508 18.0938 22.5898 17.3867 21.668 17.3867C21.1992 17.3867 20.7773 17.5527 20.4023 17.8848C20.0312 18.2168 19.7695 18.6504 19.6172 19.1855V23H18.8027V19.5078C18.8027 18.7734 18.6895 18.2363 18.4629 17.8965C18.2402 17.5566 17.8965 17.3867 17.4316 17.3867C16.9668 17.3867 16.5469 17.5508 16.1719 17.8789C15.8008 18.207 15.5371 18.6387 15.3809 19.1738V23H14.5664V16.748H15.3105V18.166C15.5684 17.6816 15.9043 17.3066 16.3184 17.041C16.7363 16.7754 17.1953 16.6426 17.6953 16.6426C18.207 16.6426 18.625 16.7891 18.9492 17.082C19.2734 17.375 19.4727 17.7637 19.5469 18.248C20.1289 17.1777 20.9316 16.6426 21.9551 16.6426C22.627 16.6426 23.1133 16.877 23.4141 17.3457C23.7148 17.8105 23.8652 18.4746 23.8652 19.3379V23ZM28.2188 19.8945C28.2188 19.4609 28.2969 19.0469 28.4531 18.6523C28.6094 18.2539 28.8223 17.9082 29.0918 17.6152C29.3613 17.3184 29.6895 17.082 30.0762 16.9062C30.4629 16.7305 30.875 16.6426 31.3125 16.6426C31.8984 16.6426 32.4297 16.791 32.9062 17.0879C33.3867 17.3848 33.7598 17.7812 34.0254 18.2773C34.291 18.7734 34.4238 19.3125 34.4238 19.8945C34.4238 20.4727 34.291 21.0078 34.0254 21.5C33.7637 21.9883 33.3926 22.3809 32.9121 22.6777C32.4355 22.9707 31.9023 23.1172 31.3125 23.1172C30.7227 23.1172 30.1895 22.9707 29.7129 22.6777C29.2363 22.3809 28.8672 21.9883 28.6055 21.5C28.3477 21.0078 28.2188 20.4727 28.2188 19.8945ZM29.707 21.6758C30.1523 22.1602 30.6875 22.4023 31.3125 22.4023C31.9375 22.4023 32.4727 22.1562 32.918 21.6641C33.3672 21.1719 33.5918 20.5781 33.5918 19.8828C33.5918 19.1875 33.3672 18.5938 32.918 18.1016C32.4727 17.6055 31.9375 17.3574 31.3125 17.3574C30.9062 17.3574 30.5293 17.4707 30.1816 17.6973C29.834 17.9238 29.5566 18.2344 29.3496 18.6289C29.1465 19.0195 29.0449 19.4453 29.0449 19.9062C29.0449 20.6016 29.2656 21.1914 29.707 21.6758ZM39.709 14.4805L42.0117 21.0312L44.291 14.4805H46.0312L42.8027 23H41.209L37.9688 14.4805H39.709ZM46.7754 14.2402H48.3809V20.9844C48.3809 21.2617 48.4258 21.4531 48.5156 21.5586C48.6055 21.6641 48.7402 21.7168 48.9199 21.7168C49.1777 21.7168 49.4297 21.6602 49.6758 21.5469L49.8926 22.7715C49.6816 22.8691 49.4336 22.9473 49.1484 23.0059C48.8633 23.0645 48.5996 23.0938 48.3574 23.0938C47.8574 23.0938 47.4688 22.959 47.1914 22.6895C46.9141 22.4199 46.7754 22.0391 46.7754 21.5469V14.2402ZM50.5957 15.834V14.2402H52.2012V15.834H50.5957ZM50.5957 23V16.7129H52.2012V23H50.5957ZM55.0605 21.9102V23H53.6543V14.2402H55.2598V17.8145C55.4863 17.4277 55.7832 17.1289 56.1504 16.918C56.5215 16.707 56.9453 16.6016 57.4219 16.6016C57.9531 16.6016 58.4297 16.752 58.8516 17.0527C59.2773 17.3535 59.6035 17.7539 59.8301 18.2539C60.0566 18.75 60.1699 19.293 60.1699 19.8828C60.1699 20.4805 60.043 21.0273 59.7891 21.5234C59.5352 22.0156 59.1816 22.4043 58.7285 22.6895C58.2793 22.9746 57.7793 23.1172 57.2285 23.1172C56.7559 23.1172 56.3301 23.0117 55.9512 22.8008C55.5762 22.5859 55.2793 22.2891 55.0605 21.9102ZM58.5234 19.8945C58.5234 19.3711 58.3672 18.9199 58.0547 18.541C57.7422 18.1621 57.3516 17.9727 56.8828 17.9727C56.5391 17.9727 56.2207 18.0879 55.9277 18.3184C55.6387 18.5488 55.416 18.8418 55.2598 19.1973V20.6973C55.3652 21.0059 55.5664 21.2598 55.8633 21.459C56.1602 21.6543 56.4668 21.752 56.7832 21.752C57.2871 21.752 57.7031 21.5723 58.0312 21.2129C58.3594 20.8496 58.5234 20.4102 58.5234 19.8945ZM65.0039 18.1016C64.5039 18.1094 64.0625 18.207 63.6797 18.3945C63.3008 18.582 63.0293 18.8496 62.8652 19.1973V23H61.2598V16.7129H62.7363V18.0547C62.959 17.6289 63.2422 17.2891 63.5859 17.0352C63.9336 16.7812 64.2988 16.6465 64.6816 16.6309C64.8496 16.6309 64.957 16.6348 65.0039 16.6426V18.1016ZM65.4316 21.1426C65.4316 20.5332 65.6816 20.041 66.1816 19.666C66.6816 19.2871 67.332 19.0977 68.1328 19.0977C68.7344 19.0977 69.2383 19.1816 69.6445 19.3496V19.0156C69.6445 18.6133 69.5254 18.3047 69.2871 18.0898C69.0527 17.875 68.7031 17.7676 68.2383 17.7676C67.9023 17.7676 67.582 17.8262 67.2773 17.9434C66.9727 18.0566 66.6387 18.2344 66.2754 18.4766L65.7539 17.4219C66.5938 16.875 67.4785 16.6016 68.4082 16.6016C69.3066 16.6016 70.0039 16.8262 70.5 17.2754C71 17.7246 71.25 18.3652 71.25 19.1973V21.2012C71.25 21.373 71.2793 21.4961 71.3379 21.5703C71.3965 21.6406 71.4961 21.6816 71.6367 21.6934V23C71.3672 23.0547 71.1387 23.082 70.9512 23.082C70.6426 23.082 70.4023 23.0156 70.2305 22.8828C70.0625 22.7461 69.959 22.5645 69.9199 22.3379L69.8848 22.0156C69.6152 22.3633 69.2754 22.6348 68.8652 22.8301C68.459 23.0215 68.043 23.1172 67.6172 23.1172C66.9883 23.1172 66.4668 22.9297 66.0527 22.5547C65.6387 22.1797 65.4316 21.709 65.4316 21.1426ZM69.3457 21.4648C69.5449 21.2656 69.6445 21.082 69.6445 20.9141V20.2754C69.2344 20.1074 68.8145 20.0234 68.3848 20.0234C67.9629 20.0234 67.6191 20.1152 67.3535 20.2988C67.0879 20.4785 66.9551 20.7148 66.9551 21.0078C66.9551 21.2617 67.0566 21.4824 67.2598 21.6699C67.4629 21.8535 67.7344 21.9453 68.0742 21.9453C68.3125 21.9453 68.5449 21.9023 68.7715 21.8164C69.002 21.7266 69.1934 21.6094 69.3457 21.4648ZM75.0703 23.1172C74.5273 23.1172 74.0117 23.0273 73.5234 22.8477C73.0352 22.668 72.6191 22.4102 72.2754 22.0742L72.8496 21.0312C73.5996 21.625 74.3203 21.9219 75.0117 21.9219C75.3281 21.9219 75.5781 21.8652 75.7617 21.752C75.9492 21.6348 76.043 21.4668 76.043 21.248C76.043 21.1973 76.0371 21.1523 76.0254 21.1133C76.0176 21.0703 75.998 21.0312 75.9668 20.9961C75.9395 20.957 75.9141 20.9238 75.8906 20.8965C75.8672 20.8691 75.8262 20.8418 75.7676 20.8145C75.709 20.7832 75.6602 20.7598 75.6211 20.7441C75.582 20.7246 75.5195 20.7012 75.4336 20.6738C75.3477 20.6426 75.2793 20.6211 75.2285 20.6094C75.1816 20.5938 75.1016 20.5703 74.9883 20.5391C74.875 20.5039 74.7871 20.4766 74.7246 20.457C74.416 20.3594 74.1621 20.2715 73.9629 20.1934C73.7676 20.1152 73.5762 20.0234 73.3887 19.918C73.2012 19.8125 73.0566 19.7012 72.9551 19.584C72.8535 19.4668 72.7715 19.3281 72.709 19.168C72.6504 19.0078 72.6211 18.8242 72.6211 18.6172C72.6211 18 72.8535 17.5078 73.3184 17.1406C73.7832 16.7734 74.4004 16.5898 75.1699 16.5898C76.1113 16.5898 76.8984 16.8867 77.5312 17.4805L76.8809 18.5C76.2559 18.0195 75.6602 17.7793 75.0938 17.7793C74.8125 17.7793 74.5801 17.8301 74.3965 17.9316C74.2129 18.0332 74.1211 18.1992 74.1211 18.4297C74.1211 18.6367 74.2031 18.791 74.3672 18.8926C74.5312 18.9902 74.8301 19.0996 75.2637 19.2207C75.6113 19.3223 75.8867 19.4102 76.0898 19.4844C76.293 19.5547 76.502 19.6445 76.7168 19.7539C76.9355 19.8633 77.0996 19.9785 77.209 20.0996C77.3223 20.2168 77.4141 20.3613 77.4844 20.5332C77.5547 20.7051 77.5898 20.9043 77.5898 21.1309C77.5898 21.748 77.3613 22.2344 76.9043 22.5898C76.4512 22.9414 75.8398 23.1172 75.0703 23.1172Z" fill="#1447A6"/>
</svg>
