<svg width="16" height="16" viewBox="0 0 16 16" fill="none" xmlns="http://www.w3.org/2000/svg">
<path d="M15.5931 2.36435C16.1284 1.83072 16.1366 0.957242 15.6113 0.413382C15.086 -0.130478 14.2262 -0.13877 13.6908 0.394863L8 6.0672L2.30921 0.394863C1.77384 -0.13877 0.913998 -0.130478 0.388698 0.413382C-0.136603 0.957242 -0.128441 1.83072 0.406927 2.36435L6.06091 8L0.406927 13.6356C-0.128441 14.1693 -0.136603 15.0428 0.388698 15.5866C0.913998 16.1305 1.77384 16.1388 2.30921 15.6051L8 9.9328L13.6908 15.6051C14.2262 16.1388 15.086 16.1305 15.6113 15.5866C16.1366 15.0428 16.1284 14.1693 15.5931 13.6356L9.93909 8L15.5931 2.36435Z" fill="#1447A6"/>
</svg>
