<svg width="28" height="21" viewBox="0 0 28 21" fill="none" xmlns="http://www.w3.org/2000/svg">
<path d="M22.2578 0.271484H5.74219C2.57587 0.271484 0 2.84735 0 6.01367V14.8008C0 17.9669 2.57587 20.543 5.74219 20.543H22.2578C25.4241 20.543 28 17.9669 28 14.8008V6.01367C28 2.84735 25.4241 0.271484 22.2578 0.271484ZM26.3594 14.8008C26.3594 17.0623 24.5194 18.9024 22.2578 18.9024H5.74219C3.48056 18.9024 1.64062 17.0623 1.64062 14.8008V6.01367C1.64062 3.75204 3.48056 1.91211 5.74219 1.91211H22.2578C24.5194 1.91211 26.3594 3.75204 26.3594 6.01367V14.8008Z" fill="#4B4B4B"/>
<path d="M21.8646 6.6875H11.085C10.6319 6.6875 10.2646 7.05472 10.2646 7.50781C10.2646 7.96091 10.6319 8.32812 11.085 8.32812H21.8646C22.3177 8.32812 22.6849 7.96091 22.6849 7.50781C22.6849 7.05472 22.3177 6.6875 21.8646 6.6875Z" fill="#4B4B4B"/>
<path d="M6.13574 8.32812H8.6362C9.08929 8.32812 9.45651 7.96091 9.45651 7.50781C9.45651 7.05472 9.08929 6.6875 8.6362 6.6875H6.13574C5.68265 6.6875 5.31543 7.05472 5.31543 7.50781C5.31543 7.96091 5.68265 8.32812 6.13574 8.32812Z" fill="#4B4B4B"/>
<path d="M6.13574 11.2275H16.9154C17.3685 11.2275 17.7357 10.8601 17.7357 10.4072C17.7357 9.95413 17.3685 9.58691 16.9154 9.58691H6.13574C5.68265 9.58691 5.31543 9.95413 5.31543 10.4072C5.31543 10.8601 5.68265 11.2275 6.13574 11.2275Z" fill="#4B4B4B"/>
<path d="M21.8647 9.58691H19.3643C18.9112 9.58691 18.5439 9.95413 18.5439 10.4072C18.5439 10.8601 18.9112 11.2275 19.3643 11.2275H21.8647C22.3178 11.2275 22.685 10.8601 22.685 10.4072C22.685 9.95413 22.3178 9.58691 21.8647 9.58691Z" fill="#4B4B4B"/>
<path d="M21.8646 12.4863H11.085C10.6319 12.4863 10.2646 12.8538 10.2646 13.3066C10.2646 13.7597 10.6319 14.127 11.085 14.127H21.8646C22.3177 14.127 22.6849 13.7597 22.6849 13.3066C22.6849 12.8538 22.3177 12.4863 21.8646 12.4863Z" fill="#4B4B4B"/>
<path d="M8.6362 12.4863H6.13574C5.68265 12.4863 5.31543 12.8538 5.31543 13.3066C5.31543 13.7597 5.68265 14.127 6.13574 14.127H8.6362C9.08929 14.127 9.45651 13.7597 9.45651 13.3066C9.45651 12.8538 9.08929 12.4863 8.6362 12.4863Z" fill="#4B4B4B"/>
</svg>
