<svg xmlns="http://www.w3.org/2000/svg" width="27.474" height="23.714" viewBox="0 0 27.474 23.714"><defs><style>.a,.b{fill:none;stroke-linecap:round;stroke-linejoin:round;}.b{stroke:#717171;}.c,.d{stroke:none;}.d{fill:#717171;}</style></defs><g transform="translate(0)"><g class="a" transform="translate(0 0)"><path class="c" d="M9.1,19.032A9.521,9.521,0,0,1,9.521,0h8.432a9.521,9.521,0,0,1,.519,19.027l-4.687,4.687Z"/><path class="d" d="M 13.78530120849609 22.29988098144531 L 17.76494026184082 18.32024955749512 C 17.93938064575195 18.14582061767578 18.17214012145996 18.0420093536377 18.41847038269043 18.02879905700684 C 22.93576049804688 17.78640937805176 26.47430038452148 14.0493803024292 26.47430038452148 9.521100044250488 C 26.47430038452148 4.822549819946289 22.6517505645752 0.9999999403953552 17.95319938659668 0.9999999403953552 L 9.521100044250488 0.9999999403953552 C 4.822550296783447 0.9999999403953552 1.000000238418579 4.822549819946289 1.000000238418579 9.521100044250488 C 1.000000238418579 11.73186016082764 1.842990159988403 13.82726001739502 3.373690128326416 15.42129993438721 C 4.900060176849365 17.01082992553711 6.950250148773193 17.93841934204102 9.146579742431641 18.03319931030273 C 9.396650314331055 18.04398918151855 9.633589744567871 18.14817047119141 9.810580253601074 18.32515907287598 L 13.78530120849609 22.29988098144531 M 13.78530025482178 23.7140998840332 L 9.103469848632812 19.03227043151855 C 4.038580417633057 18.8137092590332 1.92260742437611e-07 14.6389799118042 1.92260742437611e-07 9.521100044250488 C 1.92260742437611e-07 4.262400150299072 4.262400150299072 -5.79833994152068e-08 9.521100044250488 -5.79833994152068e-08 L 17.95319938659668 -5.79833994152068e-08 C 23.21190071105957 -5.79833994152068e-08 27.47430038452148 4.262400150299072 27.47430038452148 9.521100044250488 C 27.47430038452148 14.60496997833252 23.48958969116211 18.75812911987305 18.47204971313477 19.02735900878906 L 13.78530025482178 23.7140998840332 Z"/></g><g transform="translate(7.617 6.528)"><path class="b" d="M194.978,2291.961h12.377" transform="translate(-194.978 -2291.961)"/><path class="b" d="M194.978,2291.961h12.486" transform="translate(-194.978 -2288.697)"/><path class="b" d="M194.978,2291.961h9.494" transform="translate(-193.617 -2285.433)"/></g></g></svg>