<svg xmlns="http://www.w3.org/2000/svg" width="27.325" height="23.585" viewBox="0 0 27.325 23.585"><defs><style>.a,.b{fill:none;stroke-linecap:round;stroke-linejoin:round;}.b{stroke:#d0d0d0;}.c,.d{stroke:none;}.d{fill:#d0d0d0;}</style></defs><g transform="translate(0 0)"><g class="a" transform="translate(0 0)"><path class="c" d="M9.054,18.929A9.469,9.469,0,0,1,9.469,0h8.387a9.469,9.469,0,0,1,.516,18.924l-4.661,4.661Z"/><path class="d" d="M 13.71060085296631 22.17118072509766 L 17.66497039794922 18.21681022644043 C 17.83938026428223 18.04240036010742 18.07210159301758 17.93860054016113 18.31840133666992 17.92535972595215 C 22.80802154541016 17.68399047851562 26.32490158081055 13.96947002410889 26.32490158081055 9.468899726867676 C 26.32490158081055 4.799129962921143 22.52577018737793 0.9999998211860657 17.85600090026855 0.9999998211860657 L 9.468900680541992 0.9999998211860657 C 4.799130916595459 0.9999998211860657 1.000000834465027 4.799129962921143 1.000000834465027 9.468899726867676 C 1.000000834465027 11.66670989990234 1.837860822677612 13.74967002868652 3.359230756759644 15.334059715271 C 4.876260757446289 16.9139404296875 6.91399097442627 17.83577919006348 9.097050666809082 17.92976951599121 C 9.347160339355469 17.94052886962891 9.584131240844727 18.04471969604492 9.761150360107422 18.22172927856445 L 13.71060085296631 22.17118072509766 M 13.71060085296631 23.58539962768555 L 9.054040908813477 18.92884063720703 C 4.016440868377686 18.71195030212402 7.904052949925244e-07 14.55994987487793 7.904052949925244e-07 9.468899726867676 C 7.904052949925244e-07 4.238999843597412 4.239000797271729 -1.861572229699959e-07 9.468900680541992 -1.861572229699959e-07 L 17.85600090026855 -1.861572229699959e-07 C 23.08500099182129 -1.861572229699959e-07 27.32490158081055 4.238999843597412 27.32490158081055 9.468899726867676 C 27.32490158081055 14.52546977996826 23.36094093322754 18.65571022033691 18.37207984924316 18.92391967773438 L 13.71060085296631 23.58539962768555 Z"/></g><g transform="translate(7.575 6.493)"><path class="b" d="M194.978,2291.961h12.31" transform="translate(-194.978 -2291.961)"/><path class="b" d="M194.978,2291.961H207.4" transform="translate(-194.978 -2288.715)"/><path class="b" d="M194.978,2291.961h9.443" transform="translate(-193.625 -2285.468)"/></g></g></svg>