<svg width="28" height="21" viewBox="0 0 28 21" fill="none" xmlns="http://www.w3.org/2000/svg">
<path d="M22.2578 0H5.74219C2.57587 0 0 2.57587 0 5.74219V14.5294C0 17.6955 2.57587 20.2715 5.74219 20.2715H22.2578C25.4241 20.2715 28 17.6955 28 14.5294V5.74219C28 2.57587 25.4241 0 22.2578 0ZM26.3594 14.5294C26.3594 16.7908 24.5194 18.6309 22.2578 18.6309H5.74219C3.48056 18.6309 1.64062 16.7908 1.64062 14.5294V5.74219C1.64062 3.48056 3.48056 1.64062 5.74219 1.64062H22.2578C24.5194 1.64062 26.3594 3.48056 26.3594 5.74219V14.5294Z" fill="#939293"/>
<path d="M21.8646 6.41602H11.085C10.6319 6.41602 10.2646 6.78323 10.2646 7.23633C10.2646 7.68942 10.6319 8.05664 11.085 8.05664H21.8646C22.3177 8.05664 22.6849 7.68942 22.6849 7.23633C22.6849 6.78323 22.3177 6.41602 21.8646 6.41602Z" fill="#939293"/>
<path d="M6.13574 8.05664H8.6362C9.08929 8.05664 9.45651 7.68942 9.45651 7.23633C9.45651 6.78323 9.08929 6.41602 8.6362 6.41602H6.13574C5.68265 6.41602 5.31543 6.78323 5.31543 7.23633C5.31543 7.68942 5.68265 8.05664 6.13574 8.05664Z" fill="#939293"/>
<path d="M6.13574 10.9561H16.9154C17.3685 10.9561 17.7357 10.5886 17.7357 10.1357C17.7357 9.68265 17.3685 9.31543 16.9154 9.31543H6.13574C5.68265 9.31543 5.31543 9.68265 5.31543 10.1357C5.31543 10.5886 5.68265 10.9561 6.13574 10.9561Z" fill="#939293"/>
<path d="M21.8647 9.31543H19.3643C18.9112 9.31543 18.5439 9.68265 18.5439 10.1357C18.5439 10.5886 18.9112 10.9561 19.3643 10.9561H21.8647C22.3178 10.9561 22.685 10.5886 22.685 10.1357C22.685 9.68265 22.3178 9.31543 21.8647 9.31543Z" fill="#939293"/>
<path d="M21.8646 12.2148H11.085C10.6319 12.2148 10.2646 12.5823 10.2646 13.0352C10.2646 13.4883 10.6319 13.8555 11.085 13.8555H21.8646C22.3177 13.8555 22.6849 13.4883 22.6849 13.0352C22.6849 12.5823 22.3177 12.2148 21.8646 12.2148Z" fill="#939293"/>
<path d="M8.6362 12.2148H6.13574C5.68265 12.2148 5.31543 12.5823 5.31543 13.0352C5.31543 13.4883 5.68265 13.8555 6.13574 13.8555H8.6362C9.08929 13.8555 9.45651 13.4883 9.45651 13.0352C9.45651 12.5823 9.08929 12.2148 8.6362 12.2148Z" fill="#939293"/>
</svg>
