<svg width="87" height="21" viewBox="0 0 87 21" fill="none" xmlns="http://www.w3.org/2000/svg">
<path d="M31.4838 19.4556V20.9485H27.0196V14.711H31.4062V16.2039H28.7389V17.0833H31.0184V18.469H28.7389V19.4556H31.4838Z" fill="#363636"/>
<path d="M36.892 14.6767C37.4809 14.6767 38.0009 14.7997 38.4519 15.0456C38.9029 15.2916 39.239 15.6219 39.4602 16.0366L38.146 16.9675C38.0885 16.8216 38.011 16.6972 37.9133 16.5943C37.8156 16.4885 37.7065 16.4084 37.5858 16.354C37.4651 16.2968 37.3445 16.2568 37.2238 16.2339C37.1061 16.2082 36.984 16.1953 36.8576 16.1953C36.622 16.1953 36.4109 16.2439 36.2241 16.3412C36.0374 16.4356 35.888 16.5628 35.776 16.723C35.6668 16.8803 35.5835 17.0533 35.5261 17.2421C35.4686 17.4308 35.4399 17.6267 35.4399 17.8298C35.4399 18.2845 35.5706 18.6734 35.832 18.9966C36.0934 19.3198 36.441 19.4814 36.8748 19.4814C37.0443 19.4814 37.2066 19.4585 37.3617 19.4127C37.5169 19.3641 37.6648 19.2812 37.8056 19.1639C37.9492 19.0438 38.0541 18.8951 38.1201 18.7178L39.5249 19.55C39.4071 19.8446 39.2003 20.1048 38.9044 20.3308C38.6114 20.5567 38.2853 20.7254 37.9262 20.837C37.5671 20.9457 37.2052 21 36.8403 21C36.3922 21 35.9685 20.9071 35.5692 20.7212C35.1727 20.5353 34.8381 20.2922 34.5651 19.9919C34.2951 19.6887 34.0811 19.3441 33.9231 18.958C33.768 18.5691 33.6904 18.1758 33.6904 17.7783C33.6904 17.3951 33.7637 17.0204 33.9102 16.6543C34.0595 16.2854 34.2664 15.9537 34.5307 15.6591C34.7978 15.3645 35.1368 15.1271 35.5476 14.947C35.9584 14.7668 36.4066 14.6767 36.892 14.6767Z" fill="#363636"/>
<path d="M41.5419 17.8212C41.5419 17.4122 41.6223 17.0176 41.7832 16.6372C41.9441 16.254 42.1638 15.9179 42.4425 15.6291C42.7211 15.3402 43.0601 15.11 43.4594 14.9384C43.8616 14.7639 44.2896 14.6767 44.7435 14.6767C45.2031 14.6767 45.6341 14.7682 46.0362 14.9513C46.4384 15.1314 46.7731 15.3717 47.0403 15.672C47.3103 15.9694 47.5214 16.3083 47.6737 16.6887C47.8288 17.069 47.9064 17.458 47.9064 17.8555C47.9064 18.2616 47.8259 18.6549 47.6651 19.0352C47.5071 19.4156 47.2887 19.7516 47.0101 20.0434C46.7343 20.3322 46.3953 20.5639 45.9931 20.7383C45.591 20.9128 45.1629 21 44.709 21C44.2494 21 43.8185 20.9099 43.4163 20.7297C43.017 20.5496 42.6823 20.3108 42.4123 20.0133C42.1423 19.7159 41.9297 19.377 41.7746 18.9966C41.6194 18.6134 41.5419 18.2216 41.5419 17.8212ZM44.7263 19.4814C44.9647 19.4814 45.1773 19.4342 45.364 19.3398C45.5536 19.2426 45.7044 19.1139 45.8165 18.9537C45.9285 18.7936 46.0133 18.6177 46.0707 18.4261C46.1282 18.2345 46.1569 18.0328 46.1569 17.8212C46.1569 17.5295 46.1052 17.2635 46.0018 17.0233C45.9012 16.783 45.7389 16.5857 45.5148 16.4313C45.2936 16.274 45.0279 16.1953 44.7177 16.1953C44.4792 16.1953 44.2666 16.2425 44.0799 16.3369C43.8932 16.4313 43.7438 16.5571 43.6318 16.7144C43.5197 16.8717 43.435 17.0462 43.3775 17.2378C43.3201 17.4294 43.2914 17.6296 43.2914 17.8383C43.2914 18.0528 43.3201 18.2573 43.3775 18.4518C43.4379 18.6434 43.5255 18.8179 43.6404 18.9752C43.7553 19.1296 43.9061 19.2526 44.0928 19.3441C44.2796 19.4356 44.4907 19.4814 44.7263 19.4814Z" fill="#363636"/>
<path d="M52.2072 17.8812V20.9485H50.4879V14.711H51.828L54.3445 17.8812V14.711H56.0638V20.9485H54.6978L52.2072 17.8812Z" fill="#363636"/>
<path d="M58.6496 17.8212C58.6496 17.4122 58.73 17.0176 58.8909 16.6372C59.0518 16.254 59.2715 15.9179 59.5502 15.6291C59.8288 15.3402 60.1678 15.11 60.5671 14.9384C60.9693 14.7639 61.3973 14.6767 61.8512 14.6767C62.3109 14.6767 62.7418 14.7682 63.1439 14.9513C63.5461 15.1314 63.8808 15.3717 64.148 15.672C64.418 15.9694 64.6291 16.3083 64.7814 16.6887C64.9365 17.069 65.0141 17.458 65.0141 17.8555C65.0141 18.2616 64.9336 18.6549 64.7728 19.0352C64.6148 19.4156 64.3964 19.7516 64.1178 20.0434C63.842 20.3322 63.503 20.5639 63.1009 20.7383C62.6987 20.9128 62.2706 21 61.8167 21C61.3571 21 60.9262 20.9099 60.524 20.7297C60.1247 20.5496 59.79 20.3108 59.52 20.0133C59.25 19.7159 59.0374 19.377 58.8823 18.9966C58.7271 18.6134 58.6496 18.2216 58.6496 17.8212ZM61.834 19.4814C62.0724 19.4814 62.285 19.4342 62.4717 19.3398C62.6613 19.2426 62.8121 19.1139 62.9242 18.9537C63.0362 18.7936 63.121 18.6177 63.1784 18.4261C63.2359 18.2345 63.2646 18.0328 63.2646 17.8212C63.2646 17.5295 63.2129 17.2635 63.1095 17.0233C63.0089 16.783 62.8466 16.5857 62.6225 16.4313C62.4013 16.274 62.1356 16.1953 61.8254 16.1953C61.5869 16.1953 61.3744 16.2425 61.1876 16.3369C61.0009 16.4313 60.8515 16.5571 60.7395 16.7144C60.6274 16.8717 60.5427 17.0462 60.4852 17.2378C60.4278 17.4294 60.3991 17.6296 60.3991 17.8383C60.3991 18.0528 60.4278 18.2573 60.4852 18.4518C60.5456 18.6434 60.6332 18.8179 60.7481 18.9752C60.863 19.1296 61.0138 19.2526 61.2006 19.3441C61.3873 19.4356 61.5984 19.4814 61.834 19.4814Z" fill="#363636"/>
<path d="M72.3355 20.9485V17.6625L71.2841 19.9747H70.3663L69.3149 17.6625V20.9485H67.5956V14.711H69.4743L70.8231 17.6453L72.1847 14.711H74.0549V20.9485H72.3355Z" fill="#363636"/>
<path d="M76.9811 20.9485V14.711H78.7004V20.9485H76.9811Z" fill="#363636"/>
<path d="M83.0831 14.711H85.0049L87 20.9485H85.2548L84.8756 19.7259H83.2037L82.8331 20.9485H81.0793L83.0831 14.711ZM84.5998 18.5848L84.044 16.3884L83.4622 18.5848H84.5998Z" fill="#363636"/>
<path d="M5.26569 8.03926V3.59493L3.4214 6.96679H2.83968L0.986778 3.59493V8.03926H0V1.80176H1.06003L3.1327 5.61547L5.20536 1.80176H6.26539V8.03926H5.26569Z" fill="#363636"/>
<path d="M9.57614 8.03926V1.80176H10.5629V8.03926H9.57614Z" fill="#363636"/>
<path d="M14.8647 3.62925V8.03926H13.878V1.80176H14.6881L18.2388 6.31043V1.81033H19.2341V8.03926H18.368L14.8647 3.62925Z" fill="#363636"/>
<path d="M22.5406 8.03926V1.80176H23.5274V8.03926H22.5406Z" fill="#363636"/>
<path d="M30.5482 3.2689C30.4132 3.12018 30.1834 2.97719 29.8588 2.83991C29.5342 2.70263 29.1995 2.63399 28.8548 2.63399C28.4468 2.63399 28.1409 2.70978 27.9369 2.86136C27.7358 3.01007 27.6353 3.22171 27.6353 3.49626C27.6353 3.58206 27.6468 3.65928 27.6698 3.72792C27.6927 3.79656 27.7215 3.85804 27.7559 3.91238C27.7933 3.96386 27.8479 4.01391 27.9197 4.06253C27.9915 4.11115 28.0619 4.15262 28.1308 4.18694C28.2027 4.22125 28.2989 4.25843 28.4195 4.29847C28.5431 4.33565 28.658 4.36854 28.7643 4.39714C28.8706 4.42288 29.0099 4.4572 29.1822 4.5001C29.458 4.56588 29.6936 4.63165 29.8889 4.69743C30.0843 4.76035 30.2724 4.84186 30.4534 4.94196C30.6344 5.03919 30.7795 5.1493 30.8886 5.27228C30.9978 5.3924 31.084 5.53968 31.1472 5.71414C31.2133 5.88859 31.2463 6.08736 31.2463 6.31043C31.2463 6.55925 31.2061 6.78375 31.1256 6.98395C31.0481 7.18414 30.9403 7.35288 30.8025 7.49015C30.6646 7.62743 30.4979 7.74326 30.3026 7.83763C30.1073 7.92915 29.8976 7.99636 29.6735 8.03926C29.4494 8.0793 29.2081 8.09932 28.9496 8.09932C28.4727 8.09932 28.0116 8.02782 27.5663 7.88482C27.1211 7.73897 26.7203 7.53019 26.3641 7.2585L26.8166 6.41339C26.9975 6.59929 27.292 6.77946 27.6999 6.95392C28.1107 7.12551 28.533 7.21131 28.9668 7.21131C29.3575 7.21131 29.6577 7.14267 29.8674 7.00539C30.08 6.86812 30.1863 6.67078 30.1863 6.41339C30.1863 6.31043 30.1705 6.21748 30.1389 6.13455C30.1073 6.05161 30.0527 5.97725 29.9751 5.91147C29.8976 5.84283 29.8171 5.78421 29.7338 5.73559C29.6534 5.68697 29.537 5.63692 29.3848 5.58544C29.2354 5.53396 29.0975 5.49106 28.9711 5.45674C28.8476 5.42242 28.6795 5.3781 28.4669 5.32376C28.1366 5.23796 27.8637 5.15073 27.6482 5.06207C27.4328 4.97342 27.2417 4.86474 27.0751 4.73604C26.9114 4.60735 26.7921 4.45577 26.7175 4.28131C26.6428 4.104 26.6054 3.89522 26.6054 3.65499C26.6054 3.3547 26.6629 3.08443 26.7778 2.8442C26.8956 2.60111 27.0564 2.40091 27.2604 2.24361C27.4644 2.08632 27.7042 1.9662 27.98 1.88326C28.2558 1.80033 28.556 1.75886 28.8806 1.75886C29.6505 1.75886 30.3557 1.99337 30.9964 2.4624L30.5482 3.2689Z" fill="#363636"/>
<path d="M38.7325 2.6726H36.6512V8.03926H35.6515V2.6726H33.5616V1.80176H38.7325V2.6726Z" fill="#363636"/>
<path d="M44.0125 1.15827L43.3748 0.965226L43.8789 0H44.8054L44.0125 1.15827ZM45.7663 7.16841V8.03926H41.4702V1.80176H45.6887V2.6726H42.4569V4.44433H45.2535V5.2637H42.4569V7.16841H45.7663Z" fill="#363636"/>
<path d="M48.6849 8.03926V1.80176H51.4126C51.6855 1.80176 51.944 1.86038 52.1882 1.97764C52.4353 2.0949 52.6421 2.24933 52.8087 2.44095C52.9753 2.63256 53.1075 2.84992 53.2052 3.09301C53.3028 3.33611 53.3517 3.58206 53.3517 3.83087C53.3517 4.25414 53.2396 4.63737 53.0156 4.98057C52.7915 5.3209 52.4956 5.54969 52.1279 5.66695L53.6016 8.03926H52.4898L51.1282 5.86857H49.6717V8.03926H48.6849ZM49.6717 4.99773H51.404C51.6769 4.99773 51.9024 4.88476 52.0805 4.65882C52.2586 4.43003 52.3476 4.15405 52.3476 3.83087C52.3476 3.51342 52.2471 3.24173 52.046 3.01579C51.8449 2.787 51.6122 2.6726 51.3479 2.6726H49.6717V4.99773Z" fill="#363636"/>
<path d="M56.4168 8.03926V1.80176H57.4036V8.03926H56.4168Z" fill="#363636"/>
<path d="M60.3222 4.92051C60.3222 4.50868 60.3983 4.11115 60.5506 3.72792C60.7057 3.34183 60.9154 3.00436 61.1797 2.7155C61.444 2.42665 61.7643 2.195 62.1406 2.02054C62.5169 1.84608 62.9162 1.75886 63.3385 1.75886C63.7723 1.75886 64.1788 1.85037 64.558 2.03341C64.9372 2.21644 65.2532 2.45811 65.506 2.7584C65.7617 3.05583 65.9628 3.39474 66.1093 3.77511C66.2558 4.15262 66.329 4.53728 66.329 4.92909C66.329 5.34092 66.2515 5.73845 66.0963 6.12168C65.9441 6.50491 65.7373 6.84095 65.4758 7.1298C65.2144 7.41865 64.8955 7.65031 64.5192 7.82476C64.1429 7.99636 63.7436 8.08216 63.3213 8.08216C62.9708 8.08216 62.6376 8.02496 62.3216 7.91056C62.0056 7.79331 61.7269 7.63315 61.4856 7.43009C61.2472 7.22704 61.0389 6.99253 60.8608 6.72655C60.6856 6.46058 60.552 6.17316 60.4601 5.86428C60.3681 5.55255 60.3222 5.23796 60.3222 4.92051ZM63.3299 7.19415C63.6344 7.19415 63.9145 7.12837 64.1702 6.99682C64.4259 6.86526 64.6356 6.69223 64.7993 6.47774C64.9631 6.26038 65.0895 6.01729 65.1785 5.74846C65.2704 5.47962 65.3164 5.20364 65.3164 4.92051C65.3164 4.62593 65.2676 4.3428 65.1699 4.07111C65.0751 3.79656 64.9429 3.55489 64.7735 3.34612C64.6068 3.13448 64.3971 2.96718 64.1443 2.8442C63.8944 2.71836 63.6229 2.65544 63.3299 2.65544C63.0254 2.65544 62.7439 2.72122 62.4853 2.85278C62.2297 2.98148 62.0185 3.15307 61.8519 3.36757C61.6853 3.58206 61.556 3.82372 61.4641 4.09256C61.3722 4.36139 61.3262 4.63737 61.3262 4.92051C61.3262 5.31518 61.4052 5.68411 61.5632 6.0273C61.7241 6.37049 61.9596 6.65076 62.2699 6.86812C62.5801 7.08547 62.9335 7.19415 63.3299 7.19415Z" fill="#363636"/>
<path d="M73.3297 8.03926V1.80176H75.5532C76.0444 1.80176 76.4854 1.88326 76.8761 2.04628C77.2697 2.20643 77.5914 2.42951 77.8413 2.7155C78.0912 2.99864 78.2809 3.32753 78.4101 3.70218C78.5423 4.07397 78.6083 4.47722 78.6083 4.91193C78.6083 5.8557 78.3297 6.61358 77.7724 7.18557C77.2179 7.7547 76.4782 8.03926 75.5532 8.03926H73.3297ZM75.5532 2.6726H74.3165V7.16841H75.5532C75.9841 7.16841 76.3547 7.06974 76.6649 6.87241C76.9781 6.67221 77.2122 6.40338 77.3673 6.06591C77.5225 5.72844 77.6 5.34378 77.6 4.91193C77.6 4.24556 77.4176 3.70647 77.0528 3.29464C76.6908 2.87995 76.1909 2.6726 75.5532 2.6726Z" fill="#363636"/>
<path d="M83.1213 1.80176H84.0564L86.491 8.03926H85.4482L84.7889 6.34475H82.3715L81.7166 8.03926H80.6651L83.1213 1.80176ZM84.595 5.61547L83.5867 2.88281L82.5482 5.61547H84.595Z" fill="#363636"/>
</svg>
