<svg width="44" height="44" viewBox="0 0 44 44" fill="none" xmlns="http://www.w3.org/2000/svg">
<g clip-path="url(#clip0_2456_1466)">
<path d="M27.7738 8.9203C24.8057 8.11571 23.8404 8.04937 21.9852 8.13812C20.0223 8.25965 18.9815 8.40046 17.6047 9.2332C17.3479 9.25486 17.2008 9.16733 16.9267 8.76385C16.6445 7.73665 16.8204 7.38215 17.9697 7.30366C17.587 7.01893 17.3172 6.90188 16.301 7.09507C14.8067 7.64203 14.7151 8.40633 14.5279 9.7547C13.7942 9.50556 13.3406 9.41086 11.9204 9.91115C12.8222 10.1414 13.1589 10.432 13.2763 11.4235C12.1022 12.1751 11.5298 12.6659 10.7209 13.7181C9.26398 16.2668 9.08779 17.577 9 19.8717C9.07318 22.1614 9.39313 22.9331 9.93869 24.3566C10.3694 25.4477 11.4488 26.7864 15.2058 30.771C15.4449 30.8301 15.4981 30.9772 15.5187 31.3447C15.5014 31.8533 15.5309 32.0368 15.6752 32.2312C15.9118 32.0966 16.1318 32.1116 16.6138 32.2312C16.7185 32.5679 16.8471 32.6549 17.1875 32.6484L17.1353 35.2559C16.2686 35.6188 15.7403 35.8113 15.5708 36.351C14.6067 38.7962 14.2383 40.2277 13.8499 42.8697C13.8151 43.3188 13.8323 43.677 13.8499 44.2778H27.3045C27.2447 43.515 27.1601 42.4603 27.2002 42.9219C27.2066 42.602 26.9732 42.1202 24.3841 38.4892C23.8042 37.5104 23.561 37.0538 23.5497 36.7161C23.6006 35.68 23.6297 35.1005 23.8104 34.4215C23.927 33.7759 24.8013 33.4306 24.8534 33.4306C24.9056 33.4306 24.9738 33.1462 26.2093 33.6914C26.9549 34.1557 30.1382 34.8043 30.9549 34.6822C31.8946 34.4676 32.1535 33.6488 32.5716 32.0747L32.5779 32.0674C33.0089 31.5609 33.2536 31.2733 33.1452 31.0318L33.1451 31.031C33.1346 30.9686 33.1287 30.9338 32.9888 30.771C32.9961 30.5583 33.0606 30.4965 33.2495 30.4581C33.5259 30.3805 33.5866 30.1047 33.6146 29.4151C34.0865 29.3139 34.3293 29.1458 34.6576 28.32C34.8442 27.8176 34.7866 27.5651 34.6576 27.1205C34.4241 26.6927 34.2572 26.4465 33.8753 25.9732C33.5366 25.3854 33.3585 25.0019 33.0931 24.0958C33.1718 22.3168 33.3253 21.4301 34.0318 20.2889C34.2258 20.1374 34.0493 18.0628 33.9275 17.0035C34.3322 17.1768 34.4856 17.3301 34.6576 17.6814L34.8662 17.3685L35.0748 17.4728C35.3943 17.6582 35.4891 17.7743 35.5441 17.9943V17.0556L35.5963 17.1599C35.7861 16.2748 35.7527 15.5433 35.6484 15.1783C35.5441 14.8132 35.4007 14.9095 35.1269 14.2917L35.2312 14.1874C35.1402 14.2576 35.0117 14.1646 34.7097 13.8745C33.6026 12.9112 33.3266 12.6771 32.8341 12.2593L32.8323 12.2579C30.4302 10.2493 29.283 9.45267 27.7738 8.9203Z" fill="#2365DE"/>
</g>
<defs>
<clipPath id="clip0_2456_1466">
<rect width="44" height="44" fill="white"/>
</clipPath>
</defs>
</svg>
