<svg width="44" height="44" viewBox="0 0 44 44" fill="none" xmlns="http://www.w3.org/2000/svg">
<g clip-path="url(#clip0_2456_1468)">
<path d="M38.5836 21.0387C38.9111 23.0937 36.2624 22.599 36.9861 23.9758C37.2647 24.3337 37.252 24.487 36.9535 24.8147C36.5166 25.4049 35.8589 24.9808 36.465 25.8555C36.8495 26.5467 35.7097 26.7449 35.7675 27.8748C35.7187 29.4737 34.6648 30.5678 33.0483 30.3392C31.2608 30.3714 28.6845 28.7587 27.6378 31.0221C27.3592 31.8344 27.1548 32.6742 26.7965 33.4572C26.7569 33.5395 26.7416 33.6318 26.7523 33.7228C26.7631 33.8138 26.7995 33.8997 26.8572 33.9702C29.3457 36.9991 31.6272 40.7715 32.823 44.4824H15.7802C15.2718 40.9083 17.1679 37.4434 18.7917 34.3475C19.1689 33.6389 19.3869 32.9065 19.3254 32.0813C19.2639 31.2415 19.3408 31.1965 20.1631 31.1323C20.4299 31.0965 20.699 31.0808 20.9682 31.0854C21.1699 31.0992 21.2775 31.012 21.3228 30.8046C21.3797 30.5476 21.3997 30.2842 21.4585 30.0281C21.5173 29.772 21.5552 29.5122 21.6032 29.2415C21.2413 29.2736 20.9853 29.5058 20.6986 29.6664C20.5894 29.7398 20.466 29.7886 20.3367 29.8096C20.3022 29.8174 20.2663 29.8151 20.233 29.8031C20.1998 29.7911 20.1705 29.7698 20.1486 29.7417C20.1293 29.7103 20.1208 29.6732 20.1244 29.6364C20.128 29.5995 20.1435 29.5649 20.1685 29.5379C20.2159 29.4715 20.2729 29.4127 20.3376 29.3636C20.6739 29.0965 20.9738 28.7854 21.2296 28.4384C21.4277 28.1704 21.4304 28.0538 21.2422 27.783C20.733 27.0421 20.1075 26.391 19.3905 25.8555C18.608 25.2755 17.7776 24.7697 16.987 24.2034C16.2579 23.6821 15.5794 23.0937 15.1217 22.3007C14.7137 21.5921 14.35 20.8588 14.1266 20.063C14.0361 19.7353 14.0199 19.7408 13.7259 19.873C13.5241 19.9624 13.3065 20.009 13.0863 20.0098C12.5191 20.0189 11.9537 20.0428 11.3865 20.0905C4.03931 19.1093 4.57846 5.43799 10.7606 5.20944C10.7606 5.20944 12.8357 4.9451 14.1429 5.66837C14.4296 5.82624 14.5708 5.62523 14.7155 5.44808C17.4429 2.35677 21.9316 -0.00393868 25.7979 1.42974C25.8331 1.44259 27.1294 1.95016 27.6803 2.23102C28.8563 2.55135 30.2133 2.01716 31.3892 2.38706C32.0804 2.7955 32.8321 3.08829 33.5096 3.5206C34.2581 4.00705 34.9639 4.55795 35.6192 5.16722C36.1556 5.65827 36.5066 6.31453 36.8703 6.94051C37.4215 7.8611 37.8066 8.87404 38.0074 9.93178C38.0933 10.4155 38.0607 10.9029 38.0254 11.3866C38.011 11.5885 37.9965 11.9198 37.9965 12.1208C37.9965 12.868 37.906 13.6124 37.9223 14.3604C37.9223 15.9354 36.7319 15.2599 37.0711 14.1006C37.0023 14.4063 36.9725 14.7973 36.6468 15.0616C36.5564 15.438 36.9996 15.7959 36.693 16.264C36.4216 17.0983 36.285 17.9382 36.8296 18.7606C37.1643 19.2892 37.4935 19.8895 38.0263 20.2411C38.3511 20.4182 38.5465 20.666 38.5836 21.0387Z" fill="#2365DE"/>
</g>
<defs>
<clipPath id="clip0_2456_1468">
<rect width="44" height="44" fill="white"/>
</clipPath>
</defs>
</svg>
