<svg width="44" height="44" viewBox="0 0 44 44" fill="none" xmlns="http://www.w3.org/2000/svg">
<g clip-path="url(#clip0_2456_1470)">
<path d="M12.172 5.10673C12.0523 5.66406 11.6549 6.12054 11.5667 6.79562C12.7773 6.26421 13.9114 5.75731 15.053 5.26658C17.004 4.45151 18.9016 3.50878 20.7339 2.44424C22.0755 1.64666 23.5476 1.43163 25.0815 1.50989C26.3094 1.57268 27.5396 1.58981 28.7685 1.63191C29.0019 1.59872 29.2394 1.64583 29.4437 1.76584C29.2819 1.96993 29.0246 1.97302 28.8318 2.10147C28.5291 2.30461 28.4295 2.52155 28.8381 2.69186C30.4404 3.3579 31.9682 4.24445 33.7416 4.4112C34.4243 4.47519 34.794 4.28893 35.1193 3.66785C35.4624 3.01252 35.4599 2.28416 35.5705 1.57911C35.6063 1.35027 35.5633 1.02225 35.8573 1.00084C36.1248 0.981574 36.1935 1.29723 36.2699 1.51679C36.5117 2.21121 36.7244 2.91523 36.9078 3.62884C37.0095 3.99522 37.0149 4.38252 36.9233 4.75169C36.8318 5.12086 36.6467 5.45886 36.3865 5.73162C35.8245 6.37904 35.0718 6.8224 34.2417 6.99495C32.8281 7.29964 31.4539 7.77059 30.1464 8.39839C30.0067 8.46761 29.789 8.46285 29.779 8.72689C30.0881 8.78778 30.3401 8.41766 30.6544 8.60082C30.6513 8.64839 30.6609 8.71428 30.6453 8.72142C29.8851 9.06371 29.9056 9.65173 30.1012 10.3473C30.3672 11.1776 30.3556 12.0747 30.0681 12.8975C29.3908 14.8273 30.6662 17.3882 32.5216 18.1247C32.9818 18.2913 33.4206 18.5139 33.8287 18.7876C34.1854 19.0419 34.2366 19.3198 33.9917 19.6977C33.3895 20.6618 32.5394 21.438 31.5342 21.9413C30.6278 22.3869 30.5156 22.5807 30.6069 23.6162C30.6458 24.0565 30.4143 24.1776 30.0621 24.2154C29.948 24.2275 29.8087 24.2154 29.7629 24.3507C29.7091 24.5108 29.8663 24.541 29.9547 24.5986C30.178 24.7468 30.2388 24.9409 30.0697 25.1512C29.012 26.4673 28.8055 28.0701 28.5645 29.6724C28.3832 30.8784 28.0891 31.0332 26.8912 30.8855C25.5347 30.7301 24.19 30.4805 22.8666 30.1386C22.6809 30.0708 22.4774 30.0753 22.2947 30.151C22.112 30.2267 21.9629 30.3684 21.8759 30.5492C21.5024 31.2038 21.1732 31.8838 20.8906 32.5844C20.8345 32.6888 20.8159 32.81 20.838 32.9269C20.8601 33.0439 20.9214 33.1493 21.0114 33.225C21.1348 33.3403 21.2343 33.4797 21.3041 33.635C21.3739 33.7902 21.4126 33.9581 21.418 34.1289C21.418 34.6957 21.4561 35.2454 21.8156 35.7181C21.8543 35.7688 21.8745 35.9024 21.8454 35.9269C21.6738 36.073 21.5842 35.8318 21.441 35.818C21.3907 35.7659 21.3355 35.7057 21.2722 35.7876C21.2601 35.803 21.3136 35.8718 21.3369 35.9158C22.377 36.7971 22.8473 37.9688 23.1395 39.2916C23.5246 41.0328 24.0396 42.7443 24.4989 44.4684L8.47217 44.4822C8.29616 44.4822 8.11618 44.4939 8 44.3157C8.32735 42.5079 9.1937 40.9648 10.2142 39.4855C11.6272 37.4377 12.6304 35.1679 13.5783 32.8701C13.7296 32.503 13.6672 32.2806 13.2975 32.1129C12.9454 31.9531 12.9101 31.661 13.0698 31.313C13.4005 30.6349 13.7709 29.9778 14.179 29.3453C14.4372 28.9224 14.8425 28.9752 15.2285 29.0456C15.4846 29.0932 15.6641 29.1134 15.7808 28.8056C16.3358 27.3381 16.9577 25.8957 17.2611 24.3405C17.3211 24.0068 17.272 23.6623 17.1214 23.36C15.7354 20.2268 13.955 17.3671 11.5883 14.9023C10.5899 13.8324 9.74602 12.6224 9.08217 11.309C9.02257 11.1953 8.94248 11.0925 8.85238 10.9522C8.63399 11.3054 8.82094 11.6087 8.84935 11.9655C8.76682 11.9272 8.69508 11.8683 8.64075 11.7941C8.58643 11.72 8.55126 11.6331 8.53852 11.5414C8.36437 10.8608 8.62584 10.1855 8.54738 9.48355C8.46239 8.72546 9.08823 8.25567 9.65818 7.84367C9.9251 7.60878 10.1333 7.31218 10.2654 6.97854C10.6735 6.15564 11.323 5.48351 12.1231 5.05607C12.1389 5.07153 12.1555 5.08961 12.172 5.10673ZM21.1216 35.5261C21.0897 35.5552 21.0417 35.5868 21.0459 35.5975C21.0674 35.6419 21.0934 35.6838 21.1234 35.7226C21.1483 35.7029 21.197 35.675 21.1933 35.6651C21.1737 35.6166 21.1497 35.5701 21.1216 35.5261Z" fill="#2365DE"/>
</g>
<defs>
<clipPath id="clip0_2456_1470">
<rect width="44" height="44" fill="white"/>
</clipPath>
</defs>
</svg>
