<svg width="24" height="24" viewBox="0 0 24 24" fill="none" xmlns="http://www.w3.org/2000/svg">
<g clip-path="url(#clip0)">
<g clip-path="url(#clip1)">
<path d="M11.5173 24C11.3481 23.8619 11.1668 23.7357 11.0118 23.5834C10.4193 23.0014 9.83461 22.4117 9.24818 21.8237C8.88134 21.4561 8.8822 21.1139 9.24904 20.7459C9.52202 20.4721 9.79759 20.2009 10.0684 19.9254C10.4439 19.5432 10.4111 19.0654 9.98531 18.7417C9.53537 18.3995 9.08413 18.0586 8.6273 17.7254C8.39479 17.5558 8.27811 17.3462 8.28543 17.0522C8.29705 16.6015 8.27725 16.15 8.29232 15.6997C8.29835 15.5185 8.23204 15.4307 8.07617 15.3623C7.84065 15.2589 7.61848 15.1259 7.38296 15.0226C7.03807 14.8715 6.88135 14.6197 6.90589 14.244C6.91837 14.0515 6.89728 13.857 6.91019 13.6646C6.9201 13.5174 6.86972 13.4476 6.72849 13.4033C6.27855 13.2621 5.83291 13.1067 5.38469 12.9595C4.97953 12.8265 4.83571 12.6332 4.8327 12.2002C4.83055 11.9148 4.83227 11.6294 4.83227 11.3014C4.73927 11.3423 4.67727 11.3664 4.61785 11.3957C4.11193 11.6466 3.60687 11.8993 3.10052 12.1494C2.71603 12.3392 2.49041 12.3044 2.19159 12.0065C1.54746 11.3647 0.902472 10.7242 0.26523 10.0759C0.158019 9.96704 0.0874054 9.82198 3.04335e-09 9.69327C3.00368e-09 9.59298 2.964e-09 9.49269 2.92433e-09 9.39239C0.120129 9.23571 0.226479 9.06525 0.3634 8.92493C0.873623 8.40237 1.39031 7.88626 1.91345 7.37661C2.03228 7.26082 2.07491 7.14374 2.07103 6.98232C2.06156 6.55317 2.06587 6.12315 2.06845 5.694C2.07663 4.44398 3.2917 3.70878 4.39783 4.28385C4.97866 4.58559 5.51085 4.26836 5.52419 3.61192C5.52635 3.50474 5.52204 3.3967 5.52979 3.28995C5.55046 3.02092 5.68953 2.8255 5.94055 2.73855C6.65013 2.49362 7.36143 2.25473 8.07746 2.02874C8.409 1.92414 8.73279 2.11354 8.85421 2.46349C9.02084 2.94258 9.18015 3.42468 9.33386 3.90807C9.37261 4.02946 9.42773 4.07724 9.55948 4.07336C9.90308 4.06389 10.2471 4.07767 10.5903 4.06519C10.6781 4.06174 10.7832 4.01482 10.8473 3.95327C11.1935 3.62139 11.5276 3.27704 11.8686 2.93957C12.2454 2.56723 12.6708 2.61114 12.9687 3.05407C13.3437 3.61236 13.7106 4.17624 14.0912 4.73023C14.1592 4.82923 14.2647 4.92091 14.3741 4.97084C16.4865 5.9372 18.6023 6.89666 20.7172 7.85828C21.5693 8.24568 22.0287 8.93268 21.9986 9.7841C21.9801 10.3097 21.7639 10.7492 21.3924 11.1176C20.9553 11.5511 20.5248 11.9919 20.0826 12.4197C19.9689 12.5299 19.9293 12.6414 19.931 12.7955C19.9379 13.4971 19.9267 14.1988 19.9375 14.9C19.9422 15.1995 19.8471 15.4337 19.6326 15.6455C18.796 16.4694 17.9646 17.2984 17.1422 18.1365C16.9231 18.3599 16.685 18.4727 16.3711 18.4929C15.4221 18.5532 14.6393 19.2268 14.4606 20.154C14.3978 20.4803 14.4068 20.8233 14.4103 21.1587C14.4133 21.4372 14.3186 21.6515 14.1218 21.8444C13.5341 22.4207 12.9584 23.01 12.3702 23.5859C12.2148 23.7383 12.0314 23.8619 11.8609 23.9983C11.7463 24 11.6318 24 11.5173 24ZM11.7261 22.4121C12.0706 22.0669 12.4124 21.6989 12.7827 21.3627C13.0273 21.1406 13.1242 20.9073 13.1259 20.5681C13.1341 18.8721 14.3552 17.4801 16.0309 17.2282C16.192 17.2041 16.3056 17.1456 16.4159 17.0345C17.1009 16.3428 17.7885 15.6532 18.4826 14.9705C18.6057 14.8496 18.6518 14.7282 18.6496 14.5578C18.6406 13.8419 18.6509 13.1261 18.6432 12.4103C18.6402 12.1559 18.725 11.957 18.9054 11.7801C19.4212 11.2734 19.9302 10.7599 20.4408 10.2477C20.8787 9.80863 20.7857 9.30846 20.2173 9.04976C18.2651 8.16175 16.3237 7.25006 14.3547 6.40079C13.6404 6.09259 13.0647 5.70002 12.71 4.99839C12.5963 4.7737 12.4305 4.57526 12.2759 4.3467C12.0077 4.61917 11.7601 4.86754 11.5168 5.11978C11.3593 5.28335 11.1745 5.36556 10.9438 5.36384C10.285 5.35825 9.62622 5.36341 8.96745 5.35954C8.62859 5.35782 8.41675 5.20587 8.30524 4.88519C8.19286 4.56106 8.08995 4.23392 7.98145 3.9085C7.93279 3.76258 7.8794 3.61795 7.82601 3.46729C7.51127 3.57189 7.21805 3.66315 6.93086 3.77033C6.8736 3.79185 6.80987 3.86976 6.79954 3.93046C6.54938 5.38795 5.14357 6.10765 3.83077 5.44563C3.541 5.29928 3.36059 5.40947 3.35887 5.73962C3.35585 6.2695 3.34767 6.79938 3.36188 7.3284C3.36963 7.62326 3.27189 7.84795 3.06134 8.05155C2.55715 8.53882 2.0663 9.039 1.5522 9.55166C1.94703 9.94466 2.3354 10.3239 2.71387 10.7121C2.81075 10.8116 2.8861 10.8228 3.00795 10.7608C3.696 10.41 4.38749 10.0665 5.07856 9.72255C5.67145 9.42726 6.12182 9.70877 6.12355 10.3751C6.12484 10.8116 6.12613 11.2485 6.1201 11.685C6.11838 11.8025 6.15196 11.8606 6.27252 11.8985C6.75002 12.0478 7.22408 12.2075 7.69727 12.3698C8.03871 12.4869 8.19027 12.6999 8.19716 13.0619C8.2019 13.3052 8.20707 13.5492 8.19501 13.792C8.18769 13.934 8.2329 14.0132 8.36336 14.0722C8.6174 14.1867 8.86024 14.3253 9.11427 14.4402C9.43935 14.587 9.5879 14.8289 9.58144 15.1858C9.5724 15.6722 9.57197 16.1594 9.58532 16.6458C9.5879 16.7414 9.64861 16.8641 9.7231 16.9239C10.0688 17.2016 10.4318 17.4577 10.7827 17.7289C11.8027 18.5174 11.9009 19.8875 11.004 20.8139C10.8551 20.9675 10.6919 21.1074 10.5438 21.2456C10.9472 21.6438 11.3274 22.0187 11.7261 22.4121Z" fill="#4B4B4B"/>
<path d="M14.2709 2.58543L14.2709 2.58543C14.9329 1.46309 16.1101 0.777041 17.4166 0.750842L14.2709 2.58543ZM14.2709 2.58543C13.5944 3.73214 13.5757 5.11266 14.2215 6.27386L16.7459 10.8127L16.7465 10.8138M14.2709 2.58543L16.7465 10.8138M16.7465 10.8138L16.7521 10.8235L16.7465 10.8138ZM18.2542 10.8127L18.2535 10.8138L18.248 10.8235L18.2542 10.8127ZM18.2542 10.8127L20.7785 6.27386L20.7785 6.27386M18.2542 10.8127L20.7785 6.27386M20.7785 6.27386C21.4243 5.11266 21.4056 3.73214 20.7291 2.58543C20.0671 1.46309 18.8899 0.777041 17.5834 0.750842L20.7785 6.27386ZM17.5833 0.750841C17.5279 0.74972 17.4721 0.74972 17.4167 0.750841L17.5833 0.750841ZM17.5 5.28126C16.8445 5.28126 16.3184 4.75816 16.3184 4.12501C16.3184 3.49185 16.8445 2.96876 17.5 2.96876C18.1555 2.96876 18.6816 3.49185 18.6816 4.12501C18.6816 4.75816 18.1555 5.28126 17.5 5.28126Z" fill="#CCCCCC" stroke="white" stroke-width="0.5"/>
</g>
</g>
<defs>
<clipPath id="clip0">
<rect width="24" height="24" fill="white"/>
</clipPath>
<clipPath id="clip1">
<rect width="24" height="24" fill="white"/>
</clipPath>
</defs>
</svg>
