<svg width="127" height="34" viewBox="0 0 127 34" fill="none" xmlns="http://www.w3.org/2000/svg">
<path d="M0 21.9438V15.6826H2.40717C2.91244 15.6826 3.36746 15.7644 3.77224 15.928C4.1799 16.0888 4.51148 16.3127 4.76698 16.5998C5.02535 16.884 5.222 17.2142 5.35693 17.5902C5.49473 17.9634 5.56363 18.3682 5.56363 18.8046C5.56363 19.752 5.27511 20.5127 4.69808 21.0869C4.12392 21.6582 3.36028 21.9438 2.40717 21.9438H0ZM2.40717 17.1811H1.71818V20.4453H2.40717C2.84641 20.4453 3.1909 20.2931 3.44066 19.9888C3.6933 19.6845 3.81961 19.2898 3.81961 18.8046C3.81961 18.3137 3.6933 17.9204 3.44066 17.6247C3.18803 17.329 2.84354 17.1811 2.40717 17.1811Z" fill="#363636"/>
<path d="M8.16492 21.9438V15.6826H9.8831V21.9438H8.16492Z" fill="#363636"/>
<path d="M12.816 21.9438V15.6826H15.6925C15.9882 15.6826 16.2696 15.7457 16.5365 15.8721C16.8035 15.9984 17.0275 16.1634 17.2083 16.3673C17.3892 16.5711 17.5327 16.8036 17.6389 17.0649C17.7452 17.3232 17.7983 17.5859 17.7983 17.8529C17.7983 18.2146 17.7179 18.5534 17.5571 18.8692C17.3992 19.185 17.1796 19.4419 16.8983 19.64L18.2203 21.9438H16.3342L15.2318 20.0232H14.5342V21.9438H12.816ZM14.5342 18.5204H15.6193C15.7313 18.5204 15.8318 18.4601 15.9208 18.3395C16.0098 18.2161 16.0543 18.0539 16.0543 17.8529C16.0543 17.652 16.004 17.4898 15.9035 17.3663C15.8031 17.2429 15.694 17.1811 15.5763 17.1811H14.5342V18.5204Z" fill="#363636"/>
<path d="M25.0804 20.4453V21.9438H20.6192V15.6826H25.0029V17.1811H22.3374V18.0639H24.6153V19.4548H22.3374V20.4453H25.0804Z" fill="#363636"/>
<path d="M27.7334 21.9438V15.6826H29.4516V21.9438H27.7334Z" fill="#363636"/>
<path d="M37.2591 17.1811H35.4634V21.9438H33.7409V17.1811H31.9323V15.6826H37.2591V17.1811Z" fill="#363636"/>
<path d="M39.292 18.8046C39.292 18.3941 39.3723 17.9979 39.5331 17.6161C39.6939 17.2314 39.9135 16.8941 40.192 16.6041C40.4704 16.3142 40.8092 16.0831 41.2082 15.9108C41.6101 15.7357 42.0379 15.6481 42.4915 15.6481C42.9508 15.6481 43.3814 15.74 43.7833 15.9237C44.1852 16.1046 44.5197 16.3457 44.7867 16.6472C45.0565 16.9457 45.2675 17.2859 45.4197 17.6677C45.5747 18.0496 45.6522 18.44 45.6522 18.839C45.6522 19.2467 45.5718 19.6414 45.4111 20.0232C45.2532 20.4051 45.035 20.7424 44.7565 21.0352C44.4809 21.3252 44.1422 21.5577 43.7403 21.7328C43.3384 21.9079 42.9106 21.9955 42.457 21.9955C41.9977 21.9955 41.5671 21.9051 41.1652 21.7242C40.7661 21.5433 40.4317 21.3036 40.1618 21.0051C39.892 20.7065 39.6795 20.3663 39.5245 19.9845C39.3695 19.5998 39.292 19.2065 39.292 18.8046ZM42.4742 20.4711C42.7125 20.4711 42.925 20.4237 43.1116 20.329C43.301 20.2314 43.4518 20.1022 43.5637 19.9414C43.6757 19.7807 43.7604 19.6041 43.8178 19.4118C43.8752 19.2194 43.9039 19.017 43.9039 18.8046C43.9039 18.5118 43.8522 18.2448 43.7489 18.0036C43.6484 17.7625 43.4862 17.5644 43.2623 17.4094C43.0412 17.2515 42.7757 17.1725 42.4656 17.1725C42.2274 17.1725 42.0149 17.2199 41.8283 17.3146C41.6417 17.4094 41.4924 17.5357 41.3805 17.6936C41.2685 17.8515 41.1838 18.0266 41.1264 18.2189C41.069 18.4113 41.0403 18.6122 41.0403 18.8218C41.0403 19.0371 41.069 19.2424 41.1264 19.4376C41.1867 19.6299 41.2742 19.8051 41.3891 19.963C41.5039 20.118 41.6546 20.2414 41.8412 20.3333C42.0278 20.4252 42.2388 20.4711 42.4742 20.4711Z" fill="#363636"/>
<path d="M51.9741 17.728C51.9483 17.7137 51.9138 17.6936 51.8707 17.6677C51.8277 17.6419 51.7401 17.596 51.6081 17.5299C51.476 17.4639 51.3468 17.4065 51.2205 17.3577C51.0942 17.306 50.9463 17.2601 50.777 17.2199C50.6105 17.1768 50.4569 17.1553 50.3162 17.1553C49.9803 17.1553 49.8124 17.2587 49.8124 17.4654C49.8124 17.5113 49.8196 17.5529 49.8339 17.5902C49.8511 17.6276 49.8798 17.662 49.92 17.6936C49.9602 17.7252 49.999 17.7524 50.0363 17.7754C50.0765 17.7984 50.1368 17.8242 50.2172 17.8529C50.2975 17.8816 50.3664 17.9046 50.4239 17.9218C50.4813 17.939 50.5688 17.9663 50.6865 18.0036C50.8042 18.0381 50.9004 18.0668 50.9751 18.0898C51.2277 18.1673 51.4416 18.2433 51.6167 18.318C51.7947 18.3926 51.9669 18.4845 52.1334 18.5936C52.2999 18.6998 52.4334 18.8175 52.5339 18.9467C52.6344 19.0759 52.7133 19.2323 52.7707 19.4161C52.831 19.5969 52.8612 19.8022 52.8612 20.0319C52.8612 20.3218 52.8152 20.583 52.7234 20.8156C52.6315 21.0481 52.5095 21.239 52.3573 21.3883C52.2081 21.5347 52.0286 21.6567 51.8191 21.7543C51.6095 21.8519 51.3942 21.9208 51.1731 21.961C50.955 22.0012 50.7239 22.0213 50.4798 22.0213C50.0291 22.0213 49.5569 21.9553 49.0631 21.8232C48.5693 21.6883 48.1344 21.5103 47.7583 21.2893L48.499 19.7821C48.5277 19.8022 48.5664 19.828 48.6152 19.8596C48.6669 19.8883 48.7703 19.9429 48.9253 20.0232C49.0832 20.1008 49.2382 20.1697 49.3904 20.2299C49.5425 20.2902 49.7219 20.3462 49.9286 20.3979C50.1382 20.4467 50.332 20.4711 50.51 20.4711C50.843 20.4711 51.0095 20.3792 51.0095 20.1955C51.0095 20.1266 50.988 20.0663 50.9449 20.0146C50.9018 19.9601 50.8301 19.9113 50.7296 19.8682C50.6291 19.8223 50.5315 19.785 50.4368 19.7563C50.3449 19.7247 50.2129 19.6845 50.0406 19.6357C49.8712 19.584 49.7306 19.5395 49.6186 19.5022C49.0559 19.3127 48.6497 19.0859 48.3999 18.8218C48.153 18.5548 48.0296 18.196 48.0296 17.7453C48.0296 17.4094 48.0928 17.1051 48.2191 16.8323C48.3483 16.5596 48.5205 16.3371 48.7358 16.1649C48.954 15.9926 49.2023 15.8606 49.4808 15.7687C49.7593 15.6768 50.055 15.6309 50.3679 15.6309C51.0368 15.6309 51.8191 15.8563 52.7148 16.307L51.9741 17.728Z" fill="#363636"/>
<path d="M64.8461 15.6826V21.9438H63.1279V19.4936H61.0264V21.9438H59.3083V15.6826H61.0264V17.9907H63.1279V15.6826H64.8461Z" fill="#363636"/>
<path d="M70.5091 21.9955C70.1186 21.9955 69.7641 21.9409 69.4454 21.8319C69.1296 21.7228 68.8627 21.5735 68.6445 21.384C68.4292 21.1945 68.2483 20.9677 68.1019 20.7036C67.9555 20.4395 67.8493 20.1582 67.7832 19.8596C67.7172 19.5582 67.6842 19.2381 67.6842 18.8993V15.6826H69.4067V18.8993C69.4067 19.1146 69.4268 19.3142 69.467 19.4979C69.51 19.6816 69.5732 19.8481 69.6564 19.9974C69.7426 20.1438 69.8574 20.2601 70.0009 20.3462C70.1473 20.4295 70.3167 20.4711 70.5091 20.4711C70.7043 20.4711 70.8751 20.428 71.0215 20.3419C71.1679 20.2558 71.2828 20.1381 71.366 19.9888C71.4521 19.8366 71.5153 19.6701 71.5555 19.4893C71.5985 19.3055 71.6201 19.1089 71.6201 18.8993V15.6826H73.3383V18.8993C73.3383 19.3443 73.2808 19.752 73.166 20.1223C73.0512 20.4926 72.8804 20.8185 72.6536 21.0998C72.4296 21.3811 72.1339 21.6008 71.7665 21.7586C71.4019 21.9165 70.9828 21.9955 70.5091 21.9955Z" fill="#363636"/>
<path d="M80.9175 21.9438V18.6453L79.8668 20.9663H78.9496L77.8989 18.6453V21.9438H76.1807V15.6826H78.0582L79.4061 18.628L80.7668 15.6826H82.6357V21.9438H80.9175Z" fill="#363636"/>
<path d="M87.0069 15.6826H88.9274L90.9212 21.9438H89.1772L88.7982 20.7165H87.1274L86.7571 21.9438H85.0045L87.0069 15.6826ZM88.5227 19.5711L87.9671 17.3663L87.3858 19.5711H88.5227Z" fill="#363636"/>
<path d="M95.0125 18.8649V21.9438H93.2943V15.6826H94.6335L97.1483 18.8649V15.6826H98.8665V21.9438H97.5014L95.0125 18.8649Z" fill="#363636"/>
<path d="M101.451 18.8046C101.451 18.3941 101.531 17.9979 101.692 17.6161C101.852 17.2314 102.072 16.8941 102.351 16.6041C102.629 16.3142 102.968 16.0831 103.367 15.9108C103.769 15.7357 104.197 15.6481 104.65 15.6481C105.109 15.6481 105.54 15.74 105.942 15.9237C106.344 16.1046 106.678 16.3457 106.945 16.6472C107.215 16.9457 107.426 17.2859 107.578 17.6677C107.733 18.0496 107.811 18.44 107.811 18.839C107.811 19.2467 107.73 19.6414 107.57 20.0232C107.412 20.4051 107.194 20.7424 106.915 21.0352C106.64 21.3252 106.301 21.5577 105.899 21.7328C105.497 21.9079 105.069 21.9955 104.616 21.9955C104.156 21.9955 103.726 21.9051 103.324 21.7242C102.925 21.5433 102.59 21.3036 102.32 21.0051C102.051 20.7065 101.838 20.3663 101.683 19.9845C101.528 19.5998 101.451 19.2065 101.451 18.8046ZM104.633 20.4711C104.871 20.4711 105.084 20.4237 105.27 20.329C105.46 20.2314 105.61 20.1022 105.722 19.9414C105.834 19.7807 105.919 19.6041 105.976 19.4118C106.034 19.2194 106.063 19.017 106.063 18.8046C106.063 18.5118 106.011 18.2448 105.908 18.0036C105.807 17.7625 105.645 17.5644 105.421 17.4094C105.2 17.2515 104.934 17.1725 104.624 17.1725C104.386 17.1725 104.174 17.2199 103.987 17.3146C103.8 17.4094 103.651 17.5357 103.539 17.6936C103.427 17.8515 103.342 18.0266 103.285 18.2189C103.228 18.4113 103.199 18.6122 103.199 18.8218C103.199 19.0371 103.228 19.2424 103.285 19.4376C103.345 19.6299 103.433 19.8051 103.548 19.963C103.663 20.118 103.813 20.2414 104 20.3333C104.186 20.4252 104.397 20.4711 104.633 20.4711Z" fill="#363636"/>
<path d="M114.133 17.728C114.107 17.7137 114.072 17.6936 114.029 17.6677C113.986 17.6419 113.899 17.596 113.767 17.5299C113.635 17.4639 113.505 17.4065 113.379 17.3577C113.253 17.306 113.105 17.2601 112.936 17.2199C112.769 17.1768 112.616 17.1553 112.475 17.1553C112.139 17.1553 111.971 17.2587 111.971 17.4654C111.971 17.5113 111.978 17.5529 111.993 17.5902C112.01 17.6276 112.038 17.662 112.079 17.6936C112.119 17.7252 112.158 17.7524 112.195 17.7754C112.235 17.7984 112.295 17.8242 112.376 17.8529C112.456 17.8816 112.525 17.9046 112.582 17.9218C112.64 17.939 112.727 17.9663 112.845 18.0036C112.963 18.0381 113.059 18.0668 113.134 18.0898C113.386 18.1673 113.6 18.2433 113.775 18.318C113.953 18.3926 114.126 18.4845 114.292 18.5936C114.459 18.6998 114.592 18.8175 114.693 18.9467C114.793 19.0759 114.872 19.2323 114.929 19.4161C114.99 19.5969 115.02 19.8022 115.02 20.0319C115.02 20.3218 114.974 20.583 114.882 20.8156C114.79 21.0481 114.668 21.239 114.516 21.3883C114.367 21.5347 114.187 21.6567 113.978 21.7543C113.768 21.8519 113.553 21.9208 113.332 21.961C113.114 22.0012 112.882 22.0213 112.638 22.0213C112.188 22.0213 111.716 21.9553 111.222 21.8232C110.728 21.6883 110.293 21.5103 109.917 21.2893L110.658 19.7821C110.686 19.8022 110.725 19.828 110.774 19.8596C110.826 19.8883 110.929 19.9429 111.084 20.0232C111.242 20.1008 111.397 20.1697 111.549 20.2299C111.701 20.2902 111.881 20.3462 112.087 20.3979C112.297 20.4467 112.491 20.4711 112.669 20.4711C113.002 20.4711 113.168 20.3792 113.168 20.1955C113.168 20.1266 113.147 20.0663 113.104 20.0146C113.06 19.9601 112.989 19.9113 112.888 19.8682C112.788 19.8223 112.69 19.785 112.595 19.7563C112.504 19.7247 112.371 19.6845 112.199 19.6357C112.03 19.584 111.889 19.5395 111.777 19.5022C111.215 19.3127 110.808 19.0859 110.559 18.8218C110.312 18.5548 110.188 18.196 110.188 17.7453C110.188 17.4094 110.251 17.1051 110.378 16.8323C110.507 16.5596 110.679 16.3371 110.894 16.1649C111.113 15.9926 111.361 15.8606 111.639 15.7687C111.918 15.6768 112.214 15.6309 112.527 15.6309C113.195 15.6309 113.978 15.8563 114.873 16.307L114.133 17.728Z" fill="#363636"/>
<path d="M125.928 20.4453V21.9438H121.467V15.6826H125.851V17.1811H123.185V18.0639H125.463V19.4548H123.185V20.4453H125.928Z" fill="#363636"/>
<path d="M44.6058 33.9438V27.6826H47.013C47.5183 27.6826 47.9733 27.7644 48.3781 27.928C48.7857 28.0888 49.1173 28.3127 49.3728 28.5998C49.6312 28.884 49.8278 29.2142 49.9628 29.5902C50.1006 29.9634 50.1695 30.3682 50.1695 30.8046C50.1695 31.752 49.8809 32.5127 49.3039 33.0869C48.7297 33.6582 47.9661 33.9438 47.013 33.9438H44.6058ZM47.013 29.1811H46.324V32.4453H47.013C47.4522 32.4453 47.7967 32.2931 48.0465 31.9888C48.2991 31.6845 48.4254 31.2898 48.4254 30.8046C48.4254 30.3137 48.2991 29.9204 48.0465 29.6247C47.7939 29.329 47.4494 29.1811 47.013 29.1811Z" fill="#363636"/>
<path d="M53.9593 27.6826H55.8798L57.8736 33.9438H56.1296L55.7506 32.7165H54.0798L53.7095 33.9438H51.9569L53.9593 27.6826ZM55.475 31.5711L54.9195 29.3663L54.3382 31.5711H55.475Z" fill="#363636"/>
<path d="M66.6676 27.6481C67.2561 27.6481 67.7757 27.7716 68.2264 28.0185C68.6772 28.2654 69.013 28.5969 69.2341 29.0132L67.9207 29.9476C67.8633 29.8012 67.7858 29.6764 67.6882 29.573C67.5906 29.4668 67.4815 29.3864 67.3609 29.3319C67.2403 29.2744 67.1197 29.2343 66.9992 29.2113C66.8815 29.1854 66.7595 29.1725 66.6331 29.1725C66.3977 29.1725 66.1867 29.2213 66.0001 29.3189C65.8135 29.4137 65.6642 29.5414 65.5523 29.7022C65.4432 29.8601 65.3599 30.0338 65.3025 30.2232C65.2451 30.4127 65.2164 30.6094 65.2164 30.8132C65.2164 31.2697 65.347 31.6601 65.6083 31.9845C65.8695 32.3089 66.2169 32.4711 66.6504 32.4711C66.8197 32.4711 66.9819 32.4481 67.137 32.4022C67.292 32.3534 67.4398 32.2701 67.5805 32.1524C67.724 32.0319 67.8288 31.8826 67.8949 31.7046L69.2987 32.54C69.181 32.8357 68.9743 33.0969 68.6786 33.3237C68.3858 33.5505 68.0599 33.7199 67.7011 33.8319C67.3422 33.9409 66.9805 33.9955 66.6159 33.9955C66.1681 33.9955 65.7446 33.9022 65.3456 33.7156C64.9494 33.529 64.615 33.285 64.3422 32.9835C64.0724 32.6792 63.8585 32.3333 63.7006 31.9457C63.5456 31.5553 63.4681 31.1606 63.4681 30.7615C63.4681 30.3768 63.5413 30.0008 63.6877 29.6333C63.837 29.263 64.0437 28.9299 64.3078 28.6343C64.5748 28.3386 64.9135 28.1003 65.3241 27.9194C65.7346 27.7386 66.1824 27.6481 66.6676 27.6481Z" fill="#363636"/>
<path d="M71.7622 33.9438V27.6826H73.4804V33.9438H71.7622Z" fill="#363636"/>
<path d="M76.4132 33.9438V27.6826H78.8204C79.3257 27.6826 79.7807 27.7644 80.1855 27.928C80.5931 28.0888 80.9247 28.3127 81.1802 28.5998C81.4386 28.884 81.6352 29.2142 81.7702 29.5902C81.908 29.9634 81.9769 30.3682 81.9769 30.8046C81.9769 31.752 81.6884 32.5127 81.1113 33.0869C80.5372 33.6582 79.7735 33.9438 78.8204 33.9438H76.4132ZM78.8204 29.1811H78.1314V32.4453H78.8204C79.2596 32.4453 79.6041 32.2931 79.8539 31.9888C80.1065 31.6845 80.2328 31.2898 80.2328 30.8046C80.2328 30.3137 80.1065 29.9204 79.8539 29.6247C79.6013 29.329 79.2568 29.1811 78.8204 29.1811Z" fill="#363636"/>
<path d="M85.7667 27.6826H87.6873L89.681 33.9438H87.937L87.5581 32.7165H85.8873L85.5169 33.9438H83.7643L85.7667 27.6826ZM87.2825 31.5711L86.727 29.3663L86.1456 31.5711H87.2825Z" fill="#363636"/>
<path d="M92.0541 33.9438V27.6826H94.4613C94.9665 27.6826 95.4215 27.7644 95.8263 27.928C96.234 28.0888 96.5656 28.3127 96.8211 28.5998C97.0794 28.884 97.2761 29.2142 97.411 29.5902C97.5488 29.9634 97.6177 30.3682 97.6177 30.8046C97.6177 31.752 97.3292 32.5127 96.7522 33.0869C96.178 33.6582 95.4144 33.9438 94.4613 33.9438H92.0541ZM94.4613 29.1811H93.7723V32.4453H94.4613C94.9005 32.4453 95.245 32.2931 95.4948 31.9888C95.7474 31.6845 95.8737 31.2898 95.8737 30.8046C95.8737 30.3137 95.7474 29.9204 95.4948 29.6247C95.2421 29.329 94.8976 29.1811 94.4613 29.1811Z" fill="#363636"/>
<path d="M101.408 27.6826H103.328L105.322 33.9438H103.578L103.199 32.7165H101.528L101.158 33.9438H99.4051L101.408 27.6826ZM102.923 31.5711L102.368 29.3663L101.786 31.5711H102.923Z" fill="#363636"/>
<path d="M109.413 30.8649V33.9438H107.695V27.6826H109.034L111.549 30.8649V27.6826H113.267V33.9438H111.902L109.413 30.8649Z" fill="#363636"/>
<path d="M116.196 33.9438V27.6826H117.914V33.9438H116.196Z" fill="#363636"/>
<path d="M122.294 27.6826H124.214L126.208 33.9438H124.464L124.085 32.7165H122.414L122.044 33.9438H120.291L122.294 27.6826ZM123.809 31.5711L123.254 29.3663L122.673 31.5711H123.809Z" fill="#363636"/>
<path d="M36.4053 9.00002V4.53878L34.5622 7.92347H33.9809L32.1292 4.53878V9.00002H31.1431V2.73879H32.2024L34.2737 6.56701L36.345 2.73879H37.4043V9.00002H36.4053Z" fill="#363636"/>
<path d="M40.7129 9.00002V2.73879H41.699V9.00002H40.7129Z" fill="#363636"/>
<path d="M45.998 4.57323V9.00002H45.0119V2.73879H45.8214L49.3698 7.26462V2.7474H50.3645V9.00002H49.4989L45.998 4.57323Z" fill="#363636"/>
<path d="M53.6687 9.00002V2.73879H54.6549V9.00002H53.6687Z" fill="#363636"/>
<path d="M61.6711 4.21151C61.5361 4.06223 61.3065 3.91869 60.9821 3.78089C60.6577 3.64309 60.3232 3.57419 59.9787 3.57419C59.5711 3.57419 59.2653 3.65027 59.0615 3.80242C58.8605 3.9517 58.7601 4.16414 58.7601 4.43974C58.7601 4.52586 58.7715 4.60338 58.7945 4.67227C58.8175 4.74117 58.8462 4.8029 58.8806 4.85744C58.9179 4.90912 58.9725 4.95936 59.0443 5.00816C59.116 5.05696 59.1864 5.09859 59.2553 5.13304C59.327 5.16749 59.4232 5.20481 59.5438 5.245C59.6672 5.28232 59.7821 5.31534 59.8883 5.34404C59.9945 5.36988 60.1337 5.40433 60.306 5.44739C60.5816 5.51342 60.817 5.57945 61.0122 5.64548C61.2074 5.70864 61.3955 5.79045 61.5763 5.89093C61.7572 5.98854 61.9022 6.09907 62.0112 6.22251C62.1203 6.34309 62.2065 6.49093 62.2696 6.66605C62.3356 6.84117 62.3687 7.04069 62.3687 7.26462C62.3687 7.51438 62.3285 7.73973 62.2481 7.94069C62.1706 8.14165 62.0629 8.31102 61.9251 8.44882C61.7873 8.58662 61.6208 8.70289 61.4256 8.79763C61.2304 8.88949 61.0208 8.95696 60.7969 9.00002C60.573 9.04021 60.3318 9.06031 60.0734 9.06031C59.5969 9.06031 59.1361 8.98854 58.6912 8.845C58.2462 8.69858 57.8457 8.48902 57.4897 8.21629L57.9419 7.36796C58.1227 7.55457 58.417 7.73543 58.8246 7.91055C59.2352 8.0828 59.6572 8.16892 60.0907 8.16892C60.4811 8.16892 60.7811 8.10002 60.9907 7.96222C61.2031 7.82442 61.3093 7.62634 61.3093 7.36796C61.3093 7.26462 61.2935 7.17131 61.262 7.08806C61.2304 7.00481 61.1758 6.93017 61.0983 6.86414C61.0208 6.79524 60.9404 6.73639 60.8572 6.68758C60.7768 6.63878 60.6605 6.58854 60.5084 6.53687C60.3591 6.48519 60.2213 6.44213 60.095 6.40768C59.9715 6.37323 59.8036 6.32873 59.5912 6.27419C59.261 6.18806 58.9883 6.1005 58.773 6.01151C58.5577 5.92251 58.3668 5.81342 58.2002 5.68424C58.0366 5.55505 57.9175 5.4029 57.8428 5.22778C57.7682 5.04979 57.7309 4.84022 57.7309 4.59907C57.7309 4.29763 57.7883 4.02634 57.9031 3.7852C58.0208 3.54118 58.1816 3.34022 58.3854 3.18233C58.5892 3.02443 58.829 2.90386 59.1045 2.8206C59.3801 2.73735 59.6801 2.69572 60.0045 2.69572C60.7739 2.69572 61.4787 2.93113 62.1189 3.40194L61.6711 4.21151Z" fill="#363636"/>
<path d="M69.8499 3.61295H67.77V9.00002H66.771V3.61295H64.6825V2.73879H69.8499V3.61295Z" fill="#363636"/>
<path d="M75.1264 2.09285L74.4891 1.89907L74.9929 0.930176H75.9188L75.1264 2.09285ZM76.879 8.12586V9.00002H72.5858V2.73879H76.8015V3.61295H73.5719V5.39141H76.3666V6.2139H73.5719V8.12586H76.879Z" fill="#363636"/>
<path d="M79.7957 9.00002V2.73879H82.5216C82.7943 2.73879 83.0527 2.79764 83.2967 2.91534C83.5436 3.03304 83.7503 3.18807 83.9168 3.38041C84.0833 3.57276 84.2153 3.79094 84.313 4.03496C84.4106 4.27897 84.4594 4.52586 84.4594 4.77562C84.4594 5.2005 84.3474 5.58519 84.1235 5.92969C83.8996 6.27132 83.6039 6.50098 83.2364 6.61868L84.7091 9.00002H83.5981L82.2374 6.82107H80.7819V9.00002H79.7957ZM80.7819 5.94691H82.513C82.7857 5.94691 83.011 5.83352 83.189 5.60672C83.367 5.37706 83.456 5.10003 83.456 4.77562C83.456 4.45696 83.3555 4.18424 83.1546 3.95744C82.9536 3.72778 82.7211 3.61295 82.457 3.61295H80.7819V5.94691Z" fill="#363636"/>
<path d="M87.5225 9.00002V2.73879H88.5086V9.00002H87.5225Z" fill="#363636"/>
<path d="M91.4253 5.8694C91.4253 5.45601 91.5013 5.05696 91.6535 4.67227C91.8085 4.28472 92.0181 3.94596 92.2822 3.65601C92.5463 3.36606 92.8664 3.13352 93.2425 2.9584C93.6186 2.78328 94.0176 2.69572 94.4396 2.69572C94.8731 2.69572 95.2793 2.78759 95.6583 2.97132C96.0372 3.15505 96.353 3.39764 96.6056 3.69907C96.8611 3.99763 97.0621 4.33783 97.2085 4.71964C97.3549 5.09859 97.4281 5.48471 97.4281 5.87801C97.4281 6.29141 97.3506 6.69045 97.1956 7.07514C97.0434 7.45983 96.8367 7.79715 96.5755 8.0871C96.3142 8.37705 95.9956 8.60959 95.6195 8.78471C95.2434 8.95696 94.8444 9.04308 94.4224 9.04308C94.0722 9.04308 93.7391 8.98566 93.4233 8.87083C93.1076 8.75313 92.8291 8.59236 92.5879 8.38854C92.3497 8.18471 92.1415 7.9493 91.9635 7.68232C91.7884 7.41533 91.6549 7.12682 91.5631 6.81677C91.4712 6.50385 91.4253 6.18806 91.4253 5.8694ZM94.431 8.15169C94.7353 8.15169 95.0152 8.08567 95.2707 7.95361C95.5262 7.82155 95.7358 7.64787 95.8994 7.43256C96.063 7.21438 96.1894 6.97036 96.2784 6.7005C96.3702 6.43064 96.4162 6.15361 96.4162 5.8694C96.4162 5.57371 96.3674 5.2895 96.2697 5.01677C96.175 4.74117 96.043 4.49859 95.8736 4.28902C95.7071 4.07658 95.4975 3.90864 95.2449 3.7852C94.9951 3.65888 94.7238 3.59572 94.431 3.59572C94.1267 3.59572 93.8453 3.66175 93.587 3.79381C93.3315 3.92299 93.1205 4.09524 92.954 4.31055C92.7875 4.52586 92.6583 4.76845 92.5664 5.0383C92.4745 5.30816 92.4286 5.58519 92.4286 5.8694C92.4286 6.26557 92.5076 6.63591 92.6655 6.9804C92.8262 7.3249 93.0616 7.60624 93.3717 7.82442C93.6817 8.0426 94.0348 8.15169 94.431 8.15169Z" fill="#363636"/>
<path d="M104.424 9.00002V2.73879H106.646C107.137 2.73879 107.578 2.8206 107.968 2.98424C108.361 3.145 108.683 3.36893 108.933 3.65601C109.183 3.94022 109.372 4.27036 109.501 4.64644C109.633 5.01964 109.699 5.42443 109.699 5.86079C109.699 6.80816 109.421 7.56892 108.864 8.14308C108.31 8.71437 107.571 9.00002 106.646 9.00002H104.424ZM106.646 3.61295H105.41V8.12586H106.646C107.077 8.12586 107.447 8.02681 107.757 7.82873C108.07 7.62777 108.304 7.35792 108.459 7.01916C108.614 6.68041 108.692 6.29428 108.692 5.86079C108.692 5.19189 108.509 4.65074 108.145 4.23735C107.783 3.82108 107.283 3.61295 106.646 3.61295Z" fill="#363636"/>
<path d="M112.237 5.8694C112.237 5.45601 112.313 5.05696 112.465 4.67227C112.62 4.28472 112.83 3.94596 113.094 3.65601C113.358 3.36606 113.678 3.13352 114.054 2.9584C114.43 2.78328 114.829 2.69572 115.251 2.69572C115.685 2.69572 116.091 2.78759 116.47 2.97132C116.849 3.15505 117.165 3.39764 117.417 3.69907C117.673 3.99763 117.874 4.33783 118.02 4.71964C118.167 5.09859 118.24 5.48471 118.24 5.87801C118.24 6.29141 118.162 6.69045 118.007 7.07514C117.855 7.45983 117.648 7.79715 117.387 8.0871C117.126 8.37705 116.807 8.60959 116.431 8.78471C116.055 8.95696 115.656 9.04308 115.234 9.04308C114.884 9.04308 114.551 8.98566 114.235 8.87083C113.919 8.75313 113.641 8.59236 113.4 8.38854C113.161 8.18471 112.953 7.9493 112.775 7.68232C112.6 7.41533 112.467 7.12682 112.375 6.81677C112.283 6.50385 112.237 6.18806 112.237 5.8694ZM115.243 8.15169C115.547 8.15169 115.827 8.08567 116.082 7.95361C116.338 7.82155 116.548 7.64787 116.711 7.43256C116.875 7.21438 117.001 6.97036 117.09 6.7005C117.182 6.43064 117.228 6.15361 117.228 5.8694C117.228 5.57371 117.179 5.2895 117.082 5.01677C116.987 4.74117 116.855 4.49859 116.685 4.28902C116.519 4.07658 116.309 3.90864 116.057 3.7852C115.807 3.65888 115.536 3.59572 115.243 3.59572C114.938 3.59572 114.657 3.66175 114.399 3.79381C114.143 3.92299 113.932 4.09524 113.766 4.31055C113.599 4.52586 113.47 4.76845 113.378 5.0383C113.286 5.30816 113.24 5.58519 113.24 5.8694C113.24 6.26557 113.319 6.63591 113.477 6.9804C113.638 7.3249 113.873 7.60624 114.183 7.82442C114.493 8.0426 114.847 8.15169 115.243 8.15169Z" fill="#363636"/>
<path d="M124.856 4.21151C124.721 4.06223 124.491 3.91869 124.167 3.78089C123.842 3.64309 123.508 3.57419 123.163 3.57419C122.756 3.57419 122.45 3.65027 122.246 3.80242C122.045 3.9517 121.945 4.16414 121.945 4.43974C121.945 4.52586 121.956 4.60338 121.979 4.67227C122.002 4.74117 122.031 4.8029 122.065 4.85744C122.102 4.90912 122.157 4.95936 122.229 5.00816C122.301 5.05696 122.371 5.09859 122.44 5.13304C122.512 5.16749 122.608 5.20481 122.728 5.245C122.852 5.28232 122.967 5.31534 123.073 5.34404C123.179 5.36988 123.318 5.40433 123.491 5.44739C123.766 5.51342 124.002 5.57945 124.197 5.64548C124.392 5.70864 124.58 5.79045 124.761 5.89093C124.942 5.98854 125.087 6.09907 125.196 6.22251C125.305 6.34309 125.391 6.49093 125.454 6.66605C125.52 6.84117 125.553 7.04069 125.553 7.26462C125.553 7.51438 125.513 7.73973 125.433 7.94069C125.355 8.14165 125.247 8.31102 125.11 8.44882C124.972 8.58662 124.805 8.70289 124.61 8.79763C124.415 8.88949 124.205 8.95696 123.981 9.00002C123.758 9.04021 123.516 9.06031 123.258 9.06031C122.781 9.06031 122.321 8.98854 121.876 8.845C121.431 8.69858 121.03 8.48902 120.674 8.21629L121.126 7.36796C121.307 7.55457 121.602 7.73543 122.009 7.91055C122.42 8.0828 122.842 8.16892 123.275 8.16892C123.666 8.16892 123.966 8.10002 124.175 7.96222C124.388 7.82442 124.494 7.62634 124.494 7.36796C124.494 7.26462 124.478 7.17131 124.447 7.08806C124.415 7.00481 124.36 6.93017 124.283 6.86414C124.205 6.79524 124.125 6.73639 124.042 6.68758C123.961 6.63878 123.845 6.58854 123.693 6.53687C123.544 6.48519 123.406 6.44213 123.28 6.40768C123.156 6.37323 122.988 6.32873 122.776 6.27419C122.446 6.18806 122.173 6.1005 121.958 6.01151C121.742 5.92251 121.551 5.81342 121.385 5.68424C121.221 5.55505 121.102 5.4029 121.027 5.22778C120.953 5.04979 120.915 4.84022 120.915 4.59907C120.915 4.29763 120.973 4.02634 121.088 3.7852C121.205 3.54118 121.366 3.34022 121.57 3.18233C121.774 3.02443 122.013 2.90386 122.289 2.8206C122.565 2.73735 122.865 2.69572 123.189 2.69572C123.958 2.69572 124.663 2.93113 125.303 3.40194L124.856 4.21151Z" fill="#363636"/>
</svg>
