<svg width="119" height="24" viewBox="0 0 119 24" fill="none" xmlns="http://www.w3.org/2000/svg">
<path d="M3.43205 18.6108H6.00717V21.9438H4.58612V21.4228C4.14401 21.7988 3.63014 21.9869 3.04449 21.9869C2.63397 21.9869 2.24497 21.9137 1.87751 21.7673C1.51292 21.618 1.18995 21.4098 0.908611 21.1429C0.630143 20.873 0.40909 20.5328 0.245454 20.1223C0.0818181 19.7118 0 19.2582 0 18.7615C0 18.328 0.0832535 17.9189 0.24976 17.5343C0.416267 17.1496 0.641626 16.8194 0.925836 16.5438C1.21005 16.2654 1.55024 16.0457 1.94641 15.885C2.34545 15.7213 2.76746 15.6395 3.21244 15.6395C3.77798 15.6395 4.28899 15.7615 4.74545 16.0055C5.20191 16.2496 5.5421 16.5826 5.76602 17.0046L4.49138 17.9821C4.37081 17.7352 4.18564 17.5371 3.93588 17.3878C3.68612 17.2386 3.42344 17.1639 3.14784 17.1639C2.74019 17.1639 2.4043 17.3189 2.14019 17.629C1.87894 17.939 1.74832 18.3366 1.74832 18.8218C1.74832 19.3127 1.88038 19.7089 2.14449 20.0103C2.41148 20.3118 2.76028 20.4625 3.1909 20.4625C3.68181 20.4625 4.12392 20.2572 4.51722 19.8467H3.43205V18.6108Z" fill="#363636"/>
<path d="M13.1687 20.4453V21.9438H8.70751V15.6826H13.0912V17.1811H10.4257V18.0639H12.7037V19.4548H10.4257V20.4453H13.1687Z" fill="#363636"/>
<path d="M19.6155 17.728C19.5897 17.7137 19.5552 17.6936 19.5121 17.6677C19.4691 17.6419 19.3815 17.596 19.2495 17.5299C19.1174 17.4639 18.9882 17.4065 18.8619 17.3577C18.7356 17.306 18.5877 17.2601 18.4184 17.2199C18.2519 17.1768 18.0983 17.1553 17.9576 17.1553C17.6217 17.1553 17.4538 17.2587 17.4538 17.4654C17.4538 17.5113 17.4609 17.5529 17.4753 17.5902C17.4925 17.6276 17.5212 17.662 17.5614 17.6936C17.6016 17.7252 17.6404 17.7524 17.6777 17.7754C17.7179 17.7984 17.7782 17.8242 17.8586 17.8529C17.9389 17.8816 18.0078 17.9046 18.0653 17.9218C18.1227 17.939 18.2102 17.9663 18.3279 18.0036C18.4456 18.0381 18.5418 18.0668 18.6164 18.0898C18.8691 18.1673 19.083 18.2433 19.2581 18.318C19.4361 18.3926 19.6083 18.4845 19.7748 18.5936C19.9413 18.6998 20.0748 18.8175 20.1753 18.9467C20.2758 19.0759 20.3547 19.2323 20.4121 19.4161C20.4724 19.5969 20.5026 19.8022 20.5026 20.0319C20.5026 20.3218 20.4566 20.5831 20.3648 20.8156C20.2729 21.0481 20.1509 21.239 19.9987 21.3883C19.8495 21.5347 19.67 21.6567 19.4605 21.7543C19.2509 21.8519 19.0356 21.9208 18.8145 21.961C18.5964 22.0012 18.3653 22.0213 18.1212 22.0213C17.6705 22.0213 17.1983 21.9553 16.7045 21.8232C16.2107 21.6883 15.7758 21.5103 15.3997 21.2893L16.1404 19.7821C16.1691 19.8022 16.2078 19.828 16.2566 19.8596C16.3083 19.8883 16.4117 19.9429 16.5667 20.0232C16.7246 20.1008 16.8796 20.1697 17.0318 20.2299C17.1839 20.2902 17.3633 20.3462 17.57 20.3979C17.7796 20.4467 17.9734 20.4711 18.1514 20.4711C18.4844 20.4711 18.6509 20.3792 18.6509 20.1955C18.6509 20.1266 18.6294 20.0663 18.5863 20.0146C18.5432 19.9601 18.4715 19.9113 18.371 19.8682C18.2705 19.8223 18.1729 19.785 18.0782 19.7563C17.9863 19.7247 17.8542 19.6845 17.682 19.6357C17.5126 19.584 17.372 19.5395 17.26 19.5022C16.6973 19.3127 16.2911 19.0859 16.0413 18.8218C15.7944 18.5548 15.671 18.196 15.671 17.7453C15.671 17.4094 15.7342 17.1051 15.8605 16.8323C15.9897 16.5596 16.1619 16.3371 16.3772 16.1649C16.5954 15.9926 16.8437 15.8606 17.1222 15.7687C17.4007 15.6768 17.6964 15.6309 18.0093 15.6309C18.6782 15.6309 19.4605 15.8563 20.3562 16.307L19.6155 17.728Z" fill="#363636"/>
<path d="M27.9914 17.1811H26.1957V21.9438H24.4732V17.1811H22.6646V15.6826H27.9914V17.1811Z" fill="#363636"/>
<path d="M31.7296 14.8515C31.6549 14.8515 31.5903 14.8658 31.5358 14.8945C31.4812 14.9233 31.441 14.9563 31.4152 14.9936C31.3894 15.0309 31.3693 15.074 31.3549 15.1228C31.3406 15.1687 31.332 15.2032 31.3291 15.2261C31.3262 15.2462 31.3248 15.2634 31.3248 15.2778H30.4334C30.4334 15.2089 30.4463 15.1213 30.4721 15.0151C30.5009 14.906 30.5468 14.7855 30.6099 14.6534C30.676 14.5213 30.7535 14.3993 30.8425 14.2874C30.9343 14.1725 31.052 14.0764 31.1956 13.9988C31.3391 13.9213 31.4942 13.8826 31.6607 13.8826C31.7898 13.8826 31.9133 13.907 32.031 13.9558C32.1487 14.0017 32.2449 14.0534 32.3195 14.1108C32.3942 14.1654 32.4788 14.217 32.5736 14.2658C32.6683 14.3118 32.7602 14.3347 32.8492 14.3347C32.9209 14.3347 32.9855 14.3204 33.043 14.2917C33.1004 14.2601 33.1434 14.2242 33.1721 14.184C33.2008 14.1438 33.2238 14.1008 33.241 14.0548C33.2611 14.006 33.2741 13.9687 33.2798 13.9429C33.2855 13.9142 33.2884 13.8941 33.2884 13.8826H34.1712C34.1712 13.9314 34.1568 14.006 34.1281 14.1065C34.0994 14.207 34.052 14.3261 33.986 14.4639C33.92 14.5988 33.841 14.7266 33.7492 14.8472C33.6573 14.9649 33.5367 15.0668 33.3875 15.1529C33.2382 15.2362 33.0788 15.2778 32.9095 15.2778C32.7889 15.2778 32.6697 15.2563 32.552 15.2132C32.4372 15.1673 32.341 15.1185 32.2635 15.0668C32.1889 15.0122 32.1028 14.9634 32.0052 14.9204C31.9075 14.8744 31.8157 14.8515 31.7296 14.8515ZM31.342 15.6826H33.2626L35.2563 21.9438H33.5123L33.1334 20.7165H31.4626L31.0922 21.9438H29.3396L31.342 15.6826ZM32.8578 19.5711L32.3023 17.3663L31.7209 19.5711H32.8578Z" fill="#363636"/>
<path d="M37.0265 18.8046C37.0265 18.3941 37.1069 17.9979 37.2677 17.6161C37.4285 17.2314 37.6481 16.8941 37.9265 16.6041C38.205 16.3142 38.5438 16.0831 38.9428 15.9108C39.3447 15.7357 39.7725 15.6481 40.2261 15.6481C40.6854 15.6481 41.116 15.74 41.5179 15.9237C41.9198 16.1046 42.2543 16.3457 42.5213 16.6472C42.7911 16.9457 43.0021 17.2859 43.1543 17.6677C43.3093 18.0496 43.3868 18.44 43.3868 18.839C43.3868 19.2467 43.3064 19.6414 43.1457 20.0232C42.9878 20.4051 42.7696 20.7424 42.4911 21.0352C42.2155 21.3252 41.8768 21.5577 41.4749 21.7328C41.0729 21.9079 40.6452 21.9955 40.1916 21.9955C39.7323 21.9955 39.3017 21.9051 38.8997 21.7242C38.5007 21.5433 38.1663 21.3036 37.8964 21.0051C37.6265 20.7065 37.4141 20.3663 37.2591 19.9845C37.1041 19.5998 37.0265 19.2065 37.0265 18.8046ZM40.2088 20.4711C40.4471 20.4711 40.6596 20.4237 40.8462 20.329C41.0356 20.2314 41.1863 20.1022 41.2983 19.9414C41.4103 19.7807 41.495 19.6041 41.5524 19.4118C41.6098 19.2194 41.6385 19.017 41.6385 18.8046C41.6385 18.5118 41.5868 18.2448 41.4835 18.0036C41.383 17.7625 41.2208 17.5644 40.9969 17.4094C40.7758 17.2515 40.5103 17.1725 40.2002 17.1725C39.9619 17.1725 39.7495 17.2199 39.5629 17.3146C39.3763 17.4094 39.227 17.5357 39.1151 17.6936C39.0031 17.8515 38.9184 18.0266 38.861 18.2189C38.8036 18.4113 38.7749 18.6122 38.7749 18.8218C38.7749 19.0371 38.8036 19.2424 38.861 19.4376C38.9213 19.6299 39.0088 19.8051 39.1237 19.963C39.2385 20.118 39.3892 20.2414 39.5758 20.3333C39.7624 20.4252 39.9734 20.4711 40.2088 20.4711Z" fill="#363636"/>
<path d="M54.2607 20.4453V21.9438H49.7995V15.6826H54.1832V17.1811H51.5176V18.0639H53.7956V19.4548H51.5176V20.4453H54.2607Z" fill="#363636"/>
<path d="M60.7465 21.9438V15.6826H62.4647V21.9438H60.7465Z" fill="#363636"/>
<path d="M67.1158 18.8649V21.9438H65.3976V15.6826H66.7368L69.2517 18.8649V15.6826H70.9698V21.9438H69.6048L67.1158 18.8649Z" fill="#363636"/>
<path d="M73.5539 18.8046C73.5539 18.3941 73.6343 17.9979 73.7951 17.6161C73.9558 17.2314 74.1754 16.8941 74.4539 16.6041C74.7324 16.3142 75.0711 16.0831 75.4702 15.9108C75.8721 15.7357 76.2998 15.6481 76.7534 15.6481C77.2128 15.6481 77.6434 15.74 78.0453 15.9237C78.4472 16.1046 78.7817 16.3457 79.0486 16.6472C79.3185 16.9457 79.5295 17.2859 79.6816 17.6677C79.8367 18.0496 79.9142 18.44 79.9142 18.839C79.9142 19.2467 79.8338 19.6414 79.673 20.0232C79.5151 20.4051 79.297 20.7424 79.0185 21.0352C78.7429 21.3252 78.4041 21.5577 78.0022 21.7328C77.6003 21.9079 77.1726 21.9955 76.719 21.9955C76.2596 21.9955 75.829 21.9051 75.4271 21.7242C75.0281 21.5433 74.6936 21.3036 74.4238 21.0051C74.1539 20.7065 73.9415 20.3663 73.7864 19.9845C73.6314 19.5998 73.5539 19.2065 73.5539 18.8046ZM76.7362 20.4711C76.9745 20.4711 77.1869 20.4237 77.3735 20.329C77.563 20.2314 77.7137 20.1022 77.8257 19.9414C77.9376 19.7807 78.0223 19.6041 78.0797 19.4118C78.1372 19.2194 78.1659 19.017 78.1659 18.8046C78.1659 18.5118 78.1142 18.2448 78.0108 18.0036C77.9104 17.7625 77.7482 17.5644 77.5242 17.4094C77.3032 17.2515 77.0376 17.1725 76.7276 17.1725C76.4893 17.1725 76.2769 17.2199 76.0903 17.3146C75.9037 17.4094 75.7544 17.5357 75.6424 17.6936C75.5305 17.8515 75.4458 18.0266 75.3884 18.2189C75.3309 18.4113 75.3022 18.6122 75.3022 18.8218C75.3022 19.0371 75.3309 19.2424 75.3884 19.4376C75.4486 19.6299 75.5362 19.8051 75.651 19.963C75.7659 20.118 75.9166 20.2414 76.1032 20.3333C76.2898 20.4252 76.5008 20.4711 76.7362 20.4711Z" fill="#363636"/>
<path d="M83.4542 15.6826L84.6772 19.9586L85.8872 15.6826H87.6959L85.5341 21.9438H83.8246L81.637 15.6826H83.4542Z" fill="#363636"/>
<path d="M90.9517 15.6826H92.8723L94.866 21.9438H93.122L92.7431 20.7165H91.0723L90.7019 21.9438H88.9493L90.9517 15.6826ZM92.4675 19.5711L91.912 17.3663L91.3306 19.5711H92.4675Z" fill="#363636"/>
<path d="M102.467 20.54C102.315 20.9132 102.036 21.2247 101.631 21.4744C101.227 21.7242 100.779 21.8864 100.288 21.961C100.575 22.2481 100.719 22.5567 100.719 22.8869C100.719 23.1682 100.627 23.4051 100.443 23.5974C100.262 23.7897 99.9979 23.8859 99.6506 23.8859C99.3003 23.8859 98.9372 23.7854 98.5611 23.5845L98.9487 22.7275C99.0779 22.8395 99.2185 22.8955 99.3707 22.8955C99.4798 22.8955 99.5688 22.8639 99.6377 22.8007C99.7066 22.7405 99.741 22.6572 99.741 22.551C99.741 22.3701 99.6291 22.1763 99.4051 21.9697C99.0032 21.9208 98.6271 21.796 98.2769 21.595C97.9295 21.3912 97.6367 21.1429 97.3984 20.85C97.163 20.5543 96.9764 20.2256 96.8386 19.8639C96.7037 19.4993 96.6362 19.1319 96.6362 18.7615C96.6362 18.3768 96.7094 18.0008 96.8559 17.6333C97.0051 17.263 97.2118 16.9299 97.4759 16.6343C97.7429 16.3386 98.0817 16.1003 98.4922 15.9194C98.9027 15.7386 99.3506 15.6481 99.8357 15.6481C100.424 15.6481 100.944 15.7716 101.395 16.0185C101.845 16.2654 102.181 16.5969 102.402 17.0132L101.089 17.9476C101.031 17.8012 100.954 17.6764 100.856 17.573C100.759 17.4668 100.65 17.3864 100.529 17.3319C100.408 17.2744 100.288 17.2343 100.167 17.2113C100.05 17.1854 99.9276 17.1725 99.8013 17.1725C99.5659 17.1725 99.3549 17.2213 99.1683 17.3189C98.9817 17.4137 98.8324 17.5414 98.7204 17.7022C98.6113 17.8601 98.5281 18.0338 98.4707 18.2232C98.4133 18.4127 98.3846 18.6094 98.3846 18.8132C98.3846 19.2697 98.5152 19.6601 98.7764 19.9845C99.0377 20.3089 99.385 20.4711 99.8185 20.4711C99.9879 20.4711 100.15 20.4481 100.305 20.4022C100.46 20.3534 100.608 20.2701 100.749 20.1524C100.892 20.0319 100.997 19.8826 101.063 19.7046L102.467 20.54Z" fill="#363636"/>
<path d="M106.661 14.8515C106.587 14.8515 106.522 14.8658 106.468 14.8945C106.413 14.9233 106.373 14.9563 106.347 14.9936C106.321 15.0309 106.301 15.074 106.287 15.1228C106.272 15.1687 106.264 15.2032 106.261 15.2261C106.258 15.2462 106.257 15.2634 106.257 15.2778H105.365C105.365 15.2089 105.378 15.1213 105.404 15.0151C105.433 14.906 105.479 14.7855 105.542 14.6534C105.608 14.5213 105.685 14.3993 105.774 14.2874C105.866 14.1725 105.984 14.0764 106.127 13.9988C106.271 13.9213 106.426 13.8826 106.593 13.8826C106.722 13.8826 106.845 13.907 106.963 13.9558C107.081 14.0017 107.177 14.0534 107.251 14.1108C107.326 14.1654 107.411 14.217 107.505 14.2658C107.6 14.3118 107.692 14.3347 107.781 14.3347C107.853 14.3347 107.917 14.3204 107.975 14.2917C108.032 14.2601 108.075 14.2242 108.104 14.184C108.133 14.1438 108.156 14.1008 108.173 14.0548C108.193 14.006 108.206 13.9687 108.212 13.9429C108.217 13.9142 108.22 13.8941 108.22 13.8826H109.103C109.103 13.9314 109.089 14.006 109.06 14.1065C109.031 14.207 108.984 14.3261 108.918 14.4639C108.852 14.5988 108.773 14.7266 108.681 14.8472C108.589 14.9649 108.469 15.0668 108.319 15.1529C108.17 15.2362 108.011 15.2778 107.841 15.2778C107.721 15.2778 107.602 15.2563 107.484 15.2132C107.369 15.1673 107.273 15.1185 107.195 15.0668C107.121 15.0122 107.035 14.9634 106.937 14.9204C106.839 14.8744 106.748 14.8515 106.661 14.8515ZM106.274 15.6826H108.194L110.188 21.9438H108.444L108.065 20.7165H106.394L106.024 21.9438H104.272L106.274 15.6826ZM107.79 19.5711L107.234 17.3663L106.653 19.5711H107.79Z" fill="#363636"/>
<path d="M111.958 18.8046C111.958 18.3941 112.039 17.9979 112.2 17.6161C112.36 17.2314 112.58 16.8941 112.858 16.6041C113.137 16.3142 113.476 16.0831 113.875 15.9108C114.277 15.7357 114.704 15.6481 115.158 15.6481C115.617 15.6481 116.048 15.74 116.45 15.9237C116.852 16.1046 117.186 16.3457 117.453 16.6472C117.723 16.9457 117.934 17.2859 118.086 17.6677C118.241 18.0496 118.319 18.44 118.319 18.839C118.319 19.2467 118.238 19.6414 118.078 20.0232C117.92 20.4051 117.701 20.7424 117.423 21.0352C117.147 21.3252 116.809 21.5577 116.407 21.7328C116.005 21.9079 115.577 21.9955 115.124 21.9955C114.664 21.9955 114.234 21.9051 113.832 21.7242C113.433 21.5433 113.098 21.3036 112.828 21.0051C112.558 20.7065 112.346 20.3663 112.191 19.9845C112.036 19.5998 111.958 19.2065 111.958 18.8046ZM115.141 20.4711C115.379 20.4711 115.591 20.4237 115.778 20.329C115.968 20.2314 116.118 20.1022 116.23 19.9414C116.342 19.7807 116.427 19.6041 116.484 19.4118C116.542 19.2194 116.57 19.017 116.57 18.8046C116.57 18.5118 116.519 18.2448 116.415 18.0036C116.315 17.7625 116.153 17.5644 115.929 17.4094C115.708 17.2515 115.442 17.1725 115.132 17.1725C114.894 17.1725 114.681 17.2199 114.495 17.3146C114.308 17.4094 114.159 17.5357 114.047 17.6936C113.935 17.8515 113.85 18.0266 113.793 18.2189C113.735 18.4113 113.707 18.6122 113.707 18.8218C113.707 19.0371 113.735 19.2424 113.793 19.4376C113.853 19.6299 113.941 19.8051 114.056 19.963C114.17 20.118 114.321 20.2414 114.508 20.3333C114.694 20.4252 114.905 20.4711 115.141 20.4711Z" fill="#363636"/>
<path d="M36.9145 9.00002V4.53878L35.0714 7.92347H34.4901L32.6384 4.53878V9.00002H31.6523V2.73879H32.7116L34.7829 6.56701L36.8542 2.73879H37.9135V9.00002H36.9145Z" fill="#363636"/>
<path d="M41.222 9.00002V2.73879H42.2082V9.00002H41.222Z" fill="#363636"/>
<path d="M46.5071 4.57323V9.00002H45.521V2.73879H46.3306L49.8789 7.26462V2.7474H50.8736V9.00002H50.0081L46.5071 4.57323Z" fill="#363636"/>
<path d="M54.1779 9.00002V2.73879H55.164V9.00002H54.1779Z" fill="#363636"/>
<path d="M62.1802 4.21151C62.0453 4.06223 61.8156 3.91869 61.4912 3.78089C61.1668 3.64309 60.8324 3.57419 60.4879 3.57419C60.0802 3.57419 59.7745 3.65027 59.5707 3.80242C59.3697 3.9517 59.2692 4.16414 59.2692 4.43974C59.2692 4.52586 59.2807 4.60338 59.3037 4.67227C59.3266 4.74117 59.3553 4.8029 59.3898 4.85744C59.4271 4.90912 59.4817 4.95936 59.5534 5.00816C59.6252 5.05696 59.6955 5.09859 59.7644 5.13304C59.8362 5.16749 59.9324 5.20481 60.0529 5.245C60.1764 5.28232 60.2912 5.31534 60.3974 5.34404C60.5037 5.36988 60.6429 5.40433 60.8151 5.44739C61.0907 5.51342 61.3262 5.57945 61.5214 5.64548C61.7166 5.70864 61.9046 5.79045 62.0855 5.89093C62.2663 5.98854 62.4113 6.09907 62.5204 6.22251C62.6295 6.34309 62.7156 6.49093 62.7788 6.66605C62.8448 6.84117 62.8778 7.04069 62.8778 7.26462C62.8778 7.51438 62.8376 7.73973 62.7572 7.94069C62.6797 8.14165 62.5721 8.31102 62.4343 8.44882C62.2965 8.58662 62.13 8.70289 61.9348 8.79763C61.7395 8.88949 61.53 8.95696 61.3061 9.00002C61.0821 9.04021 60.841 9.06031 60.5826 9.06031C60.1061 9.06031 59.6453 8.98854 59.2003 8.845C58.7553 8.69858 58.3549 8.48901 57.9989 8.21629L58.451 7.36796C58.6319 7.55457 58.9262 7.73543 59.3338 7.91055C59.7443 8.0828 60.1663 8.16892 60.5998 8.16892C60.9903 8.16892 61.2903 8.10002 61.4998 7.96222C61.7123 7.82442 61.8185 7.62634 61.8185 7.36796C61.8185 7.26462 61.8027 7.17131 61.7711 7.08806C61.7395 7.00481 61.685 6.93017 61.6075 6.86414C61.53 6.79524 61.4496 6.73639 61.3663 6.68758C61.286 6.63878 61.1697 6.58854 61.0175 6.53687C60.8683 6.48519 60.7305 6.44213 60.6041 6.40768C60.4807 6.37323 60.3128 6.32873 60.1003 6.27419C59.7702 6.18806 59.4974 6.1005 59.2821 6.01151C59.0668 5.92251 58.8759 5.81342 58.7094 5.68424C58.5458 5.55505 58.4266 5.4029 58.352 5.22778C58.2774 5.04979 58.24 4.84022 58.24 4.59907C58.24 4.29763 58.2974 4.02634 58.4123 3.7852C58.53 3.54118 58.6907 3.34022 58.8946 3.18233C59.0984 3.02443 59.3381 2.90386 59.6137 2.8206C59.8893 2.73735 60.1893 2.69572 60.5137 2.69572C61.2831 2.69572 61.9879 2.93113 62.6281 3.40194L62.1802 4.21151Z" fill="#363636"/>
<path d="M70.3591 3.61295H68.2792V9.00002H67.2802V3.61295H65.1916V2.73879H70.3591V3.61295Z" fill="#363636"/>
<path d="M75.6356 2.09285L74.9983 1.89907L75.5021 0.930176H76.4279L75.6356 2.09285ZM77.3882 8.12586V9.00002H73.0949V2.73879H77.3107V3.61295H74.081V5.39141H76.8758V6.2139H74.081V8.12586H77.3882Z" fill="#363636"/>
<path d="M80.3049 9.00002V2.73879H83.0307C83.3035 2.73879 83.5618 2.79764 83.8058 2.91534C84.0527 3.03304 84.2594 3.18807 84.4259 3.38041C84.5924 3.57276 84.7245 3.79094 84.8221 4.03496C84.9197 4.27897 84.9685 4.52586 84.9685 4.77562C84.9685 5.2005 84.8566 5.58519 84.6326 5.92969C84.4087 6.27132 84.113 6.50098 83.7456 6.61868L85.2183 9.00002H84.1073L82.7465 6.82107H81.291V9.00002H80.3049ZM81.291 5.94691H83.0221C83.2948 5.94691 83.5202 5.83352 83.6982 5.60672C83.8762 5.37706 83.9652 5.10003 83.9652 4.77562C83.9652 4.45696 83.8647 4.18424 83.6637 3.95744C83.4628 3.72778 83.2302 3.61295 82.9661 3.61295H81.291V5.94691Z" fill="#363636"/>
<path d="M88.0316 9.00002V2.73879H89.0177V9.00002H88.0316Z" fill="#363636"/>
<path d="M91.9344 5.8694C91.9344 5.45601 92.0105 5.05696 92.1627 4.67227C92.3177 4.28472 92.5272 3.94596 92.7914 3.65601C93.0555 3.36606 93.3756 3.13352 93.7516 2.9584C94.1277 2.78328 94.5268 2.69572 94.9488 2.69572C95.3823 2.69572 95.7885 2.78759 96.1674 2.97132C96.5464 3.15505 96.8622 3.39764 97.1148 3.69907C97.3703 3.99763 97.5713 4.33783 97.7177 4.71964C97.8641 5.09859 97.9373 5.48471 97.9373 5.87801C97.9373 6.29141 97.8598 6.69045 97.7048 7.07514C97.5526 7.45983 97.3459 7.79715 97.0847 8.0871C96.8234 8.37705 96.5048 8.60959 96.1287 8.78471C95.7526 8.95696 95.3536 9.04308 94.9315 9.04308C94.5813 9.04308 94.2483 8.98566 93.9325 8.87083C93.6167 8.75313 93.3382 8.59236 93.0971 8.38854C92.8588 8.18471 92.6507 7.9493 92.4727 7.68232C92.2976 7.41533 92.1641 7.12682 92.0722 6.81677C91.9804 6.50385 91.9344 6.18806 91.9344 5.8694ZM94.9402 8.15169C95.2445 8.15169 95.5244 8.08567 95.7799 7.95361C96.0354 7.82155 96.2449 7.64787 96.4086 7.43256C96.5722 7.21438 96.6985 6.97036 96.7875 6.7005C96.8794 6.43064 96.9253 6.15361 96.9253 5.8694C96.9253 5.57371 96.8765 5.2895 96.7789 5.01677C96.6842 4.74117 96.5521 4.49859 96.3827 4.28902C96.2162 4.07658 96.0067 3.90864 95.754 3.7852C95.5043 3.65888 95.233 3.59572 94.9402 3.59572C94.6359 3.59572 94.3545 3.66175 94.0961 3.79381C93.8406 3.92299 93.6296 4.09524 93.4631 4.31055C93.2966 4.52586 93.1674 4.76845 93.0756 5.0383C92.9837 5.30816 92.9378 5.58519 92.9378 5.8694C92.9378 6.26557 93.0167 6.63591 93.1746 6.9804C93.3354 7.3249 93.5708 7.60624 93.8808 7.82442C94.1909 8.0426 94.544 8.15169 94.9402 8.15169Z" fill="#363636"/>
<path d="M104.933 9.00002V2.73879H107.155C107.646 2.73879 108.087 2.8206 108.477 2.98424C108.871 3.145 109.192 3.36893 109.442 3.65601C109.692 3.94022 109.881 4.27036 110.01 4.64644C110.142 5.01964 110.208 5.42443 110.208 5.86079C110.208 6.80816 109.93 7.56892 109.373 8.14308C108.819 8.71437 108.08 9.00002 107.155 9.00002H104.933ZM107.155 3.61295H105.919V8.12586H107.155C107.586 8.12586 107.956 8.02681 108.266 7.82873C108.579 7.62777 108.813 7.35792 108.968 7.01916C109.123 6.68041 109.201 6.29428 109.201 5.86079C109.201 5.19189 109.018 4.65074 108.654 4.23735C108.292 3.82108 107.793 3.61295 107.155 3.61295Z" fill="#363636"/>
<path d="M114.718 2.73879H115.653L118.086 9.00002H117.044L116.385 7.29906H113.969L113.315 9.00002H112.264L114.718 2.73879ZM116.191 6.56701L115.183 3.82395L114.146 6.56701H116.191Z" fill="#363636"/>
</svg>
