<svg width="139" height="36" viewBox="0 0 139 36" fill="none" xmlns="http://www.w3.org/2000/svg">
<path d="M4.71711 18.6108H7.29222V21.9438H5.87117V21.4227C5.42907 21.7988 4.91519 21.9868 4.32955 21.9868C3.91902 21.9868 3.53003 21.9136 3.16257 21.7672C2.79797 21.6179 2.47501 21.4098 2.19367 21.1428C1.9152 20.873 1.69415 20.5328 1.53051 20.1223C1.36687 19.7117 1.28506 19.2581 1.28506 18.7615C1.28506 18.328 1.36831 17.9189 1.53482 17.5342C1.70132 17.1495 1.92668 16.8194 2.21089 16.5438C2.4951 16.2653 2.83529 16.0457 3.23146 15.8849C3.63051 15.7213 4.05252 15.6395 4.49749 15.6395C5.06304 15.6395 5.57404 15.7615 6.0305 16.0055C6.48696 16.2495 6.82715 16.5825 7.05108 17.0046L5.77644 17.9821C5.65586 17.7352 5.4707 17.5371 5.22094 17.3878C4.97117 17.2385 4.7085 17.1639 4.4329 17.1639C4.02524 17.1639 3.68936 17.3189 3.42524 17.629C3.164 17.939 3.03338 18.3366 3.03338 18.8218C3.03338 19.3127 3.16544 19.7089 3.42955 20.0103C3.69654 20.3117 4.04534 20.4624 4.47596 20.4624C4.96687 20.4624 5.40897 20.2572 5.80227 19.8467H4.71711V18.6108Z" fill="#363636"/>
<path d="M14.4538 20.4452V21.9438H9.99257V15.6825H14.3763V17.1811H11.7107V18.0639H13.9887V19.4548H11.7107V20.4452H14.4538Z" fill="#363636"/>
<path d="M20.9005 17.728C20.8747 17.7136 20.8403 17.6936 20.7972 17.6677C20.7541 17.6419 20.6666 17.5959 20.5345 17.5299C20.4025 17.4639 20.2733 17.4065 20.147 17.3577C20.0206 17.306 19.8728 17.2601 19.7034 17.2199C19.5369 17.1768 19.3833 17.1553 19.2427 17.1553C18.9068 17.1553 18.7388 17.2586 18.7388 17.4653C18.7388 17.5113 18.746 17.5529 18.7604 17.5902C18.7776 17.6275 18.8063 17.662 18.8465 17.6936C18.8867 17.7251 18.9254 17.7524 18.9628 17.7754C19.0029 17.7983 19.0632 17.8242 19.1436 17.8529C19.224 17.8816 19.2929 17.9046 19.3503 17.9218C19.4077 17.939 19.4953 17.9663 19.613 18.0036C19.7307 18.038 19.8269 18.0668 19.9015 18.0897C20.1541 18.1672 20.368 18.2433 20.5431 18.318C20.7211 18.3926 20.8934 18.4845 21.0599 18.5935C21.2264 18.6998 21.3599 18.8175 21.4604 18.9467C21.5608 19.0758 21.6398 19.2323 21.6972 19.416C21.7575 19.5969 21.7876 19.8022 21.7876 20.0318C21.7876 20.3218 21.7417 20.583 21.6498 20.8156C21.558 21.0481 21.436 21.239 21.2838 21.3883C21.1345 21.5347 20.9551 21.6567 20.7455 21.7543C20.536 21.8519 20.3206 21.9208 20.0996 21.961C19.8814 22.0012 19.6503 22.0213 19.4063 22.0213C18.9556 22.0213 18.4833 21.9553 17.9895 21.8232C17.4958 21.6883 17.0608 21.5103 16.6848 21.2892L17.4254 19.7821C17.4541 19.8022 17.4929 19.828 17.5417 19.8596C17.5934 19.8883 17.6967 19.9428 17.8517 20.0232C18.0096 20.1007 18.1647 20.1696 18.3168 20.2299C18.469 20.2902 18.6484 20.3462 18.8551 20.3979C19.0647 20.4467 19.2584 20.4711 19.4364 20.4711C19.7694 20.4711 19.936 20.3792 19.936 20.1955C19.936 20.1266 19.9144 20.0663 19.8714 20.0146C19.8283 19.9601 19.7565 19.9113 19.6561 19.8682C19.5556 19.8223 19.458 19.7849 19.3632 19.7562C19.2714 19.7246 19.1393 19.6845 18.9671 19.6357C18.7977 19.584 18.657 19.5395 18.545 19.5022C17.9824 19.3127 17.5761 19.0859 17.3264 18.8218C17.0795 18.5548 16.9561 18.1959 16.9561 17.7452C16.9561 17.4093 17.0192 17.105 17.1455 16.8323C17.2747 16.5596 17.447 16.3371 17.6623 16.1648C17.8805 15.9926 18.1288 15.8605 18.4072 15.7687C18.6857 15.6768 18.9814 15.6309 19.2943 15.6309C19.9632 15.6309 20.7455 15.8562 21.6412 16.3069L20.9005 17.728Z" fill="#363636"/>
<path d="M29.2765 17.1811H27.4808V21.9438H25.7583V17.1811H23.9497V15.6825H29.2765V17.1811Z" fill="#363636"/>
<path d="M33.0146 14.8514C32.94 14.8514 32.8754 14.8658 32.8208 14.8945C32.7663 14.9232 32.7261 14.9562 32.7003 14.9936C32.6744 15.0309 32.6543 15.0739 32.64 15.1227C32.6256 15.1687 32.617 15.2031 32.6141 15.2261C32.6113 15.2462 32.6098 15.2634 32.6098 15.2778H31.7184C31.7184 15.2089 31.7314 15.1213 31.7572 15.0151C31.7859 14.906 31.8318 14.7854 31.895 14.6534C31.961 14.5213 32.0385 14.3993 32.1275 14.2873C32.2194 14.1725 32.3371 14.0763 32.4806 13.9988C32.6242 13.9213 32.7792 13.8826 32.9457 13.8826C33.0749 13.8826 33.1983 13.907 33.316 13.9558C33.4338 14.0017 33.5299 14.0534 33.6046 14.1108C33.6792 14.1653 33.7639 14.217 33.8586 14.2658C33.9534 14.3117 34.0452 14.3347 34.1342 14.3347C34.206 14.3347 34.2706 14.3204 34.328 14.2916C34.3854 14.2601 34.4285 14.2242 34.4572 14.184C34.4859 14.1438 34.5089 14.1007 34.5261 14.0548C34.5462 14.006 34.5591 13.9687 34.5648 13.9428C34.5706 13.9141 34.5735 13.894 34.5735 13.8826H35.4562C35.4562 13.9314 35.4419 14.006 35.4132 14.1065C35.3845 14.207 35.3371 14.3261 35.2711 14.4639C35.205 14.5988 35.1261 14.7266 35.0342 14.8471C34.9424 14.9648 34.8218 15.0668 34.6725 15.1529C34.5232 15.2361 34.3639 15.2778 34.1945 15.2778C34.0739 15.2778 33.9548 15.2562 33.8371 15.2132C33.7223 15.1672 33.6261 15.1184 33.5486 15.0668C33.4739 15.0122 33.3878 14.9634 33.2902 14.9203C33.1926 14.8744 33.1007 14.8514 33.0146 14.8514ZM32.6271 15.6825H34.5476L36.5414 21.9438H34.7974L34.4184 20.7165H32.7476L32.3773 21.9438H30.6247L32.6271 15.6825ZM34.1428 19.5711L33.5873 17.3663L33.006 19.5711H34.1428Z" fill="#363636"/>
<path d="M38.3116 18.8046C38.3116 18.394 38.392 17.9979 38.5527 17.616C38.7135 17.2314 38.9331 16.894 39.2116 16.6041C39.4901 16.3141 39.8288 16.083 40.2279 15.9108C40.6298 15.7357 41.0575 15.6481 41.5111 15.6481C41.9704 15.6481 42.4011 15.74 42.803 15.9237C43.2049 16.1046 43.5393 16.3457 43.8063 16.6471C44.0762 16.9457 44.2872 17.2859 44.4393 17.6677C44.5944 18.0495 44.6719 18.44 44.6719 18.839C44.6719 19.2467 44.5915 19.6414 44.4307 20.0232C44.2728 20.405 44.0547 20.7423 43.7762 21.0352C43.5006 21.3251 43.1618 21.5577 42.7599 21.7328C42.358 21.9079 41.9303 21.9955 41.4767 21.9955C41.0173 21.9955 40.5867 21.905 40.1848 21.7242C39.7858 21.5433 39.4513 21.3036 39.1815 21.005C38.9116 20.7065 38.6992 20.3663 38.5441 19.9845C38.3891 19.5998 38.3116 19.2065 38.3116 18.8046ZM41.4939 20.4711C41.7322 20.4711 41.9446 20.4237 42.1312 20.329C42.3207 20.2313 42.4714 20.1022 42.5834 19.9414C42.6953 19.7806 42.78 19.6041 42.8374 19.4117C42.8948 19.2194 42.9236 19.017 42.9236 18.8046C42.9236 18.5117 42.8719 18.2447 42.7685 18.0036C42.6681 17.7624 42.5059 17.5644 42.2819 17.4093C42.0609 17.2514 41.7953 17.1725 41.4853 17.1725C41.247 17.1725 41.0346 17.2199 40.848 17.3146C40.6614 17.4093 40.5121 17.5357 40.4001 17.6936C40.2882 17.8514 40.2035 18.0266 40.146 18.2189C40.0886 18.4113 40.0599 18.6122 40.0599 18.8218C40.0599 19.0371 40.0886 19.2424 40.146 19.4376C40.2063 19.6299 40.2939 19.805 40.4087 19.9629C40.5236 20.1179 40.6743 20.2414 40.8609 20.3333C41.0475 20.4251 41.2585 20.4711 41.4939 20.4711Z" fill="#363636"/>
<path d="M55.5458 20.4452V21.9438H51.0845V15.6825H55.4682V17.1811H52.8027V18.0639H55.0807V19.4548H52.8027V20.4452H55.5458Z" fill="#363636"/>
<path d="M62.0316 21.9438V15.6825H64.4388C64.944 15.6825 65.3991 15.7644 65.8038 15.928C66.2115 16.0888 66.5431 16.3127 66.7986 16.5998C67.0569 16.884 67.2536 17.2141 67.3885 17.5902C67.5263 17.9634 67.5952 18.3682 67.5952 18.8046C67.5952 19.7519 67.3067 20.5127 66.7297 21.0868C66.1555 21.6581 65.3919 21.9438 64.4388 21.9438H62.0316ZM64.4388 17.1811H63.7498V20.4452H64.4388C64.878 20.4452 65.2225 20.2931 65.4723 19.9888C65.7249 19.6845 65.8512 19.2897 65.8512 18.8046C65.8512 18.3136 65.7249 17.9203 65.4723 17.6247C65.2196 17.329 64.8751 17.1811 64.4388 17.1811Z" fill="#363636"/>
<path d="M71.385 15.6825H73.3056L75.2994 21.9438H73.5554L73.1764 20.7165H71.5056L71.1353 21.9438H69.3826L71.385 15.6825ZM72.9008 19.5711L72.3453 17.3663L71.764 19.5711H72.9008Z" fill="#363636"/>
<path d="M81.2383 21.9438V15.6825H82.9565V21.9438H81.2383Z" fill="#363636"/>
<path d="M87.6076 18.8648V21.9438H85.8894V15.6825H87.2286L89.7435 18.8648V15.6825H91.4616V21.9438H90.0966L87.6076 18.8648Z" fill="#363636"/>
<path d="M94.0457 18.8046C94.0457 18.394 94.1261 17.9979 94.2869 17.616C94.4476 17.2314 94.6672 16.894 94.9457 16.6041C95.2242 16.3141 95.5629 16.083 95.962 15.9108C96.3639 15.7357 96.7916 15.6481 97.2452 15.6481C97.7046 15.6481 98.1352 15.74 98.5371 15.9237C98.939 16.1046 99.2735 16.3457 99.5404 16.6471C99.8103 16.9457 100.021 17.2859 100.173 17.6677C100.328 18.0495 100.406 18.44 100.406 18.839C100.406 19.2467 100.326 19.6414 100.165 20.0232C100.007 20.405 99.7888 20.7423 99.5103 21.0352C99.2347 21.3251 98.8959 21.5577 98.494 21.7328C98.0921 21.9079 97.6644 21.9955 97.2108 21.9955C96.7514 21.9955 96.3208 21.905 95.9189 21.7242C95.5199 21.5433 95.1854 21.3036 94.9156 21.005C94.6457 20.7065 94.4333 20.3663 94.2782 19.9845C94.1232 19.5998 94.0457 19.2065 94.0457 18.8046ZM97.228 20.4711C97.4663 20.4711 97.6787 20.4237 97.8653 20.329C98.0548 20.2313 98.2055 20.1022 98.3175 19.9414C98.4294 19.7806 98.5141 19.6041 98.5715 19.4117C98.629 19.2194 98.6577 19.017 98.6577 18.8046C98.6577 18.5117 98.606 18.2447 98.5026 18.0036C98.4022 17.7624 98.24 17.5644 98.016 17.4093C97.795 17.2514 97.5294 17.1725 97.2194 17.1725C96.9811 17.1725 96.7687 17.2199 96.5821 17.3146C96.3955 17.4093 96.2462 17.5357 96.1342 17.6936C96.0223 17.8514 95.9376 18.0266 95.8802 18.2189C95.8227 18.4113 95.794 18.6122 95.794 18.8218C95.794 19.0371 95.8227 19.2424 95.8802 19.4376C95.9404 19.6299 96.028 19.805 96.1428 19.9629C96.2577 20.1179 96.4084 20.2414 96.595 20.3333C96.7816 20.4251 96.9926 20.4711 97.228 20.4711Z" fill="#363636"/>
<path d="M103.946 15.6825L105.169 19.9586L106.379 15.6825H108.188L106.026 21.9438H104.316L102.129 15.6825H103.946Z" fill="#363636"/>
<path d="M111.443 15.6825H113.364L115.358 21.9438H113.614L113.235 20.7165H111.564L111.194 21.9438H109.441L111.443 15.6825ZM112.959 19.5711L112.404 17.3663L111.822 19.5711H112.959Z" fill="#363636"/>
<path d="M122.959 20.54C122.806 20.9132 122.528 21.2246 122.123 21.4744C121.718 21.7242 121.271 21.8864 120.78 21.961C121.067 22.2481 121.21 22.5567 121.21 22.8868C121.21 23.1682 121.118 23.405 120.935 23.5974C120.754 23.7897 120.49 23.8859 120.142 23.8859C119.792 23.8859 119.429 23.7854 119.053 23.5844L119.44 22.7275C119.57 22.8395 119.71 22.8955 119.862 22.8955C119.972 22.8955 120.061 22.8639 120.129 22.8007C120.198 22.7404 120.233 22.6572 120.233 22.551C120.233 22.3701 120.121 22.1763 119.897 21.9696C119.495 21.9208 119.119 21.7959 118.769 21.595C118.421 21.3912 118.129 21.1428 117.89 20.85C117.655 20.5543 117.468 20.2256 117.33 19.8639C117.196 19.4993 117.128 19.1318 117.128 18.7615C117.128 18.3768 117.201 18.0007 117.348 17.6333C117.497 17.2629 117.704 16.9299 117.968 16.6342C118.235 16.3385 118.573 16.1003 118.984 15.9194C119.395 15.7385 119.842 15.6481 120.328 15.6481C120.916 15.6481 121.436 15.7715 121.886 16.0184C122.337 16.2653 122.673 16.5969 122.894 17.0132L121.581 17.9476C121.523 17.8012 121.446 17.6763 121.348 17.573C121.251 17.4668 121.141 17.3864 121.021 17.3318C120.9 17.2744 120.78 17.2342 120.659 17.2113C120.541 17.1854 120.419 17.1725 120.293 17.1725C120.058 17.1725 119.847 17.2213 119.66 17.3189C119.473 17.4136 119.324 17.5414 119.212 17.7022C119.103 17.8601 119.02 18.0337 118.962 18.2232C118.905 18.4127 118.876 18.6093 118.876 18.8132C118.876 19.2696 119.007 19.6601 119.268 19.9845C119.529 20.3089 119.877 20.4711 120.31 20.4711C120.48 20.4711 120.642 20.4481 120.797 20.4022C120.952 20.3534 121.1 20.2701 121.24 20.1524C121.384 20.0318 121.489 19.8825 121.555 19.7046L122.959 20.54Z" fill="#363636"/>
<path d="M127.153 14.8514C127.079 14.8514 127.014 14.8658 126.959 14.8945C126.905 14.9232 126.865 14.9562 126.839 14.9936C126.813 15.0309 126.793 15.0739 126.779 15.1227C126.764 15.1687 126.756 15.2031 126.753 15.2261C126.75 15.2462 126.748 15.2634 126.748 15.2778H125.857C125.857 15.2089 125.87 15.1213 125.896 15.0151C125.925 14.906 125.97 14.7854 126.034 14.6534C126.1 14.5213 126.177 14.3993 126.266 14.2873C126.358 14.1725 126.476 14.0763 126.619 13.9988C126.763 13.9213 126.918 13.8826 127.084 13.8826C127.214 13.8826 127.337 13.907 127.455 13.9558C127.572 14.0017 127.669 14.0534 127.743 14.1108C127.818 14.1653 127.903 14.217 127.997 14.2658C128.092 14.3117 128.184 14.3347 128.273 14.3347C128.345 14.3347 128.409 14.3204 128.467 14.2916C128.524 14.2601 128.567 14.2242 128.596 14.184C128.625 14.1438 128.648 14.1007 128.665 14.0548C128.685 14.006 128.698 13.9687 128.703 13.9428C128.709 13.9141 128.712 13.894 128.712 13.8826H129.595C129.595 13.9314 129.581 14.006 129.552 14.1065C129.523 14.207 129.476 14.3261 129.41 14.4639C129.344 14.5988 129.265 14.7266 129.173 14.8471C129.081 14.9648 128.96 15.0668 128.811 15.1529C128.662 15.2361 128.503 15.2778 128.333 15.2778C128.213 15.2778 128.093 15.2562 127.976 15.2132C127.861 15.1672 127.765 15.1184 127.687 15.0668C127.613 15.0122 127.526 14.9634 127.429 14.9203C127.331 14.8744 127.239 14.8514 127.153 14.8514ZM126.766 15.6825H128.686L130.68 21.9438H128.936L128.557 20.7165H126.886L126.516 21.9438H124.763L126.766 15.6825ZM128.281 19.5711L127.726 17.3663L127.145 19.5711H128.281Z" fill="#363636"/>
<path d="M132.45 18.8046C132.45 18.394 132.531 17.9979 132.691 17.616C132.852 17.2314 133.072 16.894 133.35 16.6041C133.629 16.3141 133.967 16.083 134.367 15.9108C134.768 15.7357 135.196 15.6481 135.65 15.6481C136.109 15.6481 136.54 15.74 136.942 15.9237C137.344 16.1046 137.678 16.3457 137.945 16.6471C138.215 16.9457 138.426 17.2859 138.578 17.6677C138.733 18.0495 138.811 18.44 138.811 18.839C138.811 19.2467 138.73 19.6414 138.569 20.0232C138.411 20.405 138.193 20.7423 137.915 21.0352C137.639 21.3251 137.3 21.5577 136.899 21.7328C136.497 21.9079 136.069 21.9955 135.615 21.9955C135.156 21.9955 134.725 21.905 134.323 21.7242C133.924 21.5433 133.59 21.3036 133.32 21.005C133.05 20.7065 132.838 20.3663 132.683 19.9845C132.528 19.5998 132.45 19.2065 132.45 18.8046ZM135.633 20.4711C135.871 20.4711 136.083 20.4237 136.27 20.329C136.459 20.2313 136.61 20.1022 136.722 19.9414C136.834 19.7806 136.919 19.6041 136.976 19.4117C137.033 19.2194 137.062 19.017 137.062 18.8046C137.062 18.5117 137.011 18.2447 136.907 18.0036C136.807 17.7624 136.644 17.5644 136.421 17.4093C136.2 17.2514 135.934 17.1725 135.624 17.1725C135.386 17.1725 135.173 17.2199 134.987 17.3146C134.8 17.4093 134.651 17.5357 134.539 17.6936C134.427 17.8514 134.342 18.0266 134.285 18.2189C134.227 18.4113 134.199 18.6122 134.199 18.8218C134.199 19.0371 134.227 19.2424 134.285 19.4376C134.345 19.6299 134.433 19.805 134.547 19.9629C134.662 20.1179 134.813 20.2414 135 20.3333C135.186 20.4251 135.397 20.4711 135.633 20.4711Z" fill="#363636"/>
<path d="M4.57501 32.4452V33.9438H0.11377V27.6825H4.49749V29.1811H1.83195V30.0639H4.10994V31.4548H1.83195V32.4452H4.57501Z" fill="#363636"/>
<path d="M11.9648 33.9438V30.6452L10.9141 32.9663H9.99687L8.94616 30.6452V33.9438H7.22798V27.6825H9.10549L10.4533 30.628L11.8141 27.6825H13.683V33.9438H11.9648Z" fill="#363636"/>
<path d="M24.2339 29.728C24.2081 29.7136 24.1736 29.6936 24.1306 29.6677C24.0875 29.6419 23.9999 29.5959 23.8679 29.5299C23.7358 29.4639 23.6066 29.4065 23.4803 29.3577C23.354 29.306 23.2062 29.2601 23.0368 29.2199C22.8703 29.1768 22.7167 29.1553 22.576 29.1553C22.2401 29.1553 22.0722 29.2586 22.0722 29.4653C22.0722 29.5113 22.0794 29.5529 22.0937 29.5902C22.1109 29.6275 22.1396 29.662 22.1798 29.6936C22.22 29.7251 22.2588 29.7524 22.2961 29.7754C22.3363 29.7983 22.3966 29.8242 22.477 29.8529C22.5573 29.8816 22.6263 29.9046 22.6837 29.9218C22.7411 29.939 22.8286 29.9663 22.9463 30.0036C23.064 30.038 23.1602 30.0668 23.2349 30.0897C23.4875 30.1672 23.7014 30.2433 23.8765 30.318C24.0545 30.3926 24.2267 30.4845 24.3932 30.5935C24.5597 30.6998 24.6932 30.8175 24.7937 30.9467C24.8942 31.0758 24.9731 31.2323 25.0306 31.416C25.0908 31.5969 25.121 31.8022 25.121 32.0318C25.121 32.3218 25.075 32.583 24.9832 32.8156C24.8913 33.0481 24.7693 33.239 24.6172 33.3883C24.4679 33.5347 24.2884 33.6567 24.0789 33.7543C23.8693 33.8519 23.654 33.9208 23.4329 33.961C23.2148 34.0012 22.9837 34.0213 22.7396 34.0213C22.2889 34.0213 21.8167 33.9553 21.3229 33.8232C20.8291 33.6883 20.3942 33.5103 20.0181 33.2892L20.7588 31.7821C20.7875 31.8022 20.8263 31.828 20.8751 31.8596C20.9267 31.8883 21.0301 31.9428 21.1851 32.0232C21.343 32.1007 21.498 32.1696 21.6502 32.2299C21.8023 32.2902 21.9818 32.3462 22.1884 32.3979C22.398 32.4467 22.5918 32.4711 22.7698 32.4711C23.1028 32.4711 23.2693 32.3792 23.2693 32.1955C23.2693 32.1266 23.2478 32.0663 23.2047 32.0146C23.1617 31.9601 23.0899 31.9113 22.9894 31.8682C22.8889 31.8223 22.7913 31.7849 22.6966 31.7562C22.6047 31.7246 22.4727 31.6845 22.3004 31.6357C22.131 31.584 21.9904 31.5395 21.8784 31.5022C21.3157 31.3127 20.9095 31.0859 20.6597 30.8218C20.4129 30.5548 20.2894 30.1959 20.2894 29.7452C20.2894 29.4093 20.3526 29.105 20.4789 28.8323C20.6081 28.5596 20.7803 28.3371 20.9956 28.1648C21.2138 27.9926 21.4621 27.8605 21.7406 27.7687C22.0191 27.6768 22.3148 27.6309 22.6277 27.6309C23.2966 27.6309 24.0789 27.8562 24.9746 28.3069L24.2339 29.728Z" fill="#363636"/>
<path d="M32.1964 32.4452V33.9438H27.7352V27.6825H32.1189V29.1811H29.4534V30.0639H31.7314V31.4548H29.4534V32.4452H32.1964Z" fill="#363636"/>
<path d="M34.8494 33.9438V27.6825H37.726C38.0216 27.6825 38.303 27.7457 38.57 27.872C38.837 27.9983 39.0609 28.1634 39.2417 28.3672C39.4226 28.5711 39.5661 28.8036 39.6724 29.0648C39.7786 29.3232 39.8317 29.5859 39.8317 29.8529C39.8317 30.2146 39.7513 30.5534 39.5905 30.8691C39.4327 31.1849 39.213 31.4419 38.9317 31.64L40.2537 33.9438H38.3676L37.2652 32.0232H36.5676V33.9438H34.8494ZM36.5676 30.5203H37.6528C37.7647 30.5203 37.8652 30.4601 37.9542 30.3395C38.0432 30.216 38.0877 30.0538 38.0877 29.8529C38.0877 29.6519 38.0374 29.4897 37.937 29.3663C37.8365 29.2428 37.7274 29.1811 37.6097 29.1811H36.5676V30.5203Z" fill="#363636"/>
<path d="M43.6129 27.6825L44.8359 31.9586L46.0459 27.6825H47.8545L45.6928 33.9438H43.9832L41.7957 27.6825H43.6129Z" fill="#363636"/>
<path d="M50.1802 33.9438V27.6825H51.8984V33.9438H50.1802Z" fill="#363636"/>
<path d="M60.3174 32.54C60.1652 32.9132 59.8868 33.2246 59.482 33.4744C59.0772 33.7242 58.6293 33.8864 58.1384 33.961C58.4255 34.2481 58.5691 34.5567 58.5691 34.8868C58.5691 35.1682 58.4772 35.405 58.2935 35.5974C58.1126 35.7897 57.8485 35.8859 57.5011 35.8859C57.1509 35.8859 56.7877 35.7854 56.4116 35.5844L56.7992 34.7275C56.9284 34.8395 57.0691 34.8955 57.2212 34.8955C57.3303 34.8955 57.4193 34.8639 57.4882 34.8007C57.5571 34.7404 57.5916 34.6572 57.5916 34.551C57.5916 34.3701 57.4796 34.1763 57.2557 33.9696C56.8538 33.9208 56.4777 33.7959 56.1274 33.595C55.7801 33.3912 55.4872 33.1428 55.249 32.85C55.0136 32.5543 54.827 32.2256 54.6892 31.8639C54.5542 31.4993 54.4868 31.1318 54.4868 30.7615C54.4868 30.3768 54.56 30.0007 54.7064 29.6333C54.8557 29.2629 55.0624 28.9299 55.3265 28.6342C55.5935 28.3385 55.9322 28.1003 56.3428 27.9194C56.7533 27.7385 57.2011 27.6481 57.6863 27.6481C58.2748 27.6481 58.7944 27.7715 59.2451 28.0184C59.6959 28.2653 60.0317 28.5969 60.2528 29.0132L58.9394 29.9476C58.882 29.8012 58.8045 29.6763 58.7069 29.573C58.6093 29.4668 58.5002 29.3864 58.3796 29.3318C58.259 29.2744 58.1384 29.2342 58.0179 29.2113C57.9002 29.1854 57.7782 29.1725 57.6518 29.1725C57.4164 29.1725 57.2054 29.2213 57.0188 29.3189C56.8322 29.4136 56.6829 29.5414 56.571 29.7022C56.4619 29.8601 56.3786 30.0337 56.3212 30.2232C56.2638 30.4127 56.2351 30.6093 56.2351 30.8132C56.2351 31.2696 56.3657 31.6601 56.627 31.9845C56.8882 32.3089 57.2356 32.4711 57.6691 32.4711C57.8384 32.4711 58.0006 32.4481 58.1557 32.4022C58.3107 32.3534 58.4585 32.2701 58.5992 32.1524C58.7427 32.0318 58.8475 31.8825 58.9136 31.7046L60.3174 32.54Z" fill="#363636"/>
<path d="M62.333 30.8046C62.333 30.394 62.4134 29.9979 62.5742 29.616C62.735 29.2314 62.9546 28.894 63.233 28.6041C63.5115 28.3141 63.8503 28.083 64.2493 27.9108C64.6512 27.7357 65.079 27.6481 65.5326 27.6481C65.9919 27.6481 66.4225 27.74 66.8244 27.9237C67.2263 28.1046 67.5608 28.3457 67.8278 28.6471C68.0976 28.9457 68.3086 29.2859 68.4608 29.6677C68.6158 30.0495 68.6933 30.44 68.6933 30.839C68.6933 31.2467 68.6129 31.6414 68.4522 32.0232C68.2943 32.405 68.0761 32.7423 67.7976 33.0352C67.522 33.3251 67.1833 33.5577 66.7814 33.7328C66.3794 33.9079 65.9517 33.9955 65.4981 33.9955C65.0388 33.9955 64.6082 33.905 64.2062 33.7242C63.8072 33.5433 63.4727 33.3036 63.2029 33.005C62.933 32.7065 62.7206 32.3663 62.5656 31.9845C62.4106 31.5998 62.333 31.2065 62.333 30.8046ZM65.5153 32.4711C65.7536 32.4711 65.966 32.4237 66.1526 32.329C66.3421 32.2313 66.4928 32.1022 66.6048 31.9414C66.7168 31.7806 66.8015 31.6041 66.8589 31.4117C66.9163 31.2194 66.945 31.017 66.945 30.8046C66.945 30.5117 66.8933 30.2447 66.79 30.0036C66.6895 29.7624 66.5273 29.5644 66.3034 29.4093C66.0823 29.2514 65.8168 29.1725 65.5067 29.1725C65.2684 29.1725 65.056 29.2199 64.8694 29.3146C64.6828 29.4093 64.5335 29.5357 64.4216 29.6936C64.3096 29.8514 64.2249 30.0266 64.1675 30.2189C64.1101 30.4113 64.0814 30.6122 64.0814 30.8218C64.0814 31.0371 64.1101 31.2424 64.1675 31.4376C64.2278 31.6299 64.3153 31.805 64.4302 31.9629C64.545 32.1179 64.6957 32.2414 64.8823 32.3333C65.0689 32.4251 65.2799 32.4711 65.5153 32.4711Z" fill="#363636"/>
<path d="M75.0152 29.728C74.9893 29.7136 74.9549 29.6936 74.9118 29.6677C74.8688 29.6419 74.7812 29.5959 74.6491 29.5299C74.5171 29.4639 74.3879 29.4065 74.2616 29.3577C74.1353 29.306 73.9874 29.2601 73.8181 29.2199C73.6515 29.1768 73.498 29.1553 73.3573 29.1553C73.0214 29.1553 72.8535 29.2586 72.8535 29.4653C72.8535 29.5113 72.8606 29.5529 72.875 29.5902C72.8922 29.6275 72.9209 29.662 72.9611 29.6936C73.0013 29.7251 73.0401 29.7524 73.0774 29.7754C73.1176 29.7983 73.1779 29.8242 73.2582 29.8529C73.3386 29.8816 73.4075 29.9046 73.4649 29.9218C73.5224 29.939 73.6099 29.9663 73.7276 30.0036C73.8453 30.038 73.9415 30.0668 74.0161 30.0897C74.2688 30.1672 74.4826 30.2433 74.6578 30.318C74.8358 30.3926 75.008 30.4845 75.1745 30.5935C75.341 30.6998 75.4745 30.8175 75.575 30.9467C75.6755 31.0758 75.7544 31.2323 75.8118 31.416C75.8721 31.5969 75.9023 31.8022 75.9023 32.0318C75.9023 32.3218 75.8563 32.583 75.7645 32.8156C75.6726 33.0481 75.5506 33.239 75.3984 33.3883C75.2491 33.5347 75.0697 33.6567 74.8602 33.7543C74.6506 33.8519 74.4353 33.9208 74.2142 33.961C73.996 34.0012 73.7649 34.0213 73.5209 34.0213C73.0702 34.0213 72.598 33.9553 72.1042 33.8232C71.6104 33.6883 71.1755 33.5103 70.7994 33.2892L71.5401 31.7821C71.5688 31.8022 71.6075 31.828 71.6563 31.8596C71.708 31.8883 71.8114 31.9428 71.9664 32.0232C72.1243 32.1007 72.2793 32.1696 72.4314 32.2299C72.5836 32.2902 72.763 32.3462 72.9697 32.3979C73.1793 32.4467 73.3731 32.4711 73.5511 32.4711C73.8841 32.4711 74.0506 32.3792 74.0506 32.1955C74.0506 32.1266 74.0291 32.0663 73.986 32.0146C73.9429 31.9601 73.8712 31.9113 73.7707 31.8682C73.6702 31.8223 73.5726 31.7849 73.4779 31.7562C73.386 31.7246 73.2539 31.6845 73.0817 31.6357C72.9123 31.584 72.7716 31.5395 72.6597 31.5022C72.097 31.3127 71.6908 31.0859 71.441 30.8218C71.1941 30.5548 71.0707 30.1959 71.0707 29.7452C71.0707 29.4093 71.1338 29.105 71.2602 28.8323C71.3893 28.5596 71.5616 28.3371 71.7769 28.1648C71.9951 27.9926 72.2434 27.8605 72.5219 27.7687C72.8003 27.6768 73.096 27.6309 73.409 27.6309C74.0779 27.6309 74.8602 27.8562 75.7558 28.3069L75.0152 29.728Z" fill="#363636"/>
<path d="M82.3493 33.9438V27.6825H85.0493C85.345 27.6825 85.6264 27.7457 85.8934 27.872C86.1603 27.9983 86.3843 28.1634 86.5651 28.3672C86.746 28.5711 86.8895 28.8036 86.9958 29.0648C87.102 29.3232 87.1551 29.5859 87.1551 29.8529C87.1551 30.1313 87.1048 30.4012 87.0044 30.6624C86.9039 30.9237 86.7647 31.1548 86.5867 31.3557C86.4115 31.5567 86.1934 31.7189 85.9321 31.8424C85.6709 31.9629 85.391 32.0232 85.0924 32.0232H84.0675V33.9438H82.3493ZM84.0675 30.5203H84.9761C85.0967 30.5203 85.1986 30.4672 85.2819 30.361C85.368 30.2548 85.4111 30.0854 85.4111 29.8529C85.4111 29.6175 85.3623 29.4467 85.2647 29.3404C85.1699 29.2342 85.0594 29.1811 84.9331 29.1811H84.0675V30.5203Z" fill="#363636"/>
<path d="M92.9602 27.4156L91.9009 27.1357L92.3401 25.8826H93.8301L92.9602 27.4156ZM92.4305 33.9955C92.0401 33.9955 91.6856 33.9409 91.3669 33.8318C91.0511 33.7227 90.7841 33.5734 90.5659 33.384C90.3506 33.1945 90.1698 32.9677 90.0234 32.7036C89.8769 32.4395 89.7707 32.1581 89.7047 31.8596C89.6387 31.5581 89.6057 31.238 89.6057 30.8993V27.6825H91.3281V30.8993C91.3281 31.1146 91.3482 31.3141 91.3884 31.4979C91.4315 31.6816 91.4947 31.8481 91.5779 31.9974C91.664 32.1438 91.7789 32.2601 91.9224 32.3462C92.0688 32.4294 92.2382 32.4711 92.4305 32.4711C92.6257 32.4711 92.7966 32.428 92.943 32.3419C93.0894 32.2557 93.2042 32.138 93.2875 31.9888C93.3736 31.8366 93.4368 31.6701 93.4769 31.4892C93.52 31.3055 93.5415 31.1089 93.5415 30.8993V27.6825H95.2597V30.8993C95.2597 31.3443 95.2023 31.7519 95.0875 32.1223C94.9726 32.4926 94.8018 32.8184 94.575 33.0998C94.3511 33.3811 94.0554 33.6007 93.688 33.7586C93.3234 33.9165 92.9042 33.9955 92.4305 33.9955Z" fill="#363636"/>
<path d="M101.181 33.9438H98.1022V27.6825H101.737C102.018 27.6825 102.269 27.7629 102.49 27.9237C102.714 28.0816 102.882 28.2811 102.994 28.5223C103.106 28.7634 103.162 29.0189 103.162 29.2888C103.162 29.5959 103.084 29.883 102.929 30.15C102.774 30.4141 102.553 30.6093 102.266 30.7357C102.637 30.8447 102.922 31.0328 103.123 31.2998C103.327 31.5668 103.429 31.9127 103.429 32.3376C103.429 32.6103 103.37 32.8514 103.252 33.061C103.138 33.2706 102.975 33.4385 102.766 33.5648C102.559 33.6912 102.322 33.7859 102.055 33.849C101.788 33.9122 101.497 33.9438 101.181 33.9438ZM99.8203 29.1467V30.1069H100.996C101.131 30.1069 101.241 30.0711 101.328 29.9993C101.417 29.9247 101.461 29.7983 101.461 29.6203C101.461 29.4596 101.422 29.3404 101.345 29.2629C101.267 29.1854 101.168 29.1467 101.048 29.1467H99.8203ZM101.241 31.4462H99.8203V32.4969H101.181C101.328 32.4969 101.447 32.4524 101.539 32.3634C101.633 32.2715 101.681 32.1452 101.681 31.9845C101.681 31.8294 101.639 31.7017 101.556 31.6012C101.472 31.4979 101.368 31.4462 101.241 31.4462Z" fill="#363636"/>
<path d="M106.043 33.9438V27.6825H107.761V32.4452H110.603V33.9438H106.043Z" fill="#363636"/>
<path d="M113.054 33.9438V27.6825H114.772V33.9438H113.054Z" fill="#363636"/>
<path d="M120.56 27.6481C121.149 27.6481 121.668 27.7715 122.119 28.0184C122.57 28.2653 122.906 28.5969 123.127 29.0132L121.813 29.9476C121.756 29.8012 121.678 29.6763 121.581 29.573C121.483 29.4668 121.374 29.3864 121.253 29.3318C121.133 29.2744 121.012 29.2342 120.892 29.2113C120.774 29.1854 120.652 29.1725 120.526 29.1725C120.29 29.1725 120.079 29.2213 119.893 29.3189C119.706 29.4136 119.557 29.5414 119.445 29.7022C119.336 29.8601 119.252 30.0337 119.195 30.2232C119.138 30.4127 119.109 30.6093 119.109 30.8132C119.109 31.2696 119.24 31.6601 119.501 31.9845C119.762 32.3089 120.109 32.4711 120.543 32.4711C120.712 32.4711 120.874 32.4481 121.029 32.4022C121.184 32.3534 121.332 32.2701 121.473 32.1524C121.617 32.0318 121.721 31.8825 121.787 31.7046L123.191 32.54C123.073 32.8357 122.867 33.0969 122.571 33.3237C122.278 33.5505 121.952 33.7199 121.594 33.8318C121.235 33.9409 120.873 33.9955 120.508 33.9955C120.061 33.9955 119.637 33.9022 119.238 33.7156C118.842 33.529 118.507 33.2849 118.235 32.9835C117.965 32.6792 117.751 32.3333 117.593 31.9457C117.438 31.5553 117.361 31.1605 117.361 30.7615C117.361 30.3768 117.434 30.0007 117.58 29.6333C117.729 29.2629 117.936 28.9299 118.2 28.6342C118.467 28.3385 118.806 28.1003 119.217 27.9194C119.627 27.7385 120.075 27.6481 120.56 27.6481Z" fill="#363636"/>
<path d="M125.207 30.8046C125.207 30.394 125.287 29.9979 125.448 29.616C125.609 29.2314 125.828 28.894 126.107 28.6041C126.385 28.3141 126.724 28.083 127.123 27.9108C127.525 27.7357 127.953 27.6481 128.406 27.6481C128.866 27.6481 129.296 27.74 129.698 27.9237C130.1 28.1046 130.435 28.3457 130.702 28.6471C130.971 28.9457 131.182 29.2859 131.335 29.6677C131.49 30.0495 131.567 30.44 131.567 30.839C131.567 31.2467 131.487 31.6414 131.326 32.0232C131.168 32.405 130.95 32.7423 130.671 33.0352C130.396 33.3251 130.057 33.5577 129.655 33.7328C129.253 33.9079 128.826 33.9955 128.372 33.9955C127.913 33.9955 127.482 33.905 127.08 33.7242C126.681 33.5433 126.347 33.3036 126.077 33.005C125.807 32.7065 125.594 32.3663 125.439 31.9845C125.284 31.5998 125.207 31.2065 125.207 30.8046ZM128.389 32.4711C128.627 32.4711 128.84 32.4237 129.026 32.329C129.216 32.2313 129.367 32.1022 129.479 31.9414C129.591 31.7806 129.675 31.6041 129.733 31.4117C129.79 31.2194 129.819 31.017 129.819 30.8046C129.819 30.5117 129.767 30.2447 129.664 30.0036C129.563 29.7624 129.401 29.5644 129.177 29.4093C128.956 29.2514 128.691 29.1725 128.381 29.1725C128.142 29.1725 127.93 29.2199 127.743 29.3146C127.557 29.4093 127.407 29.5357 127.295 29.6936C127.183 29.8514 127.099 30.0266 127.041 30.2189C126.984 30.4113 126.955 30.6122 126.955 30.8218C126.955 31.0371 126.984 31.2424 127.041 31.4376C127.102 31.6299 127.189 31.805 127.304 31.9629C127.419 32.1179 127.57 32.2414 127.756 32.3333C127.943 32.4251 128.154 32.4711 128.389 32.4711Z" fill="#363636"/>
<path d="M137.889 29.728C137.863 29.7136 137.829 29.6936 137.786 29.6677C137.743 29.6419 137.655 29.5959 137.523 29.5299C137.391 29.4639 137.262 29.4065 137.135 29.3577C137.009 29.306 136.861 29.2601 136.692 29.2199C136.525 29.1768 136.372 29.1553 136.231 29.1553C135.895 29.1553 135.727 29.2586 135.727 29.4653C135.727 29.5113 135.734 29.5529 135.749 29.5902C135.766 29.6275 135.795 29.662 135.835 29.6936C135.875 29.7251 135.914 29.7524 135.951 29.7754C135.991 29.7983 136.052 29.8242 136.132 29.8529C136.212 29.8816 136.281 29.9046 136.339 29.9218C136.396 29.939 136.484 29.9663 136.601 30.0036C136.719 30.038 136.815 30.0668 136.89 30.0897C137.143 30.1672 137.356 30.2433 137.532 30.318C137.71 30.3926 137.882 30.4845 138.048 30.5935C138.215 30.6998 138.348 30.8175 138.449 30.9467C138.549 31.0758 138.628 31.2323 138.686 31.416C138.746 31.5969 138.776 31.8022 138.776 32.0318C138.776 32.3218 138.73 32.583 138.638 32.8156C138.546 33.0481 138.424 33.239 138.272 33.3883C138.123 33.5347 137.944 33.6567 137.734 33.7543C137.524 33.8519 137.309 33.9208 137.088 33.961C136.87 34.0012 136.639 34.0213 136.395 34.0213C135.944 34.0213 135.472 33.9553 134.978 33.8232C134.484 33.6883 134.049 33.5103 133.673 33.2892L134.414 31.7821C134.443 31.8022 134.481 31.828 134.53 31.8596C134.582 31.8883 134.685 31.9428 134.84 32.0232C134.998 32.1007 135.153 32.1696 135.305 32.2299C135.457 32.2902 135.637 32.3462 135.844 32.3979C136.053 32.4467 136.247 32.4711 136.425 32.4711C136.758 32.4711 136.924 32.3792 136.924 32.1955C136.924 32.1266 136.903 32.0663 136.86 32.0146C136.817 31.9601 136.745 31.9113 136.644 31.8682C136.544 31.8223 136.446 31.7849 136.352 31.7562C136.26 31.7246 136.128 31.6845 135.956 31.6357C135.786 31.584 135.645 31.5395 135.533 31.5022C134.971 31.3127 134.565 31.0859 134.315 30.8218C134.068 30.5548 133.945 30.1959 133.945 29.7452C133.945 29.4093 134.008 29.105 134.134 28.8323C134.263 28.5596 134.435 28.3371 134.651 28.1648C134.869 27.9926 135.117 27.8605 135.396 27.7687C135.674 27.6768 135.97 27.6309 136.283 27.6309C136.952 27.6309 137.734 27.8562 138.63 28.3069L137.889 29.728Z" fill="#363636"/>
<path d="M57.4063 8.99999V4.53875L55.5632 7.92344H54.9819L53.1302 4.53875V8.99999H52.1441V2.73875H53.2034L55.2747 6.56698L57.346 2.73875H58.4053V8.99999H57.4063Z" fill="#363636"/>
<path d="M61.7139 8.99999V2.73875H62.7V8.99999H61.7139Z" fill="#363636"/>
<path d="M66.999 4.5732V8.99999H66.0128V2.73875H66.8224L70.3707 7.26458V2.74737H71.3655V8.99999H70.4999L66.999 4.5732Z" fill="#363636"/>
<path d="M74.6697 8.99999V2.73875H75.6558V8.99999H74.6697Z" fill="#363636"/>
<path d="M82.672 4.21148C82.5371 4.0622 82.3074 3.91866 81.983 3.78086C81.6586 3.64306 81.3242 3.57416 80.9797 3.57416C80.572 3.57416 80.2663 3.65024 80.0625 3.80239C79.8615 3.95167 79.761 4.16411 79.761 4.43971C79.761 4.52583 79.7725 4.60334 79.7955 4.67224C79.8184 4.74114 79.8471 4.80287 79.8816 4.85741C79.9189 4.90909 79.9735 4.95933 80.0452 5.00813C80.117 5.05693 80.1873 5.09856 80.2562 5.13301C80.328 5.16746 80.4242 5.20478 80.5448 5.24497C80.6682 5.28229 80.783 5.31531 80.8893 5.34401C80.9955 5.36985 81.1347 5.4043 81.307 5.44736C81.5826 5.51339 81.818 5.57942 82.0132 5.64545C82.2084 5.70861 82.3964 5.79042 82.5773 5.8909C82.7581 5.98851 82.9031 6.09904 83.0122 6.22248C83.1213 6.34306 83.2074 6.4909 83.2706 6.66602C83.3366 6.84114 83.3696 7.04066 83.3696 7.26458C83.3696 7.51434 83.3294 7.7397 83.2491 7.94066C83.1715 8.14162 83.0639 8.31099 82.9261 8.44879C82.7883 8.58659 82.6218 8.70286 82.4266 8.7976C82.2314 8.88946 82.0218 8.95693 81.7979 8.99999C81.5739 9.04018 81.3328 9.06028 81.0744 9.06028C80.5979 9.06028 80.1371 8.98851 79.6921 8.84496C79.2471 8.69855 78.8467 8.48898 78.4907 8.21626L78.9428 7.36793C79.1237 7.55454 79.418 7.7354 79.8256 7.91052C80.2361 8.08277 80.6582 8.16889 81.0916 8.16889C81.4821 8.16889 81.7821 8.09999 81.9916 7.96219C82.2041 7.82439 82.3103 7.62631 82.3103 7.36793C82.3103 7.26458 82.2945 7.17128 82.2629 7.08803C82.2314 7.00478 82.1768 6.93014 82.0993 6.86411C82.0218 6.79521 81.9414 6.73636 81.8581 6.68755C81.7778 6.63875 81.6615 6.58851 81.5093 6.53683C81.3601 6.48516 81.2223 6.4421 81.0959 6.40765C80.9725 6.3732 80.8046 6.3287 80.5921 6.27416C80.262 6.18803 79.9893 6.10047 79.7739 6.01148C79.5586 5.92248 79.3677 5.81339 79.2012 5.6842C79.0376 5.55502 78.9184 5.40287 78.8438 5.22775C78.7692 5.04976 78.7318 4.84019 78.7318 4.59904C78.7318 4.2976 78.7893 4.02631 78.9041 3.78516C79.0218 3.54115 79.1826 3.34019 79.3864 3.18229C79.5902 3.0244 79.8299 2.90383 80.1055 2.82057C80.3811 2.73732 80.6811 2.69569 81.0055 2.69569C81.7749 2.69569 82.4797 2.9311 83.1199 3.40191L82.672 4.21148Z" fill="#363636"/>
<path d="M90.8509 3.61292H88.771V8.99999H87.772V3.61292H85.6834V2.73875H90.8509V3.61292Z" fill="#363636"/>
<path d="M96.1274 2.09282L95.4901 1.89904L95.9939 0.930145H96.9197L96.1274 2.09282ZM97.88 8.12583V8.99999H93.5867V2.73875H97.8025V3.61292H94.5728V5.39138H97.3676V6.21387H94.5728V8.12583H97.88Z" fill="#363636"/>
<path d="M100.797 8.99999V2.73875H103.523C103.795 2.73875 104.054 2.79761 104.298 2.91531C104.545 3.03301 104.751 3.18804 104.918 3.38038C105.084 3.57272 105.216 3.79091 105.314 4.03492C105.412 4.27894 105.46 4.52583 105.46 4.77559C105.46 5.20047 105.348 5.58516 105.124 5.92966C104.901 6.27128 104.605 6.50095 104.237 6.61865L105.71 8.99999H104.599L103.238 6.82104H101.783V8.99999H100.797ZM101.783 5.94688H103.514C103.787 5.94688 104.012 5.83349 104.19 5.60669C104.368 5.37703 104.457 5.09999 104.457 4.77559C104.457 4.45693 104.357 4.18421 104.156 3.95741C103.955 3.72775 103.722 3.61292 103.458 3.61292H101.783V5.94688Z" fill="#363636"/>
<path d="M108.523 8.99999V2.73875H109.51V8.99999H108.523Z" fill="#363636"/>
<path d="M112.426 5.86937C112.426 5.45597 112.502 5.05693 112.654 4.67224C112.809 4.28469 113.019 3.94593 113.283 3.65598C113.547 3.36603 113.867 3.13349 114.243 2.95837C114.62 2.78325 115.019 2.69569 115.441 2.69569C115.874 2.69569 116.28 2.78756 116.659 2.97129C117.038 3.15502 117.354 3.39761 117.607 3.69904C117.862 3.9976 118.063 4.3378 118.209 4.71961C118.356 5.09856 118.429 5.48468 118.429 5.87798C118.429 6.29138 118.352 6.69042 118.197 7.07511C118.044 7.4598 117.838 7.79712 117.576 8.08707C117.315 8.37702 116.997 8.60956 116.62 8.78468C116.244 8.95693 115.845 9.04305 115.423 9.04305C115.073 9.04305 114.74 8.98563 114.424 8.8708C114.109 8.7531 113.83 8.59233 113.589 8.38851C113.351 8.18468 113.142 7.94927 112.965 7.68229C112.789 7.4153 112.656 7.12679 112.564 6.81674C112.472 6.50382 112.426 6.18803 112.426 5.86937ZM115.432 8.15166C115.736 8.15166 116.016 8.08564 116.272 7.95358C116.527 7.82152 116.737 7.64784 116.9 7.43253C117.064 7.21435 117.19 6.97033 117.279 6.70047C117.371 6.43061 117.417 6.15358 117.417 5.86937C117.417 5.57368 117.368 5.28947 117.271 5.01674C117.176 4.74114 117.044 4.49856 116.875 4.28899C116.708 4.07655 116.498 3.90861 116.246 3.78516C115.996 3.65885 115.725 3.59569 115.432 3.59569C115.128 3.59569 114.846 3.66172 114.588 3.79378C114.332 3.92296 114.121 4.09521 113.955 4.31052C113.788 4.52583 113.659 4.76842 113.567 5.03827C113.476 5.30813 113.43 5.58516 113.43 5.86937C113.43 6.26554 113.509 6.63588 113.666 6.98037C113.827 7.32487 114.063 7.60621 114.373 7.82439C114.683 8.04257 115.036 8.15166 115.432 8.15166Z" fill="#363636"/>
<path d="M125.425 8.99999V2.73875H127.647C128.138 2.73875 128.579 2.82057 128.969 2.98421C129.362 3.14497 129.684 3.3689 129.934 3.65598C130.184 3.94019 130.373 4.27033 130.502 4.64641C130.634 5.01961 130.7 5.4244 130.7 5.86076C130.7 6.80813 130.422 7.56889 129.865 8.14305C129.311 8.71434 128.572 8.99999 127.647 8.99999H125.425ZM127.647 3.61292H126.411V8.12583H127.647C128.078 8.12583 128.448 8.02678 128.758 7.8287C129.071 7.62774 129.305 7.35789 129.46 7.01913C129.615 6.68037 129.693 6.29425 129.693 5.86076C129.693 5.19186 129.51 4.65071 129.146 4.23732C128.784 3.82105 128.284 3.61292 127.647 3.61292Z" fill="#363636"/>
<path d="M135.21 2.73875H136.145L138.578 8.99999H137.536L136.877 7.29903H134.461L133.806 8.99999H132.756L135.21 2.73875ZM136.683 6.56698L135.675 3.82392L134.638 6.56698H136.683Z" fill="#363636"/>
</svg>
