<svg width="154" height="33" viewBox="0 0 154 33" fill="none" xmlns="http://www.w3.org/2000/svg">
<path d="M38.2294 20.9558V17.6663L37.179 19.9809H36.2621L35.2117 17.6663V20.9558H33.494V14.7118H35.3709L36.7184 17.6491L38.0788 14.7118H39.9471V20.9558H38.2294Z" fill="#363636"/>
<path d="M45.6042 21.0073C45.2139 21.0073 44.8594 20.9529 44.5408 20.8441C44.2251 20.7353 43.9582 20.5864 43.7401 20.3975C43.5249 20.2085 43.3441 19.9824 43.1977 19.719C43.0513 19.4556 42.9451 19.175 42.8791 18.8773C42.8131 18.5767 42.7801 18.2575 42.7801 17.9196V14.7118H44.5021V17.9196C44.5021 18.1344 44.5222 18.3333 44.5624 18.5166C44.6054 18.6998 44.6686 18.8658 44.7518 19.0147C44.8379 19.1607 44.9527 19.2767 45.0962 19.3626C45.2426 19.4456 45.4119 19.4871 45.6042 19.4871C45.7993 19.4871 45.9701 19.4441 46.1165 19.3583C46.2628 19.2724 46.3776 19.155 46.4609 19.0061C46.547 18.8544 46.6101 18.6883 46.6503 18.508C46.6933 18.3247 46.7149 18.1286 46.7149 17.9196V14.7118H48.4325V17.9196C48.4325 18.3634 48.3751 18.7699 48.2603 19.1392C48.1455 19.5086 47.9748 19.8335 47.748 20.1141C47.5242 20.3946 47.2286 20.6136 46.8612 20.7711C46.4967 20.9286 46.0777 21.0073 45.6042 21.0073Z" fill="#363636"/>
<path d="M51.2741 20.9558V14.7118H52.9918V19.4613H55.8331V20.9558H51.2741Z" fill="#363636"/>
<path d="M63.8191 14.7118V20.9558H62.1015V18.5123H60.0006V20.9558H58.283V14.7118H60.0006V17.0135H62.1015V14.7118H63.8191Z" fill="#363636"/>
<path d="M71.2068 19.4613V20.9558H66.7469V14.7118H71.1293V16.2062H68.4645V17.0865H70.7419V18.4736H68.4645V19.4613H71.2068Z" fill="#363636"/>
<path d="M73.859 20.9558V14.7118H76.7347C77.0303 14.7118 77.3116 14.7748 77.5785 14.9007C77.8454 15.0267 78.0693 15.1913 78.2501 15.3946C78.4309 15.5978 78.5744 15.8297 78.6806 16.0903C78.7868 16.3479 78.8399 16.6099 78.8399 16.8761C78.8399 17.2368 78.7595 17.5747 78.5988 17.8896C78.4409 18.2045 78.2214 18.4607 77.9401 18.6583L79.2617 20.9558H77.3762L76.2741 19.0405H75.5767V20.9558H73.859ZM75.5767 17.5417H76.6615C76.7735 17.5417 76.8739 17.4816 76.9629 17.3614C77.0519 17.2383 77.0963 17.0765 77.0963 16.8761C77.0963 16.6757 77.0461 16.514 76.9457 16.3909C76.8452 16.2678 76.7362 16.2062 76.6185 16.2062H75.5767V17.5417Z" fill="#363636"/>
<path d="M81.746 22.3385L82.0646 20.9558H81.5609V19.3368H82.9471V20.9558L82.4693 22.3385H81.746Z" fill="#363636"/>
<path d="M89.6076 20.9558V14.7118H92.0141C92.5192 14.7118 92.9741 14.7934 93.3787 14.9565C93.7863 15.1169 94.1178 15.3402 94.3732 15.6265C94.6315 15.9099 94.8281 16.2391 94.963 16.6142C95.1007 16.9863 95.1696 17.39 95.1696 17.8252C95.1696 18.7699 94.8812 19.5286 94.3043 20.1012C93.7303 20.6709 92.9669 20.9558 92.0141 20.9558H89.6076ZM92.0141 16.2062H91.3253V19.4613H92.0141C92.4532 19.4613 92.7976 19.3096 93.0473 19.0061C93.2998 18.7027 93.4261 18.309 93.4261 17.8252C93.4261 17.3356 93.2998 16.9434 93.0473 16.6485C92.7947 16.3536 92.4503 16.2062 92.0141 16.2062Z" fill="#363636"/>
<path d="M98.9583 14.7118H100.878L102.872 20.9558H101.128L100.749 19.7319H99.0788L98.7086 20.9558H96.9565L98.9583 14.7118ZM100.474 18.5896L99.9183 16.3909L99.3372 18.5896H100.474Z" fill="#363636"/>
<path d="M108.809 20.9558V14.7118H113.101V16.2062H110.526V17.2454H112.627V18.6325H110.526V20.9558H108.809Z" fill="#363636"/>
<path d="M116.67 14.7118H118.59L120.583 20.9558H118.84L118.461 19.7319H116.79L116.42 20.9558H114.668L116.67 14.7118ZM118.185 18.5896L117.63 16.3909L117.049 18.5896H118.185Z" fill="#363636"/>
<path d="M127.691 20.9558V17.6663L126.641 19.9809H125.724L124.673 17.6663V20.9558H122.956V14.7118H124.833L126.18 17.6491L127.54 14.7118H129.409V20.9558H127.691Z" fill="#363636"/>
<path d="M133.714 14.4455L132.659 14.1664L133.098 12.9167H134.588L133.714 14.4455ZM132.332 20.9558V14.7118H134.05V20.9558H132.332Z" fill="#363636"/>
<path d="M136.982 20.9558V14.7118H138.699V19.4613H141.541V20.9558H136.982Z" fill="#363636"/>
<path d="M143.991 20.9558V14.7118H145.708V20.9558H143.991Z" fill="#363636"/>
<path d="M150.087 14.7118H152.007L154 20.9558H152.256L151.878 19.7319H150.207L149.837 20.9558H148.085L150.087 14.7118ZM151.602 18.5896L151.047 16.3909L150.466 18.5896H151.602Z" fill="#363636"/>
<path d="M4.45994 31.4283V32.9227H0V26.6787H4.38245V28.1731H1.71768V29.0535H3.995V30.4406H1.71768V31.4283H4.45994Z" fill="#363636"/>
<path d="M10.9439 32.9227V26.6787H13.3504C13.8555 26.6787 14.3104 26.7603 14.715 26.9235C15.1226 27.0838 15.4541 27.3071 15.7095 27.5934C15.9678 27.8768 16.1644 28.2061 16.2993 28.5811C16.437 28.9533 16.5059 29.357 16.5059 29.7921C16.5059 30.7369 16.2175 31.4955 15.6406 32.0681C15.0666 32.6378 14.3032 32.9227 13.3504 32.9227H10.9439ZM13.3504 28.1731H12.6616V31.4283H13.3504C13.7895 31.4283 14.1339 31.2765 14.3836 30.9731C14.6361 30.6696 14.7624 30.276 14.7624 29.7921C14.7624 29.3026 14.6361 28.9103 14.3836 28.6155C14.131 28.3206 13.7866 28.1731 13.3504 28.1731Z" fill="#363636"/>
<path d="M18.7621 29.7921C18.7621 29.3827 18.8424 28.9876 19.0031 28.6069C19.1639 28.2233 19.3834 27.8869 19.6618 27.5977C19.9402 27.3086 20.2788 27.0781 20.6778 26.9063C21.0796 26.7317 21.5072 26.6444 21.9606 26.6444C22.4198 26.6444 22.8503 26.736 23.2521 26.9192C23.6539 27.0996 23.9883 27.34 24.2552 27.6406C24.525 27.9384 24.7359 28.2776 24.888 28.6584C25.043 29.0392 25.1205 29.4285 25.1205 29.8265C25.1205 30.233 25.0401 30.6267 24.8794 31.0074C24.7216 31.3882 24.5034 31.7246 24.2251 32.0166C23.9495 32.3057 23.6109 32.5376 23.2091 32.7123C22.8073 32.8869 22.3797 32.9742 21.9262 32.9742C21.467 32.9742 21.0365 32.8841 20.6347 32.7037C20.2358 32.5233 19.9014 32.2843 19.6317 31.9865C19.3619 31.6888 19.1495 31.3495 18.9945 30.9688C18.8395 30.5851 18.7621 30.1929 18.7621 29.7921ZM21.9434 31.454C22.1816 31.454 22.394 31.4068 22.5806 31.3123C22.77 31.215 22.9206 31.0862 23.0326 30.9258C23.1445 30.7655 23.2292 30.5894 23.2866 30.3976C23.344 30.2058 23.3727 30.004 23.3727 29.7921C23.3727 29.5001 23.321 29.2339 23.2177 28.9934C23.1172 28.7529 22.9551 28.5553 22.7312 28.4007C22.5102 28.2433 22.2448 28.1646 21.9348 28.1646C21.6966 28.1646 21.4842 28.2118 21.2977 28.3063C21.1111 28.4008 20.9619 28.5267 20.85 28.6842C20.738 28.8416 20.6534 29.0163 20.596 29.2081C20.5386 29.3999 20.5099 29.6003 20.5099 29.8093C20.5099 30.024 20.5386 30.2287 20.596 30.4234C20.6562 30.6152 20.7438 30.7898 20.8586 30.9473C20.9734 31.1019 21.124 31.225 21.3106 31.3166C21.4971 31.4082 21.7081 31.454 21.9434 31.454Z" fill="#363636"/>
<path d="M31.4405 28.7185C31.4147 28.7042 31.3802 28.6842 31.3372 28.6584C31.2941 28.6326 31.2066 28.5868 31.0746 28.521C30.9426 28.4551 30.8134 28.3979 30.6871 28.3492C30.5609 28.2977 30.4131 28.2519 30.2437 28.2118C30.0773 28.1689 29.9237 28.1474 29.7831 28.1474C29.4473 28.1474 29.2794 28.2504 29.2794 28.4566C29.2794 28.5024 29.2866 28.5439 29.3009 28.5811C29.3182 28.6183 29.3469 28.6527 29.387 28.6842C29.4272 28.7157 29.466 28.7429 29.5033 28.7658C29.5435 28.7887 29.6037 28.8144 29.6841 28.8431C29.7644 28.8717 29.8333 28.8946 29.8907 28.9118C29.9481 28.929 30.0357 28.9562 30.1533 28.9934C30.271 29.0277 30.3671 29.0564 30.4418 29.0793C30.6943 29.1566 30.9081 29.2324 31.0832 29.3069C31.2611 29.3813 31.4333 29.4729 31.5998 29.5817C31.7663 29.6876 31.8997 29.805 32.0002 29.9338C32.1006 30.0627 32.1795 30.2187 32.2369 30.4019C32.2972 30.5823 32.3273 30.787 32.3273 31.016C32.3273 31.3052 32.2814 31.5657 32.1896 31.7976C32.0977 32.0295 31.9758 32.2199 31.8237 32.3687C31.6744 32.5147 31.495 32.6364 31.2855 32.7338C31.076 32.8311 30.8608 32.8998 30.6398 32.9399C30.4217 32.98 30.1906 33 29.9467 33C29.4961 33 29.024 32.9342 28.5304 32.8025C28.0367 32.6679 27.6019 32.4904 27.226 32.27L27.9664 30.7669C27.9951 30.787 28.0339 30.8127 28.0826 30.8442C28.1343 30.8729 28.2376 30.9273 28.3926 31.0074C28.5504 31.0847 28.7054 31.1534 28.8575 31.2136C29.0096 31.2737 29.189 31.3295 29.3957 31.381C29.6052 31.4297 29.7989 31.454 29.9768 31.454C30.3097 31.454 30.4762 31.3624 30.4762 31.1792C30.4762 31.1105 30.4547 31.0504 30.4116 30.9988C30.3686 30.9444 30.2968 30.8958 30.1964 30.8528C30.0959 30.807 29.9984 30.7698 29.9036 30.7412C29.8118 30.7097 29.6798 30.6696 29.5076 30.6209C29.3383 30.5694 29.1976 30.525 29.0857 30.4878C28.5232 30.2989 28.1171 30.0727 27.8674 29.8093C27.6206 29.543 27.4972 29.1852 27.4972 28.7357C27.4972 28.4008 27.5603 28.0973 27.6866 27.8253C27.8157 27.5533 27.9879 27.3315 28.2032 27.1597C28.4213 26.9879 28.6696 26.8562 28.9479 26.7646C29.2263 26.673 29.5219 26.6272 29.8348 26.6272C30.5035 26.6272 31.2855 26.8519 32.181 27.3014L31.4405 28.7185Z" fill="#363636"/>
<path d="M38.7725 32.9227V26.6787H41.179C41.6841 26.6787 42.139 26.7603 42.5437 26.9235C42.9512 27.0838 43.2827 27.3071 43.5381 27.5934C43.7964 27.8768 43.993 28.2061 44.1279 28.5811C44.2657 28.9533 44.3346 29.357 44.3346 29.7921C44.3346 30.7369 44.0461 31.4955 43.4693 32.0681C42.8953 32.6378 42.1319 32.9227 41.179 32.9227H38.7725ZM41.179 28.1731H40.4902V31.4283H41.179C41.6181 31.4283 41.9625 31.2765 42.2122 30.9731C42.4648 30.6696 42.591 30.276 42.591 29.7921C42.591 29.3026 42.4648 28.9103 42.2122 28.6155C41.9597 28.3206 41.6153 28.1731 41.179 28.1731Z" fill="#363636"/>
<path d="M46.9351 32.9227V26.6787H48.6528V32.9227H46.9351Z" fill="#363636"/>
<path d="M51.5848 32.9227V26.6787H54.4605C54.7561 26.6787 55.0374 26.7417 55.3043 26.8677C55.5712 26.9936 55.7951 27.1583 55.9759 27.3615C56.1567 27.5648 56.3002 27.7967 56.4064 28.0572C56.5126 28.3149 56.5656 28.5768 56.5656 28.8431C56.5656 29.2038 56.4853 29.5416 56.3246 29.8565C56.1667 30.1715 55.9472 30.4277 55.6659 30.6252L56.9875 32.9227H55.102L53.9999 31.0074H53.3025V32.9227H51.5848ZM53.3025 29.5087H54.3873C54.4993 29.5087 54.5997 29.4486 54.6887 29.3283C54.7776 29.2052 54.8221 29.0435 54.8221 28.8431C54.8221 28.6427 54.7719 28.4809 54.6715 28.3578C54.571 28.2347 54.462 28.1731 54.3443 28.1731H53.3025V29.5087Z" fill="#363636"/>
<path d="M63.8457 31.4283V32.9227H59.3857V26.6787H63.7682V28.1731H61.1034V29.0535H63.3807V30.4406H61.1034V31.4283H63.8457Z" fill="#363636"/>
<path d="M66.4979 32.9227V26.6787H68.2156V32.9227H66.4979Z" fill="#363636"/>
<path d="M76.0208 28.1731H74.2256V32.9227H72.5036V28.1731H70.6956V26.6787H76.0208V28.1731Z" fill="#363636"/>
<path d="M78.0531 29.7921C78.0531 29.3827 78.1334 28.9876 78.2942 28.6069C78.4549 28.2233 78.6744 27.8869 78.9528 27.5977C79.2312 27.3086 79.5699 27.0781 79.9688 26.9063C80.3706 26.7317 80.7982 26.6444 81.2517 26.6444C81.7109 26.6444 82.1414 26.736 82.5432 26.9192C82.945 27.0996 83.2793 27.34 83.5462 27.6406C83.816 27.9384 84.0269 28.2776 84.179 28.6584C84.334 29.0392 84.4115 29.4285 84.4115 29.8265C84.4115 30.233 84.3312 30.6267 84.1704 31.0074C84.0126 31.3882 83.7945 31.7246 83.5161 32.0166C83.2406 32.3057 82.9019 32.5376 82.5001 32.7123C82.0983 32.8869 81.6707 32.9742 81.2172 32.9742C80.758 32.9742 80.3275 32.8841 79.9257 32.7037C79.5268 32.5233 79.1925 32.2843 78.9227 31.9865C78.6529 31.6888 78.4405 31.3495 78.2856 30.9688C78.1306 30.5851 78.0531 30.1929 78.0531 29.7921ZM81.2345 31.454C81.4727 31.454 81.685 31.4068 81.8716 31.3123C82.061 31.215 82.2117 31.0862 82.3236 30.9258C82.4355 30.7655 82.5202 30.5894 82.5776 30.3976C82.635 30.2058 82.6637 30.004 82.6637 29.7921C82.6637 29.5001 82.612 29.2339 82.5087 28.9934C82.4083 28.7529 82.2461 28.5553 82.0223 28.4007C81.8013 28.2433 81.5358 28.1646 81.2258 28.1646C80.9876 28.1646 80.7753 28.2118 80.5887 28.3063C80.4022 28.4008 80.2529 28.5267 80.141 28.6842C80.0291 28.8416 79.9444 29.0163 79.887 29.2081C79.8296 29.3999 79.8009 29.6003 79.8009 29.8093C79.8009 30.024 79.8296 30.2287 79.887 30.4234C79.9473 30.6152 80.0348 30.7898 80.1496 30.9473C80.2644 31.1019 80.4151 31.225 80.6016 31.3166C80.7882 31.4082 80.9991 31.454 81.2345 31.454Z" fill="#363636"/>
<path d="M90.7315 28.7185C90.7057 28.7042 90.6713 28.6842 90.6282 28.6584C90.5852 28.6326 90.4976 28.5868 90.3656 28.521C90.2336 28.4551 90.1044 28.3979 89.9782 28.3492C89.8519 28.2977 89.7041 28.2519 89.5348 28.2118C89.3683 28.1689 89.2148 28.1474 89.0741 28.1474C88.7383 28.1474 88.5704 28.2504 88.5704 28.4566C88.5704 28.5024 88.5776 28.5439 88.592 28.5811C88.6092 28.6183 88.6379 28.6527 88.6781 28.6842C88.7182 28.7157 88.757 28.7429 88.7943 28.7658C88.8345 28.7887 88.8948 28.8144 88.9751 28.8431C89.0555 28.8717 89.1244 28.8946 89.1818 28.9118C89.2392 28.929 89.3267 28.9562 89.4444 28.9934C89.562 29.0277 89.6582 29.0564 89.7328 29.0793C89.9853 29.1566 90.1992 29.2324 90.3742 29.3069C90.5522 29.3813 90.7244 29.4729 90.8908 29.5817C91.0573 29.6876 91.1907 29.805 91.2912 29.9338C91.3916 30.0627 91.4706 30.2187 91.528 30.4019C91.5882 30.5823 91.6184 30.787 91.6184 31.016C91.6184 31.3052 91.5724 31.5657 91.4806 31.7976C91.3888 32.0295 91.2668 32.2199 91.1147 32.3687C90.9654 32.5147 90.7861 32.6364 90.5766 32.7338C90.3671 32.8311 90.1518 32.8998 89.9308 32.9399C89.7127 32.98 89.4817 33 89.2377 33C88.7871 33 88.315 32.9342 87.8214 32.8025C87.3278 32.6679 86.8929 32.4904 86.517 32.27L87.2574 30.7669C87.2861 30.787 87.3249 30.8127 87.3737 30.8442C87.4253 30.8729 87.5286 30.9273 87.6836 31.0074C87.8415 31.0847 87.9965 31.1534 88.1486 31.2136C88.3007 31.2737 88.48 31.3295 88.6867 31.381C88.8962 31.4297 89.0899 31.454 89.2678 31.454C89.6008 31.454 89.7672 31.3624 89.7672 31.1792C89.7672 31.1105 89.7457 31.0504 89.7027 30.9988C89.6596 30.9444 89.5879 30.8958 89.4874 30.8528C89.387 30.807 89.2894 30.7698 89.1947 30.7412C89.1028 30.7097 88.9708 30.6696 88.7986 30.6209C88.6293 30.5694 88.4887 30.525 88.3767 30.4878C87.8142 30.2989 87.4081 30.0727 87.1584 29.8093C86.9116 29.543 86.7882 29.1852 86.7882 28.7357C86.7882 28.4008 86.8513 28.0973 86.9776 27.8253C87.1068 27.5533 87.279 27.3315 87.4942 27.1597C87.7123 26.9879 87.9606 26.8562 88.239 26.7646C88.5173 26.673 88.813 26.6272 89.1258 26.6272C89.7945 26.6272 90.5766 26.8519 91.472 27.3014L90.7315 28.7185Z" fill="#363636"/>
<path d="M103.6 26.6787V32.9227H101.882V30.4792H99.7813V32.9227H98.0636V26.6787H99.7813V28.9805H101.882V26.6787H103.6Z" fill="#363636"/>
<path d="M109.261 32.9742C108.871 32.9742 108.516 32.9198 108.198 32.8111C107.882 32.7023 107.615 32.5534 107.397 32.3644C107.182 32.1755 107.001 31.9493 106.855 31.6859C106.708 31.4225 106.602 31.142 106.536 30.8442C106.47 30.5436 106.437 30.2244 106.437 29.8866V26.6787H108.159V29.8866C108.159 30.1013 108.179 30.3003 108.219 30.4835C108.262 30.6667 108.326 30.8328 108.409 30.9817C108.495 31.1277 108.61 31.2436 108.753 31.3295C108.9 31.4125 109.069 31.454 109.261 31.454C109.456 31.454 109.627 31.4111 109.773 31.3252C109.92 31.2393 110.035 31.1219 110.118 30.9731C110.204 30.8213 110.267 30.6553 110.307 30.4749C110.35 30.2917 110.372 30.0956 110.372 29.8866V26.6787H112.089V29.8866C112.089 30.3303 112.032 30.7369 111.917 31.1062C111.802 31.4755 111.632 31.8004 111.405 32.081C111.181 32.3616 110.886 32.5806 110.518 32.738C110.154 32.8955 109.735 32.9742 109.261 32.9742Z" fill="#363636"/>
<path d="M119.667 32.9227V29.6332L118.616 31.9479H117.699L116.649 29.6332V32.9227H114.931V26.6787H116.808L118.156 29.6161L119.516 26.6787H121.384V32.9227H119.667Z" fill="#363636"/>
<path d="M125.754 26.6787H127.674L129.667 32.9227H127.924L127.545 31.6988H125.875L125.504 32.9227H123.752L125.754 26.6787ZM127.269 30.5565L126.714 28.3578L126.133 30.5565H127.269Z" fill="#363636"/>
<path d="M133.757 29.8522V32.9227H132.04V26.6787H133.379L135.893 29.8522V26.6787H137.61V32.9227H136.246L133.757 29.8522Z" fill="#363636"/>
<path d="M140.194 29.7921C140.194 29.3827 140.274 28.9876 140.435 28.6069C140.595 28.2233 140.815 27.8869 141.093 27.5977C141.372 27.3086 141.71 27.0781 142.109 26.9063C142.511 26.7317 142.939 26.6444 143.392 26.6444C143.851 26.6444 144.282 26.736 144.684 26.9192C145.086 27.0996 145.42 27.34 145.687 27.6406C145.957 27.9384 146.168 28.2776 146.32 28.6584C146.475 29.0392 146.552 29.4285 146.552 29.8265C146.552 30.233 146.472 30.6267 146.311 31.0074C146.153 31.3882 145.935 31.7246 145.657 32.0166C145.381 32.3057 145.042 32.5376 144.641 32.7123C144.239 32.8869 143.811 32.9742 143.358 32.9742C142.899 32.9742 142.468 32.8841 142.066 32.7037C141.667 32.5233 141.333 32.2843 141.063 31.9865C140.793 31.6888 140.581 31.3495 140.426 30.9688C140.271 30.5851 140.194 30.1929 140.194 29.7921ZM143.375 31.454C143.613 31.454 143.826 31.4068 144.012 31.3123C144.202 31.215 144.352 31.0862 144.464 30.9258C144.576 30.7655 144.661 30.5894 144.718 30.3976C144.776 30.2058 144.804 30.004 144.804 29.7921C144.804 29.5001 144.753 29.2339 144.649 28.9934C144.549 28.7529 144.387 28.5553 144.163 28.4007C143.942 28.2433 143.676 28.1646 143.366 28.1646C143.128 28.1646 142.916 28.2118 142.729 28.3063C142.543 28.4008 142.393 28.5267 142.282 28.6842C142.17 28.8416 142.085 29.0163 142.028 29.2081C141.97 29.3999 141.941 29.6003 141.941 29.8093C141.941 30.024 141.97 30.2287 142.028 30.4234C142.088 30.6152 142.175 30.7898 142.29 30.9473C142.405 31.1019 142.556 31.225 142.742 31.3166C142.929 31.4082 143.14 31.454 143.375 31.454Z" fill="#363636"/>
<path d="M152.872 28.7185C152.846 28.7042 152.812 28.6842 152.769 28.6584C152.726 28.6326 152.638 28.5868 152.506 28.521C152.374 28.4551 152.245 28.3979 152.119 28.3492C151.992 28.2977 151.845 28.2519 151.675 28.2118C151.509 28.1689 151.355 28.1474 151.215 28.1474C150.879 28.1474 150.711 28.2504 150.711 28.4566C150.711 28.5024 150.718 28.5439 150.733 28.5811C150.75 28.6183 150.778 28.6527 150.819 28.6842C150.859 28.7157 150.898 28.7429 150.935 28.7658C150.975 28.7887 151.035 28.8144 151.116 28.8431C151.196 28.8717 151.265 28.8946 151.322 28.9118C151.38 28.929 151.467 28.9562 151.585 28.9934C151.703 29.0277 151.799 29.0564 151.873 29.0793C152.126 29.1566 152.34 29.2324 152.515 29.3069C152.693 29.3813 152.865 29.4729 153.031 29.5817C153.198 29.6876 153.331 29.805 153.432 29.9338C153.532 30.0627 153.611 30.2187 153.669 30.4019C153.729 30.5823 153.759 30.787 153.759 31.016C153.759 31.3052 153.713 31.5657 153.621 31.7976C153.529 32.0295 153.407 32.2199 153.255 32.3687C153.106 32.5147 152.927 32.6364 152.717 32.7338C152.508 32.8311 152.292 32.8998 152.071 32.9399C151.853 32.98 151.622 33 151.378 33C150.928 33 150.456 32.9342 149.962 32.8025C149.468 32.6679 149.034 32.4904 148.658 32.27L149.398 30.7669C149.427 30.787 149.465 30.8127 149.514 30.8442C149.566 30.8729 149.669 30.9273 149.824 31.0074C149.982 31.0847 150.137 31.1534 150.289 31.2136C150.441 31.2737 150.621 31.3295 150.827 31.381C151.037 31.4297 151.23 31.454 151.408 31.454C151.741 31.454 151.908 31.3624 151.908 31.1792C151.908 31.1105 151.886 31.0504 151.843 30.9988C151.8 30.9444 151.728 30.8958 151.628 30.8528C151.528 30.807 151.43 30.7698 151.335 30.7412C151.243 30.7097 151.111 30.6696 150.939 30.6209C150.77 30.5694 150.629 30.525 150.517 30.4878C149.955 30.2989 149.549 30.0727 149.299 29.8093C149.052 29.543 148.929 29.1852 148.929 28.7357C148.929 28.4008 148.992 28.0973 149.118 27.8253C149.247 27.5533 149.42 27.3315 149.635 27.1597C149.853 26.9879 150.101 26.8562 150.38 26.7646C150.658 26.673 150.954 26.6272 151.266 26.6272C151.935 26.6272 152.717 26.8519 153.613 27.3014L152.872 28.7185Z" fill="#363636"/>
<path d="M72.4128 8.04762V3.59867L70.5702 6.97403H69.9891L68.1379 3.59867V8.04762H67.1521V1.80363H68.2111L70.2818 5.62131L72.3525 1.80363H73.4115V8.04762H72.4128Z" fill="#363636"/>
<path d="M76.7191 8.04762V1.80363H77.7049V8.04762H76.7191Z" fill="#363636"/>
<path d="M82.0027 3.63302V8.04762H81.0168V1.80363H81.8262L85.3735 6.31699V1.81222H86.3679V8.04762H85.5026L82.0027 3.63302Z" fill="#363636"/>
<path d="M89.6712 8.04762V1.80363H90.657V8.04762H89.6712Z" fill="#363636"/>
<path d="M97.6712 3.2723C97.5363 3.12343 97.3067 2.98028 96.9824 2.84286C96.6581 2.70544 96.3237 2.63673 95.9793 2.63673C95.5718 2.63673 95.2661 2.7126 95.0624 2.86433C94.8615 3.0132 94.761 3.22506 94.761 3.4999C94.761 3.58578 94.7725 3.66308 94.7955 3.73179C94.8184 3.8005 94.8471 3.86205 94.8816 3.91645C94.9189 3.96798 94.9734 4.01808 95.0452 4.06675C95.1169 4.11542 95.1872 4.15693 95.2561 4.19129C95.3279 4.22564 95.424 4.26286 95.5445 4.30294C95.6679 4.34016 95.7827 4.37308 95.8889 4.40171C95.9951 4.42748 96.1343 4.46183 96.3065 4.50478C96.582 4.57062 96.8174 4.63647 97.0125 4.70232C97.2077 4.7653 97.3957 4.84689 97.5765 4.94709C97.7573 5.04443 97.9022 5.15465 98.0113 5.27776C98.1203 5.398 98.2064 5.54544 98.2696 5.72008C98.3356 5.89471 98.3686 6.09369 98.3686 6.31699C98.3686 6.56606 98.3284 6.7908 98.248 6.9912C98.1706 7.19161 98.0629 7.36052 97.9252 7.49794C97.7874 7.63536 97.621 7.75131 97.4258 7.84578C97.2306 7.93739 97.0211 8.00467 96.7973 8.04762C96.5734 8.0877 96.3323 8.10774 96.074 8.10774C95.5976 8.10774 95.137 8.03616 94.6922 7.89302C94.2473 7.74701 93.8469 7.53802 93.4911 7.26604L93.9431 6.42006C94.1239 6.60614 94.4181 6.78651 94.8256 6.96114C95.236 7.13292 95.6579 7.21881 96.0913 7.21881C96.4816 7.21881 96.7815 7.1501 96.991 7.01268C97.2034 6.87526 97.3096 6.67772 97.3096 6.42006C97.3096 6.31699 97.2938 6.22395 97.2622 6.14092C97.2306 6.0579 97.1761 5.98346 97.0986 5.91762C97.0211 5.84891 96.9408 5.79022 96.8575 5.74155C96.7772 5.69288 96.661 5.64278 96.5089 5.59125C96.3596 5.53971 96.2218 5.49677 96.0956 5.46242C95.9722 5.42806 95.8043 5.38369 95.5919 5.32929C95.2618 5.2434 94.9892 5.15609 94.7739 5.06734C94.5587 4.97859 94.3678 4.86979 94.2014 4.74096C94.0378 4.61213 93.9187 4.4604 93.8441 4.28576C93.7695 4.10826 93.7321 3.89927 93.7321 3.65879C93.7321 3.35818 93.7895 3.08764 93.9043 2.84716C94.022 2.60381 94.1827 2.40341 94.3865 2.24595C94.5903 2.08849 94.8299 1.96824 95.1054 1.88522C95.3809 1.8022 95.6809 1.76068 96.0052 1.76068C96.7743 1.76068 97.4789 1.99544 98.1189 2.46496L97.6712 3.2723Z" fill="#363636"/>
<path d="M105.848 2.67538H103.768V8.04762H102.77V2.67538H100.682V1.80363H105.848V2.67538Z" fill="#363636"/>
<path d="M111.123 1.15947L110.486 0.966229L110.989 0H111.915L111.123 1.15947ZM112.875 7.17586V8.04762H108.583V1.80363H112.797V2.67538H109.569V4.44895H112.362V5.26917H109.569V7.17586H112.875Z" fill="#363636"/>
<path d="M115.791 8.04762V1.80363H118.516C118.788 1.80363 119.047 1.86232 119.291 1.9797C119.537 2.09707 119.744 2.25167 119.91 2.44349C120.077 2.6353 120.209 2.85288 120.307 3.09623C120.404 3.33957 120.453 3.58578 120.453 3.83486C120.453 4.25857 120.341 4.64219 120.117 4.98574C119.893 5.32643 119.598 5.55546 119.23 5.67284L120.703 8.04762H119.592L118.232 5.87467H116.776V8.04762H115.791ZM116.776 5.00292H118.507C118.78 5.00292 119.005 4.88984 119.183 4.66367C119.361 4.43463 119.45 4.15836 119.45 3.83486C119.45 3.51707 119.349 3.2451 119.148 3.01893C118.948 2.7899 118.715 2.67538 118.451 2.67538H116.776V5.00292Z" fill="#363636"/>
<path d="M123.515 8.04762V1.80363H124.501V8.04762H123.515Z" fill="#363636"/>
<path d="M127.417 4.92562C127.417 4.51336 127.493 4.11542 127.645 3.73179C127.8 3.3453 128.009 3.00748 128.273 2.71832C128.537 2.42917 128.857 2.19728 129.233 2.02264C129.609 1.848 130.008 1.76068 130.43 1.76068C130.864 1.76068 131.27 1.8523 131.649 2.03552C132.027 2.21875 132.343 2.46066 132.596 2.76127C132.851 3.05901 133.052 3.39826 133.198 3.77903C133.345 4.15693 133.418 4.54199 133.418 4.93421C133.418 5.34647 133.34 5.74441 133.185 6.12804C133.033 6.51167 132.827 6.84806 132.565 7.13721C132.304 7.42637 131.986 7.65826 131.61 7.8329C131.234 8.00467 130.835 8.09056 130.413 8.09056C130.063 8.09056 129.73 8.0333 129.414 7.91878C129.099 7.80141 128.82 7.64108 128.579 7.43782C128.341 7.23455 128.133 6.99979 127.955 6.73354C127.78 6.46729 127.646 6.17957 127.555 5.87038C127.463 5.55832 127.417 5.2434 127.417 4.92562ZM130.422 7.20163C130.726 7.20163 131.006 7.13578 131.261 7.00409C131.517 6.87239 131.726 6.69919 131.89 6.48447C132.053 6.26689 132.179 6.02354 132.268 5.75443C132.36 5.48532 132.406 5.20905 132.406 4.92562C132.406 4.63074 132.357 4.34732 132.26 4.07534C132.165 3.8005 132.033 3.55859 131.864 3.34959C131.697 3.13774 131.488 2.97026 131.235 2.84716C130.986 2.72119 130.714 2.6582 130.422 2.6582C130.117 2.6582 129.836 2.72405 129.578 2.85574C129.322 2.98457 129.111 3.15635 128.945 3.37107C128.779 3.58578 128.649 3.8277 128.558 4.09681C128.466 4.36592 128.42 4.64219 128.42 4.92562C128.42 5.3207 128.499 5.69002 128.657 6.03356C128.817 6.37711 129.053 6.65768 129.363 6.87526C129.673 7.09284 130.026 7.20163 130.422 7.20163Z" fill="#363636"/>
<path d="M140.412 8.04762V1.80363H142.633C143.124 1.80363 143.565 1.88522 143.955 2.04841C144.348 2.20873 144.669 2.43203 144.919 2.71832C145.169 3.00175 145.358 3.33099 145.487 3.70603C145.619 4.0782 145.685 4.48187 145.685 4.91703C145.685 5.86179 145.407 6.62046 144.85 7.19304C144.296 7.76276 143.557 8.04762 142.633 8.04762H140.412ZM142.633 2.67538H141.398V7.17586H142.633C143.064 7.17586 143.434 7.07709 143.744 6.87955C144.057 6.67915 144.291 6.41004 144.446 6.07221C144.601 5.73439 144.678 5.34933 144.678 4.91703C144.678 4.24998 144.496 3.71032 144.131 3.29806C143.77 2.88294 143.27 2.67538 142.633 2.67538Z" fill="#363636"/>
<path d="M150.194 1.80363H151.128L153.561 8.04762H152.519L151.86 6.35135H149.445L148.791 8.04762H147.74L150.194 1.80363ZM151.666 5.62131L150.659 2.8858L149.622 5.62131H151.666Z" fill="#363636"/>
</svg>
