<svg width="24" height="24" viewBox="0 0 24 24" fill="none" xmlns="http://www.w3.org/2000/svg">
<path d="M15.3821 17.9686L12.5979 20.7529C12.2683 21.0824 11.7341 21.0824 11.4046 20.7529L8.62039 17.9686C8.08886 17.4371 8.46532 16.5283 9.21703 16.5283H11.0157L11.0157 12.9844H7.47177V14.783C7.47177 15.5347 6.56294 15.9112 6.03138 15.3797L3.24714 12.5954C2.91762 12.2659 2.91762 11.7317 3.24714 11.4022L6.03138 8.61798C6.5629 8.08645 7.47177 8.4629 7.47177 9.21461V11.0156H11.0157V7.47175H9.2146C8.46289 7.47175 8.08644 6.56293 8.61797 6.03137L11.4022 3.24714C11.7317 2.91762 12.2659 2.91762 12.5954 3.24714L15.3797 6.03137C15.9112 6.56289 15.5348 7.47175 14.783 7.47175H12.9844V11.0156H16.5283V9.21697C16.5283 8.46526 17.4371 8.08881 17.9686 8.62033L20.7529 11.4046C21.0824 11.7341 21.0824 12.2683 20.7529 12.5978L17.9686 15.382C17.4371 15.9135 16.5282 15.5371 16.5283 14.7854V12.9844H12.9844V16.5283H14.7855C15.5372 16.5283 15.9136 17.4371 15.3821 17.9686Z" fill="#4B4B4B"/>
</svg>
