<svg xmlns="http://www.w3.org/2000/svg" width="34.392" height="53.021" viewBox="0 0 34.392 53.021"><defs><style>.a{fill:#989898;}.b{fill:#fff;}.c{fill:#717171;font-size:11px;font-family:OpenSans-Italic, Open Sans;font-style:italic;}</style></defs><g transform="translate(-147.24 -2046.426)"><path class="a" d="M17.2,0A17.2,17.2,0,1,1,0,17.2,17.2,17.2,0,0,1,17.2,0Z" transform="translate(147.24 2065.055)"/><g transform="translate(155.838 2072.22)"><g transform="translate(0 0)"><path class="b" d="M149.233,18.9a2.509,2.509,0,0,0,.63-1.706,2.228,2.228,0,0,0-2.2-2.2h-3.171a2.867,2.867,0,0,1,.092-.275,1.916,1.916,0,0,1,.126-.252q.08-.137.114-.206.206-.389.315-.641a4.674,4.674,0,0,0,.217-.687,3.569,3.569,0,0,0,.109-.87q0-.275-.006-.447a4.922,4.922,0,0,0-.057-.515,2.892,2.892,0,0,0-.138-.572,2.669,2.669,0,0,0-.275-.515,1.6,1.6,0,0,0-.458-.464,2.509,2.509,0,0,0-.687-.3,3.419,3.419,0,0,0-.945-.12.7.7,0,0,0-.515.218,1.988,1.988,0,0,0-.389.572,3.407,3.407,0,0,0-.223.6q-.063.252-.143.7-.1.481-.155.693a3.666,3.666,0,0,1-.2.555,1.754,1.754,0,0,1-.355.55,16.938,16.938,0,0,0-1.156,1.374q-.561.733-1.156,1.385t-.87.676a.751.751,0,0,0-.492.235.691.691,0,0,0-.206.5v7.339a.685.685,0,0,0,.218.509.757.757,0,0,0,.515.223,8.371,8.371,0,0,1,1.809.5q.882.3,1.38.452t1.391.332a8.507,8.507,0,0,0,1.649.178h1.477a2.845,2.845,0,0,0,2.256-.893,2.753,2.753,0,0,0,.561-2.072,2.227,2.227,0,0,0,.618-1.076,2.355,2.355,0,0,0,0-1.339,2.376,2.376,0,0,0,.492-1.569A2.728,2.728,0,0,0,149.233,18.9Z" transform="translate(-131.543 -9.136)"/><path class="b" d="M4.03,191.864H.733a.7.7,0,0,0-.515.218A.7.7,0,0,0,0,192.6v7.328a.7.7,0,0,0,.218.515.705.705,0,0,0,.515.217h3.3a.743.743,0,0,0,.733-.733V192.6a.743.743,0,0,0-.733-.733Z" transform="translate(0 -184.536)"/></g></g><text class="c" transform="translate(151.106 2058.426)"><tspan x="0" y="0">Avalie</tspan></text></g></svg>