<svg width="58" height="27" viewBox="0 0 58 27" fill="none" xmlns="http://www.w3.org/2000/svg">
<path fill-rule="evenodd" clip-rule="evenodd" d="M38.6971 0.852353C38.6527 0.86075 38.4938 0.879077 38.3439 0.893125L38.0714 0.918678V12.7822L38.23 12.7013C38.9879 12.3146 40.1563 12.3041 40.893 12.6775L41.0859 12.7752L41.1135 9.79453C41.1287 8.15518 41.1287 5.48764 41.1135 3.86673L41.0859 0.919566L40.9411 0.895789C40.7713 0.867895 38.8156 0.83007 38.6971 0.852353ZM0.972985 18.3419L1.26566 18.3659C1.98667 18.4252 2.6588 18.4352 3.28976 18.3959C3.66478 18.3725 3.9763 18.3484 3.98208 18.3423C3.98781 18.3362 4.00593 16.8552 4.02228 15.0512L4.05199 11.7713H5.25465C6.29082 11.7713 6.46602 11.78 6.52031 11.8343C6.64 11.954 7.32824 12.9238 7.73612 13.5475C8.4919 14.7032 9.11849 15.7994 9.90515 17.3421C10.1712 17.8639 10.4021 18.3054 10.4182 18.3232C10.4804 18.3918 11.9947 18.439 12.7918 18.3972C13.2235 18.3746 13.5882 18.3445 13.6022 18.3304C13.6163 18.3164 13.3333 17.7204 12.9734 17.006C11.9561 14.987 11.0532 13.4482 10.1318 12.1631C9.87387 11.8033 9.66944 11.4971 9.67756 11.4827C9.68563 11.4683 9.78772 11.4339 9.90434 11.4064C10.2616 11.3219 10.8997 11.0879 11.2433 10.9152C11.7261 10.6726 12.0186 10.4628 12.3568 10.1165C12.8061 9.65659 13.1034 9.1098 13.2682 8.44094C13.3556 8.08566 13.397 6.76501 13.3603 5.5002C13.3297 4.44868 13.2701 4.1479 12.9671 3.51601C12.4121 2.35882 11.3347 1.61644 9.65422 1.23351C8.44539 0.958037 7.64639 0.913592 3.88959 0.912865L0.972985 0.91226V18.3419ZM45.4418 5.27203C45.4256 7.66991 45.4256 11.5927 45.4418 13.9894L45.4712 18.3471L45.6971 18.3794C45.9939 18.4218 47.7735 18.4207 48.1736 18.378L48.4864 18.3445V12.1034L50.4342 12.0823C52.5099 12.0598 52.8979 12.0316 53.9092 11.8298C56.1207 11.3885 57.3657 10.3337 57.7422 8.58223C57.8174 8.23236 57.8247 8.05543 57.8257 6.56382C57.8269 4.80186 57.8072 4.57976 57.5953 3.9572C57.051 2.35817 55.6448 1.42514 53.2499 1.07414C52.3692 0.945039 51.423 0.913874 48.3614 0.913027L45.4712 0.91226L45.4418 5.27203ZM8.16161 3.65028C9.40798 3.87424 10.0096 4.35111 10.2458 5.30231C10.335 5.66147 10.3467 7.1555 10.263 7.49229C10.0344 8.41228 9.40446 8.91079 8.19891 9.12587C7.7335 9.20891 5.60456 9.2846 4.74342 9.24871L4.05151 9.21989L4.02192 7.81483C4.00565 7.04206 4.00577 5.76109 4.0222 4.96826L4.05212 3.52671L5.87321 3.54653C7.48532 3.56405 7.74795 3.57596 8.16161 3.65028ZM52.5676 3.64895C53.6129 3.84053 54.2074 4.20478 54.5256 4.84845C54.7446 5.29157 54.7955 5.68004 54.7744 6.74547C54.7583 7.55966 54.7483 7.65925 54.6549 7.94199C54.3754 8.78827 53.7356 9.23906 52.5054 9.45637C52.2199 9.50679 51.7394 9.52519 50.3131 9.54033L48.4864 9.55971V3.52619L50.3131 3.54835C51.8831 3.5674 52.1999 3.58153 52.5676 3.64895ZM17.201 18.3841L17.413 18.4137C17.9971 18.495 19.5756 18.4949 20.0575 18.4135L20.2179 18.3864L20.2479 15.4261C20.2749 12.75 20.2422 6.40234 20.201 6.40234C20.1918 6.40234 20.1343 6.42818 20.0733 6.45975C19.8682 6.5658 19.4404 6.68621 19.075 6.74083C18.7728 6.78596 18.6562 6.78604 18.3758 6.74144C17.9543 6.67439 17.6434 6.58477 17.3945 6.45866L17.201 6.3606V18.3841Z" fill="black"/>
<path fill-rule="evenodd" clip-rule="evenodd" d="M18.1093 0.868502C17.9539 0.902493 17.636 1.02279 17.403 1.13578C17.0293 1.31691 16.9361 1.38481 16.6141 1.70994C16.3093 2.01775 16.2179 2.14196 16.061 2.46127C15.7962 3.00019 15.7324 3.27005 15.7317 3.85305C15.731 4.39592 15.7918 4.68783 15.9993 5.13846C16.304 5.80038 16.8493 6.34018 17.537 6.66078C17.9421 6.84963 18.2596 6.91514 18.7754 6.9164C19.3053 6.91769 19.573 6.85944 20.0596 6.63701L20.3762 6.49229L36.5576 15.4479L36.5864 15.6654C36.6656 16.2631 36.7964 16.6354 37.0833 17.0792C37.8981 18.3394 39.5469 18.8066 40.9174 18.1655C41.5733 17.8586 42.0565 17.3813 42.3703 16.7305C42.5883 16.2784 42.6734 15.9011 42.6734 15.3868C42.6734 14.2115 42.0095 13.1656 40.9268 12.635C40.4543 12.4034 40.1557 12.3355 39.6256 12.3389C39.1044 12.3423 38.6827 12.4393 38.296 12.6446L38.0438 12.7785L29.9537 8.30147C25.5041 5.83909 21.8502 3.8036 21.8339 3.77817C21.8176 3.75273 21.8037 3.65928 21.8031 3.57047C21.7998 3.14128 21.5242 2.4402 21.1805 1.98658C20.819 1.50967 20.2502 1.11721 19.6433 0.926027C19.2687 0.80799 18.515 0.779733 18.1093 0.868502ZM8.93563 22.5537L0.932617 22.5639V26.8428H57.9326V22.5771L45.9365 22.5503C34.8001 22.5253 30.6857 22.5257 8.93563 22.5537ZM24.5876 23.0846C24.7453 23.1401 24.8329 23.1511 24.9039 23.1241C24.9803 23.095 25.0141 23.1026 25.0564 23.1583C25.1311 23.2568 25.1288 23.2638 24.996 23.3422C24.8498 23.4286 24.7557 23.4293 24.5464 23.3456C24.4206 23.2952 24.3593 23.2898 24.2871 23.3227C24.2103 23.3577 24.1797 23.3517 24.1241 23.2903C24.0414 23.1989 24.0724 23.1389 24.24 23.0659C24.3096 23.0357 24.3679 23.0094 24.3679 23.0094C24.3679 23.0094 24.4676 23.0424 24.5876 23.0846ZM6.62575 23.6577C7.08741 23.7567 7.25328 24.0807 7.22159 24.8213C7.20032 25.3191 7.11756 25.5296 6.88718 25.6719C6.7123 25.78 6.34653 25.8198 6.11166 25.7563C5.70205 25.6455 5.5545 25.3608 5.55535 24.6831C5.55579 24.301 5.56895 24.2123 5.64961 24.0476C5.82356 23.6923 6.16019 23.5579 6.62575 23.6577ZM11.1662 23.7304C11.3613 23.8167 11.4603 23.9419 11.511 24.1664C11.5505 24.3418 11.5165 24.3788 11.3153 24.3797C11.2012 24.3802 11.1736 24.3602 11.1236 24.2405C11.0567 24.0804 10.9612 24.017 10.787 24.017C10.6026 24.017 10.4682 24.0953 10.4212 24.2304C10.3585 24.4103 10.3682 25.0438 10.4361 25.2064C10.5352 25.4435 10.9409 25.4886 11.1044 25.2807C11.2001 25.159 11.1725 25.0752 11.0313 25.0588C10.9348 25.0477 10.9238 25.0298 10.9238 24.8849V24.7234L11.5048 24.6998L11.5321 24.8451C11.5734 25.0656 11.5297 25.383 11.4418 25.5008C11.2656 25.7368 10.8286 25.8505 10.4764 25.7519C10.0912 25.6441 9.92739 25.3135 9.92739 24.644C9.92739 24.3568 9.94633 24.2245 10.007 24.0873C10.1932 23.6664 10.6817 23.516 11.1662 23.7304ZM22.8111 23.6572C23.0724 23.7132 23.2713 23.8942 23.3361 24.1348C23.3924 24.3436 23.3554 24.3871 23.1354 24.3707C23.0235 24.3623 22.9826 24.3352 22.937 24.239C22.8567 24.07 22.777 24.0196 22.5902 24.0196C22.2861 24.0196 22.2067 24.1637 22.2068 24.716C22.2069 25.1849 22.2771 25.3511 22.4968 25.4021C22.7236 25.4548 22.8589 25.3727 22.9333 25.1374L22.9939 24.9459L23.1856 24.9457C23.3601 24.9455 23.3774 24.954 23.3774 25.0404C23.3774 25.3402 23.1708 25.6381 22.8903 25.7427C22.7129 25.809 22.694 25.8261 22.7489 25.8716C22.7837 25.9005 22.8122 25.9754 22.8122 26.0381C22.8122 26.1838 22.6817 26.2776 22.4789 26.2776C22.3375 26.2776 22.3285 26.271 22.3682 26.1969C22.3934 26.1497 22.4527 26.1162 22.5109 26.1162C22.6351 26.1162 22.6503 25.9745 22.5295 25.9429C22.4801 25.9301 22.4572 25.8994 22.4706 25.8644C22.4859 25.8245 22.4433 25.7922 22.3313 25.7587C21.9401 25.6415 21.7827 25.3499 21.7831 24.7436C21.7833 24.5327 21.809 24.2714 21.8404 24.163C21.9137 23.9091 22.1087 23.7116 22.3366 23.6606C22.5735 23.6076 22.5797 23.6076 22.8111 23.6572ZM27.2073 23.7432C27.3522 23.8122 27.4026 23.8676 27.4889 24.0533C27.5809 24.2511 27.5941 24.3324 27.5948 24.7033C27.596 25.3479 27.4447 25.6441 27.0597 25.7511C26.7515 25.8367 26.3411 25.7729 26.163 25.6117C25.8783 25.354 25.8099 24.3977 26.0462 23.9773C26.2386 23.6349 26.759 23.53 27.2073 23.7432ZM30.1965 23.7246C30.3618 23.8058 30.5314 24.0364 30.5142 24.1567C30.5049 24.2216 30.4678 24.2416 30.3387 24.2511C30.1981 24.2614 30.1672 24.2485 30.1195 24.1595C29.9844 23.9071 29.4326 23.9872 29.4326 24.2592C29.4326 24.404 29.5322 24.4647 29.8373 24.5061C30.3464 24.5751 30.5547 24.7317 30.5902 25.0721C30.6158 25.3181 30.4767 25.5785 30.2602 25.6899C30.0351 25.8058 29.5957 25.8051 29.3721 25.6886C29.2057 25.602 29.0447 25.4058 29.0027 25.2387C28.9724 25.1178 28.9871 25.1049 29.1861 25.0782C29.3343 25.0583 29.3537 25.0661 29.3895 25.1602C29.4496 25.3184 29.6135 25.4053 29.8449 25.4018C30.076 25.3983 30.1693 25.3297 30.1693 25.1635C30.1693 25.0034 30.0423 24.9204 29.7478 24.8881C29.4071 24.8506 29.1746 24.7356 29.0932 24.5642C28.9658 24.2956 29.0456 23.9332 29.2637 23.7903C29.542 23.608 29.9067 23.5823 30.1965 23.7246ZM32.3571 23.7486C32.5884 23.8745 32.7056 24.125 32.732 24.5497C32.7684 25.1353 32.6377 25.5146 32.339 25.6901C32.1392 25.8075 31.6131 25.8083 31.4107 25.6916C31.1823 25.56 31.0776 25.299 31.0557 24.8061C31.0247 24.1085 31.1796 23.7854 31.6006 23.6696C31.8436 23.6027 32.1478 23.6345 32.3571 23.7486ZM34.306 23.6743C34.5498 23.7467 34.7439 23.9444 34.7848 24.1618C34.8157 24.3271 34.7702 24.3787 34.5925 24.3797C34.4765 24.3804 34.3575 24.2884 34.3575 24.1981C34.3575 24.1081 34.1897 24.017 34.0238 24.017C33.715 24.017 33.5875 24.323 33.644 24.9285C33.6726 25.2346 33.7288 25.3352 33.9031 25.3928C34.1638 25.4788 34.3592 25.3443 34.4061 25.0464C34.4164 24.981 34.4551 24.9633 34.6102 24.9533L34.8016 24.941L34.8007 25.0744C34.7995 25.2539 34.6748 25.5179 34.5417 25.6225C34.2811 25.8275 33.8326 25.8436 33.5521 25.658C33.3233 25.5066 33.2536 25.3223 33.2347 24.8192C33.2083 24.1144 33.3516 23.8003 33.7571 23.6738C33.989 23.6014 34.061 23.6015 34.306 23.6743ZM44.9157 23.7126C45.0815 23.7816 45.2447 23.9839 45.3015 24.1904C45.3635 24.4162 45.3622 24.9578 45.2989 25.2215C45.2099 25.5925 44.9335 25.7928 44.5102 25.7928C44.117 25.7928 43.8102 25.594 43.7283 25.2862C43.6089 24.8374 43.6381 24.2865 43.7976 23.979C43.9628 23.6607 44.4896 23.5351 44.9157 23.7126ZM50.6922 23.7372C50.9753 23.8743 51.1401 24.3107 50.9287 24.3637C50.7901 24.3985 50.626 24.3514 50.626 24.2768C50.626 24.2429 50.5814 24.1706 50.5269 24.1161C50.3921 23.9814 50.136 23.9785 50.0044 24.1101C49.8528 24.2617 49.8203 24.9006 49.9471 25.2364C50.0025 25.3829 50.2097 25.4536 50.3998 25.3909C50.5323 25.3472 50.5763 25.2836 50.6468 25.0342C50.6701 24.9518 50.6943 24.9427 50.8615 24.9535L51.0498 24.9657L51.0369 25.1069C51.0163 25.3325 50.8776 25.5789 50.7139 25.6807C50.5936 25.7555 50.5079 25.773 50.2626 25.773C49.8972 25.773 49.7259 25.6855 49.5748 25.4218C49.4833 25.2618 49.4755 25.2071 49.4755 24.7234C49.4755 24.2641 49.4862 24.1785 49.562 24.0372C49.6756 23.8252 49.7745 23.74 49.9869 23.6712C50.2009 23.6019 50.4633 23.6264 50.6922 23.7372ZM9.03146 23.7368C9.43191 23.9307 9.48702 24.5511 9.12871 24.8315L8.99921 24.9329L9.22268 25.3317C9.46106 25.757 9.46098 25.7914 9.22151 25.7926C9.01103 25.7936 8.97571 25.7608 8.76184 25.3652C8.56428 24.9998 8.5516 24.9858 8.41819 24.9858H8.27964V25.365C8.27964 25.777 8.2704 25.7932 8.03554 25.7932C7.841 25.7932 7.8259 25.7123 7.84463 24.7692C7.85396 24.3 7.87608 23.8837 7.89376 23.8442C7.95407 23.7094 8.12204 23.657 8.499 23.6553C8.78303 23.6541 8.89619 23.6714 9.03146 23.7368ZM13.0757 23.7049C13.0991 23.7331 13.2735 24.2 13.4633 24.7425C13.8297 25.7901 13.8299 25.792 13.5881 25.792C13.4268 25.792 13.3866 25.7599 13.3299 25.5857C13.2845 25.4466 13.2707 25.4376 13.0717 25.4157C12.9561 25.403 12.7903 25.4056 12.7033 25.4215C12.5745 25.445 12.5379 25.4728 12.5061 25.5713C12.4464 25.7566 12.4007 25.7932 12.2295 25.7932C12.1404 25.7932 12.0634 25.7712 12.0525 25.7427C12.0306 25.685 12.6541 23.8823 12.7437 23.7445C12.8097 23.643 13.005 23.6197 13.0757 23.7049ZM15.5661 24.9657L15.5915 24.4005C15.6054 24.0897 15.619 23.7945 15.6217 23.7445C15.6261 23.6631 15.6476 23.6537 15.8285 23.6537H16.0303V24.6337C16.0303 25.6919 16.0115 25.7932 15.815 25.7932C15.6584 25.7932 15.5648 25.6885 15.1774 25.0805L14.7991 24.4866L14.7683 25.0894C14.7514 25.421 14.7292 25.715 14.7191 25.7427C14.709 25.7705 14.6471 25.7932 14.5817 25.7932C14.3231 25.7932 14.3349 25.8457 14.3349 24.6968V23.6495L14.7552 23.6739L15.5661 24.9657ZM17.1203 25.7513L17.0235 25.7756C16.9702 25.789 16.8839 25.7939 16.8317 25.7865C16.7464 25.7744 16.7342 25.7466 16.7112 25.5106C16.6755 25.1433 16.6714 24.4604 16.7025 24.0232L16.7287 23.6537H17.1203V25.7513ZM19.1387 23.8184C19.1387 23.9621 19.0796 24.0696 18.6745 24.6629C18.4191 25.0368 18.2102 25.3532 18.2102 25.3661C18.2102 25.379 18.4191 25.3895 18.6745 25.3895H19.1387V25.7479L18.9539 25.7756C18.8523 25.7909 18.5711 25.7951 18.3291 25.7852C17.9766 25.7707 17.873 25.7524 17.8075 25.6931C17.6935 25.59 17.7034 25.3936 17.8321 25.2034C17.8905 25.117 18.0903 24.8256 18.2761 24.5558C18.4619 24.286 18.6139 24.0544 18.6139 24.0411C18.6139 24.0279 18.4232 24.017 18.1901 24.017H17.7662V23.6537H19.1387V23.8184ZM20.6232 23.7041C20.6458 23.7319 20.8199 24.199 21.0101 24.7422C21.2637 25.4666 21.3428 25.7381 21.3069 25.7609C21.2245 25.8133 21.0048 25.7966 20.9413 25.7331C20.9082 25.7 20.8696 25.6202 20.8554 25.5558C20.832 25.449 20.8112 25.4366 20.62 25.4156C20.5046 25.4029 20.3391 25.4056 20.2521 25.4215C20.1233 25.445 20.0868 25.4728 20.055 25.5713C20.0335 25.6379 19.998 25.715 19.9761 25.7427C19.9273 25.8044 19.6382 25.8099 19.6011 25.7499C19.5684 25.697 20.2163 23.8234 20.3015 23.7243C20.3719 23.6425 20.5632 23.6305 20.6232 23.7041ZM24.7648 23.7445C24.7962 23.7945 24.9705 24.2603 25.1522 24.7798C25.5061 25.7914 25.5061 25.792 25.2545 25.792C25.0934 25.792 25.053 25.7599 24.9966 25.5866C24.9534 25.4541 24.9322 25.4382 24.7687 25.4158C24.6696 25.4022 24.5073 25.4022 24.4081 25.4158C24.2446 25.4382 24.2235 25.4541 24.1803 25.5866C24.1238 25.7599 24.0835 25.792 23.9223 25.792C23.6698 25.792 23.6696 25.7937 24.0405 24.7393C24.231 24.1977 24.4175 23.7319 24.455 23.7041C24.5609 23.6257 24.7016 23.644 24.7648 23.7445ZM35.825 23.8656C35.859 24.1484 35.8539 25.4081 35.818 25.6115C35.7875 25.7845 35.7069 25.8266 35.5039 25.7756L35.4071 25.7513V23.6537H35.7995L35.825 23.8656ZM37.4195 23.6895C37.5035 23.7427 38.1889 25.7265 38.1357 25.7623C38.0744 25.8036 37.8612 25.7994 37.792 25.7556C37.7604 25.7356 37.715 25.659 37.6911 25.5853C37.6541 25.4715 37.6232 25.447 37.4861 25.4232C37.3973 25.4077 37.2302 25.4053 37.1147 25.4178C36.9237 25.4385 36.9025 25.451 36.8793 25.5567C36.8653 25.6206 36.8267 25.7 36.7936 25.7331C36.7309 25.7958 36.5101 25.8136 36.4313 25.7623C36.3776 25.7274 37.0247 23.8428 37.1304 23.726C37.2001 23.649 37.3298 23.6326 37.4195 23.6895ZM39.1614 24.4732C39.1614 25.0567 39.1753 25.3066 39.2098 25.3411C39.2409 25.3722 39.4 25.3895 39.6539 25.3895H40.0495V25.5694C40.0495 25.7442 40.0454 25.7499 39.9026 25.7767C39.705 25.8138 39.1418 25.7675 39.0113 25.7035C38.9535 25.6751 38.8684 25.6008 38.8221 25.5382C38.7454 25.4347 38.7366 25.3582 38.7232 24.6801C38.7151 24.2706 38.7203 23.8722 38.7349 23.7947C38.7609 23.6561 38.7648 23.6537 38.9613 23.6537H39.1614V24.4732ZM42.8501 23.7712C43.097 23.9246 43.1715 24.1389 43.1741 24.7033C43.1767 25.2423 43.1299 25.4155 42.9358 25.586C42.6019 25.8791 41.7481 25.8219 41.6275 25.4984C41.5723 25.3502 41.5352 24.4814 41.5657 24.0512L41.5944 23.6462L42.144 23.66C42.6412 23.6725 42.7085 23.6832 42.8501 23.7712ZM47.8906 24.8444L48.487 23.6537H48.8901V25.7513L48.7892 25.7766C48.7337 25.7905 48.6433 25.7907 48.5884 25.7769L48.4886 25.7518L48.4663 24.562L48.2575 24.9944C48.0883 25.345 48.0291 25.4317 47.9442 25.453C47.7935 25.4908 47.7303 25.4211 47.5206 24.9858L47.3359 24.6023L47.3158 25.1473C47.3047 25.447 47.2809 25.715 47.2629 25.7427C47.2286 25.7957 47.0442 25.8104 46.9356 25.7687C46.8796 25.7472 46.8717 25.6149 46.8717 24.6989V23.6537H47.2969L47.8906 24.8444ZM53.0481 24.017H52.4829L52.4789 24.673C52.4767 25.0338 52.4631 25.4289 52.4486 25.551C52.4258 25.7442 52.41 25.7748 52.3274 25.7865C52.2752 25.7939 52.1889 25.789 52.1356 25.7756L52.0388 25.7513V24.017H51.4737V23.6537H53.0481V24.017ZM54.0169 25.7513L53.916 25.7766C53.8605 25.7905 53.7696 25.7905 53.7141 25.7766L53.6132 25.7513V23.6537H54.0169V25.7513ZM6.11328 24.1134C6.00638 24.2054 6.00049 24.2293 5.98555 24.6329C5.96654 25.1459 6.0256 25.3184 6.24472 25.3907C6.4221 25.4493 6.64158 25.3819 6.73422 25.2405C6.80648 25.1302 6.83385 24.4993 6.77544 24.2906C6.69826 24.0149 6.33946 23.9188 6.11328 24.1134ZM8.32808 24.0654C8.30067 24.0929 8.27964 24.2242 8.27964 24.3682V24.6225H8.53578C8.74271 24.6225 8.80629 24.6066 8.8668 24.5398C8.97527 24.4199 8.9657 24.1875 8.84839 24.0925C8.74097 24.0055 8.40547 23.9881 8.32808 24.0654ZM26.4882 24.0876C26.2679 24.2662 26.2667 25.1307 26.4865 25.3297C26.6152 25.4461 26.9086 25.429 27.0403 25.2974C27.1337 25.204 27.148 25.1522 27.1639 24.849C27.1864 24.4204 27.1529 24.2364 27.0299 24.1134C26.9096 23.9932 26.6217 23.9795 26.4882 24.0876ZM31.6494 24.0688C31.5152 24.1717 31.4765 24.3154 31.4784 24.7033C31.4807 25.1733 31.5239 25.2928 31.7213 25.3752C31.9036 25.4514 32.15 25.3955 32.2215 25.2618C32.2953 25.1241 32.3309 24.7421 32.2962 24.4613C32.2703 24.2515 32.2426 24.1809 32.1579 24.1081C32.0392 24.006 31.7593 23.9843 31.6494 24.0688ZM41.9871 24.6353C41.9871 25.3569 42.0003 25.3895 42.2909 25.3895C42.6859 25.3895 42.7713 25.244 42.7482 24.6109C42.7298 24.1057 42.682 24.0472 42.2699 24.0239L41.9871 24.0079V24.6353ZM44.2284 24.1134C44.1054 24.2364 44.0719 24.4204 44.0944 24.849C44.1103 25.1522 44.1246 25.204 44.218 25.2974C44.3497 25.429 44.6431 25.4461 44.7718 25.3297C44.9954 25.1273 44.9859 24.2356 44.7585 24.0763C44.6215 23.9804 44.3419 24 44.2284 24.1134ZM20.3605 24.5742C20.2113 25.0511 20.2125 25.0162 20.343 25.0449C20.498 25.079 20.6727 25.0326 20.6727 24.9575C20.6727 24.8694 20.5083 24.3429 20.4742 24.3218C20.4581 24.3119 20.407 24.4254 20.3605 24.5742ZM37.1626 24.6408C37.1036 24.8342 37.0675 25.0046 37.0823 25.0194C37.1189 25.056 37.4517 25.0538 37.4888 25.0168C37.52 24.9855 37.3586 24.3854 37.3025 24.3246C37.2846 24.3051 37.2216 24.4474 37.1626 24.6408ZM12.7852 24.6716C12.7294 24.854 12.6934 25.0129 12.7053 25.0248C12.7334 25.0529 13.1106 25.0529 13.1387 25.0248C13.1703 24.9932 12.9636 24.3399 12.922 24.3399C12.9026 24.3399 12.8411 24.4892 12.7852 24.6716ZM24.573 24.3803C24.5596 24.4136 24.5046 24.5715 24.4507 24.731L24.3527 25.0212L24.4706 25.0471C24.5354 25.0613 24.6436 25.0609 24.7111 25.046C24.8474 25.0161 24.849 25.0506 24.69 24.5889C24.6332 24.4238 24.588 24.3432 24.573 24.3803Z" fill="#001EFF"/>
</svg>
