<svg xmlns="http://www.w3.org/2000/svg" width="19.223" height="17.459" viewBox="0 0 19.223 17.459"><defs><style>.a{fill:#003f86;}</style></defs><g transform="translate(0)"><g transform="translate(1.126 1.69)"><path class="a" d="M33.417,68.5H30.563a.563.563,0,1,0,0,1.126h2.853a.563.563,0,1,0,0-1.126Z" transform="translate(-30 -68.5)"/></g><g transform="translate(1.126 6.195)"><path class="a" d="M33.417,188.5H30.563a.563.563,0,0,0,0,1.126h2.853a.563.563,0,0,0,0-1.126Z" transform="translate(-30 -188.5)"/></g><g transform="translate(0 3.942)"><path class="a" d="M3.417,128.5H.563a.563.563,0,0,0,0,1.126H3.417a.563.563,0,0,0,0-1.126Z" transform="translate(0 -128.5)"/></g><g transform="translate(7.359 3.378)"><path class="a" d="M206.738,116.857h-3.417V114.6a1.128,1.128,0,0,0-1.923-.8l-4.505,4.505a1.126,1.126,0,0,0,0,1.593l2.583,2.583-3.146,3.146a1.126,1.126,0,0,0,1.593,1.593l3.942-3.942a1.126,1.126,0,0,0,0-1.593l-2.583-2.583,1.786-1.786v.66a1.126,1.126,0,0,0,1.126,1.126h4.543a1.126,1.126,0,1,0,0-2.253Z" transform="translate(-196 -113.477)"/></g><g transform="translate(5.669 0.845)"><path class="a" d="M155.847,46.2a1.127,1.127,0,0,0-1.421.141l-3.1,3.1a1.126,1.126,0,1,0,1.593,1.593l2.445-2.445.824.593,1.1-1.1a2.24,2.24,0,0,1,.639-.438Z" transform="translate(-150.999 -46.006)"/></g><g transform="translate(0.601 9.587)"><path class="a" d="M22.855,279.866a2.233,2.233,0,0,1-.576-1.016L16.33,284.8a1.126,1.126,0,0,0,1.593,1.593l5.729-5.729Z" transform="translate(-16 -278.85)"/></g><g transform="translate(13.554 0)"><circle class="a" cx="1.69" cy="1.69" r="1.69"/></g></g></svg>