<svg width="21" height="21" viewBox="0 0 21 21" fill="none" xmlns="http://www.w3.org/2000/svg">
<path d="M19.3135 9.39503C19.7676 9.92937 20.013 10.6216 20.0013 11.3351C19.9934 11.9961 19.7378 12.6276 19.289 13.095C18.8403 13.5625 18.234 13.8287 17.5994 13.8369H14.1374C14.1658 13.9429 14.1994 14.0473 14.2379 14.1497C14.2769 14.2486 14.3229 14.3444 14.3755 14.4363C14.4337 14.5401 14.4752 14.6182 14.4999 14.6705C14.6498 14.9654 14.7645 15.2084 14.8438 15.3995C14.942 15.6531 15.0212 15.9143 15.0807 16.1807C15.1593 16.5042 15.1992 16.8365 15.1997 17.1701C15.1997 17.3786 15.1975 17.548 15.1932 17.6784C15.1823 17.8746 15.1615 18.0701 15.1309 18.2641C15.1021 18.4857 15.0516 18.7036 14.9803 18.9146C14.9011 19.1206 14.8004 19.317 14.68 19.5002C14.5499 19.71 14.3797 19.8896 14.18 20.0279C13.9478 20.1801 13.695 20.2951 13.43 20.369C13.0939 20.4645 12.7466 20.5104 12.3983 20.5055C12.2932 20.5067 12.1891 20.4852 12.0923 20.4426C11.9956 20.3999 11.9083 20.337 11.836 20.2576C11.659 20.0683 11.5153 19.8481 11.4113 19.6071C11.3098 19.3881 11.2283 19.1597 11.1679 18.9248C11.122 18.7337 11.07 18.4684 11.0117 18.1288C10.9389 17.7641 10.8825 17.5014 10.8425 17.3407C10.7861 17.1245 10.7131 16.9135 10.6242 16.7095C10.5338 16.4775 10.4023 16.2654 10.2366 16.0841C9.78966 15.5868 9.36837 15.0653 8.9745 14.5215C8.56618 13.9658 8.14548 13.4408 7.71241 12.9465C7.27935 12.4522 6.96274 12.196 6.76259 12.1778C6.55772 12.1619 6.36602 12.0666 6.22543 11.9105C6.15317 11.8364 6.096 11.7478 6.05736 11.6501C6.01872 11.5524 5.9994 11.4476 6.00054 11.3419V2.99599C5.99935 2.88756 6.01991 2.78008 6.06089 2.6804C6.10188 2.58073 6.16238 2.49106 6.23854 2.41715C6.38785 2.2607 6.58911 2.16992 6.8008 2.16355C7.47752 2.05173 8.14 1.861 8.77579 1.59495C9.41775 1.36751 9.91996 1.19617 10.2824 1.08093C10.6449 0.965696 11.1511 0.839846 11.8011 0.703382C12.3934 0.574989 12.9964 0.507191 13.6014 0.500957H15.2139C15.6709 0.470633 16.1288 0.545948 16.5546 0.721514C16.9804 0.897078 17.3636 1.16855 17.6769 1.51648C17.9253 1.84649 18.1075 2.22512 18.2127 2.62988C18.318 3.03465 18.344 3.45731 18.2894 3.87277C18.6211 4.20583 18.8551 4.63018 18.9641 5.0964C19.1056 5.59328 19.1056 6.12224 18.9641 6.61912C19.3413 7.12832 19.5318 7.761 19.5013 8.40339C19.4911 8.74241 19.4277 9.0774 19.3135 9.39503Z" fill="black"/>
<path d="M4.39989 12.164H0.800345C0.6953 12.1652 0.591156 12.1437 0.494416 12.1011C0.397675 12.0584 0.310416 11.9955 0.238087 11.9161C0.161495 11.8404 0.100802 11.7489 0.0598377 11.6475C0.0188737 11.5462 -0.0014725 11.437 8.29041e-05 11.327V2.99361C-0.00101944 2.8842 0.0195466 2.7757 0.0604969 2.67494C0.101447 2.57417 0.161902 2.48329 0.238087 2.40795C0.31071 2.32908 0.398049 2.26649 0.494739 2.22405C0.591428 2.18162 0.695427 2.16021 0.800345 2.16117H4.40316C4.61453 2.16411 4.81644 2.25289 4.96591 2.40858C5.11538 2.56427 5.2006 2.77458 5.20342 2.99474V11.327C5.2006 11.5472 5.11538 11.7575 4.96591 11.9132C4.81644 12.0689 4.61453 12.1577 4.40316 12.1606L4.39989 12.164Z" fill="black"/>
</svg>
