<svg xmlns="http://www.w3.org/2000/svg" width="25.662" height="24.636" viewBox="0 0 25.662 24.636"><defs><style>.a{fill:#717171;}</style></defs><g transform="translate(0 0)"><g transform="translate(0 0)"><path class="a" d="M154.12,22.817a3.515,3.515,0,0,0,.882-2.39,3.121,3.121,0,0,0-3.078-3.08h-4.442a4.048,4.048,0,0,1,.128-.385,2.685,2.685,0,0,1,.176-.353c.075-.128.128-.225.16-.289q.289-.545.441-.9a6.554,6.554,0,0,0,.3-.962,5,5,0,0,0,.152-1.219c0-.256,0-.465-.008-.625a6.9,6.9,0,0,0-.08-.722,4.049,4.049,0,0,0-.193-.8,3.738,3.738,0,0,0-.385-.722,2.248,2.248,0,0,0-.642-.65,3.514,3.514,0,0,0-.962-.417,4.79,4.79,0,0,0-1.324-.168.987.987,0,0,0-.722.3,2.784,2.784,0,0,0-.545.8,4.773,4.773,0,0,0-.313.834q-.088.353-.2.978-.145.674-.217.97a5.125,5.125,0,0,1-.281.778,2.457,2.457,0,0,1-.5.77,23.72,23.72,0,0,0-1.62,1.925q-.786,1.026-1.62,1.941t-1.219.946a1.052,1.052,0,0,0-.69.329.968.968,0,0,0-.289.7V30.692a.96.96,0,0,0,.3.714,1.061,1.061,0,0,0,.722.313,11.727,11.727,0,0,1,2.534.706q1.235.416,1.932.633t1.948.465a11.917,11.917,0,0,0,2.309.249h2.069a3.985,3.985,0,0,0,3.16-1.251,3.856,3.856,0,0,0,.786-2.9,3.12,3.12,0,0,0,.866-1.508,3.3,3.3,0,0,0,0-1.876,3.328,3.328,0,0,0,.689-2.2A3.821,3.821,0,0,0,154.12,22.817Z" transform="translate(-129.341 -9.136)"/><path class="a" d="M5.646,191.864H1.027a.987.987,0,0,0-.722.3.986.986,0,0,0-.3.722v10.265a.987.987,0,0,0,.3.722.988.988,0,0,0,.722.3H5.646a1.04,1.04,0,0,0,1.026-1.026V192.891a1.041,1.041,0,0,0-1.026-1.027Z" transform="translate(0 -181.599)"/></g></g></svg>