<svg width="21" height="21" viewBox="0 0 21 21" fill="none" xmlns="http://www.w3.org/2000/svg">
<path d="M19.3135 11.9299C19.7676 11.3956 20.013 10.7034 20.0013 9.98985C19.9934 9.32889 19.7378 8.69732 19.289 8.22991C18.8403 7.7625 18.234 7.49626 17.5994 7.48801H14.1374C14.1658 7.38206 14.1994 7.27769 14.2379 7.17527C14.2769 7.07636 14.3229 6.98058 14.3755 6.8887C14.4337 6.78483 14.4752 6.70675 14.4999 6.65443C14.6498 6.35952 14.7645 6.11654 14.8438 5.92549C14.942 5.6718 15.0212 5.41061 15.0807 5.14423C15.1593 4.82079 15.1992 4.48849 15.1997 4.15486C15.1997 3.94637 15.1975 3.77693 15.1932 3.64653C15.1823 3.45031 15.1615 3.25482 15.1309 3.06087C15.1021 2.83927 15.0516 2.62132 14.9803 2.41039C14.9011 2.20432 14.8004 2.00793 14.68 1.82473C14.5499 1.61496 14.3797 1.43535 14.18 1.29707C13.9478 1.14487 13.695 1.02986 13.43 0.955908C13.0939 0.860495 12.7466 0.814562 12.3983 0.819444C12.2932 0.818295 12.1891 0.839717 12.0923 0.882372C11.9956 0.925027 11.9083 0.987998 11.836 1.06735C11.659 1.25666 11.5153 1.47682 11.4113 1.71783C11.3098 1.93681 11.2283 2.16526 11.1679 2.40016C11.122 2.59121 11.07 2.85655 11.0117 3.1962C10.9389 3.56086 10.8825 3.82356 10.8425 3.98428C10.7861 4.20043 10.7131 4.4115 10.6242 4.61543C10.5338 4.8474 10.4023 5.05958 10.2366 5.24089C9.78966 5.73812 9.36837 6.25969 8.9745 6.80341C8.56618 7.35912 8.14548 7.88413 7.71241 8.37844C7.27935 8.87274 6.96274 9.12899 6.76259 9.14718C6.55772 9.16303 6.36602 9.2584 6.22543 9.41443C6.15317 9.48859 6.096 9.57716 6.05736 9.67486C6.01872 9.77256 5.9994 9.87737 6.00054 9.98303V18.329C5.99935 18.4374 6.01991 18.5449 6.06089 18.6446C6.10188 18.7442 6.16238 18.8339 6.23854 18.9078C6.38785 19.0642 6.58911 19.155 6.8008 19.1614C7.47752 19.2732 8.14 19.464 8.77579 19.73C9.41775 19.9574 9.91996 20.1288 10.2824 20.244C10.6449 20.3593 11.1511 20.4851 11.8011 20.6216C12.3934 20.75 12.9964 20.8178 13.6014 20.824H15.2139C15.6709 20.8543 16.1288 20.779 16.5546 20.6034C16.9804 20.4279 17.3636 20.1564 17.6769 19.8085C17.9253 19.4785 18.1075 19.0998 18.2127 18.6951C18.318 18.2903 18.344 17.8676 18.2894 17.4522C18.6211 17.1191 18.8551 16.6948 18.9641 16.2286C19.1056 15.7317 19.1056 15.2027 18.9641 14.7058C19.3413 14.1966 19.5318 13.564 19.5013 12.9216C19.4911 12.5825 19.4277 12.2476 19.3135 11.9299Z" fill="black"/>
<path d="M4.39989 9.16118H0.800345C0.6953 9.16003 0.591156 9.18146 0.494416 9.22411C0.397675 9.26677 0.310416 9.32973 0.238087 9.40909C0.161495 9.48482 0.100802 9.57626 0.0598377 9.67765C0.0188737 9.77904 -0.0014725 9.88818 8.29041e-05 9.99817V18.3316C-0.00101944 18.441 0.0195466 18.5495 0.0604969 18.6503C0.101447 18.751 0.161902 18.8419 0.238087 18.9172C0.31071 18.9961 0.398049 19.0587 0.494739 19.1011C0.591428 19.1436 0.695427 19.165 0.800345 19.164H4.40316C4.61453 19.1611 4.81644 19.0723 4.96591 18.9166C5.11538 18.7609 5.2006 18.5506 5.20342 18.3305V9.99817C5.2006 9.77801 5.11538 9.56768 4.96591 9.41199C4.81644 9.2563 4.61453 9.16754 4.40316 9.1646L4.39989 9.16118Z" fill="black"/>
</svg>
