<svg xmlns="http://www.w3.org/2000/svg" width="26.578" height="25.514" viewBox="0 0 26.578 25.514"><defs><style>.a{fill:#717171;}</style></defs><g transform="translate(0 0)"><g transform="translate(0 0)"><path class="a" d="M5.847,45.683H1.063A1.022,1.022,0,0,0,.316,46,1.021,1.021,0,0,0,0,46.746V57.377a1.021,1.021,0,0,0,.316.747,1.022,1.022,0,0,0,.748.316H5.847A1.078,1.078,0,0,0,6.91,57.377V46.746a1.078,1.078,0,0,0-1.063-1.063Z" transform="translate(0 -43.557)"/><path class="a" d="M154.72,20.489a3.963,3.963,0,0,0,.248-1.262,3.445,3.445,0,0,0-.714-2.276,3.413,3.413,0,0,0,0-1.944,3.231,3.231,0,0,0-.9-1.561,3.991,3.991,0,0,0-.814-3.007,4.126,4.126,0,0,0-3.272-1.3h-2.143a12.337,12.337,0,0,0-2.392.257q-1.295.258-2.018.482t-2,.656a12.162,12.162,0,0,1-2.625.731,1.1,1.1,0,0,0-.747.324.994.994,0,0,0-.316.739V22.981a1,1,0,0,0,.3.722,1.089,1.089,0,0,0,.714.341q.4.034,1.262.98t1.678,2.01a24.62,24.62,0,0,0,1.678,1.993,2.545,2.545,0,0,1,.515.8,5.369,5.369,0,0,1,.291.806q.075.307.224,1.005.116.647.208,1.013a4.928,4.928,0,0,0,.324.864,2.884,2.884,0,0,0,.565.83,1.021,1.021,0,0,0,.747.316,4.96,4.96,0,0,0,1.371-.174,3.642,3.642,0,0,0,1-.432,2.333,2.333,0,0,0,.665-.673,3.841,3.841,0,0,0,.4-.747,4.136,4.136,0,0,0,.2-.83,7.16,7.16,0,0,0,.083-.748q.008-.249.008-.648a5.04,5.04,0,0,0-.166-1.271,6.564,6.564,0,0,0-.316-.972q-.149-.332-.448-.947-.05-.1-.166-.3a2.824,2.824,0,0,1-.183-.366,4.08,4.08,0,0,1-.133-.4h4.6a3.037,3.037,0,0,0,2.234-.947,3.138,3.138,0,0,0,.955-2.242A3.567,3.567,0,0,0,154.72,20.489Z" transform="translate(-129.057 -9.144)"/></g></g></svg>