<svg width="24" height="24" viewBox="0 0 24 24" fill="none" xmlns="http://www.w3.org/2000/svg">
<g clip-path="url(#clip0)">
<path d="M11.88 4.5393L11.88 4.53936L11.8802 4.5393L11.9969 4.50042C11.998 4.50011 11.9991 4.49997 12.0002 4.49997L21.5002 4.49997C22.6048 4.49997 23.5002 5.39539 23.5002 6.5L23.5002 21.5C23.5002 22.6046 22.6048 23.5 21.5002 23.4999L13.5002 23.4999L13.4997 23.4999L16.8094 19.7182L16.9999 19.5006L16.9062 19.227L11.8803 4.54012L11.8803 4.54004L11.88 4.5393ZM11.88 4.5393C11.8794 4.53735 11.879 4.5363 11.8793 4.53723L11.88 4.53931L11.8802 4.54004L11.8803 4.54004C11.8802 4.53978 11.8801 4.53954 11.88 4.5393ZM13.4997 23.5V23.5Z" stroke="#2365DE"/>
<g opacity="0.5">
<path fill-rule="evenodd" clip-rule="evenodd" d="M15.9035 14.1808C16.0846 14.1964 16.2658 14.212 16.4478 14.2088L16.6538 14.2088C17.0919 14.2081 17.4952 14.0919 17.8526 13.8283C18.0707 13.6675 18.2321 13.4594 18.2765 13.1839C18.3581 12.6792 18.0683 12.2737 17.5655 12.171C17.4626 12.1499 17.3584 12.1381 17.2542 12.1263C17.081 12.1067 16.9074 12.087 16.7386 12.0248C16.6229 11.9822 16.506 11.9431 16.3889 11.904C16.2047 11.8424 16.0204 11.7808 15.8409 11.7055C15.8392 11.7048 15.8375 11.7041 15.8358 11.7034C15.7992 11.6881 15.7661 11.6744 15.7673 11.6147C15.7784 11.0799 15.7571 10.5459 15.7227 10.0124C15.6967 9.61072 15.6703 9.20914 15.6438 8.80747C15.6368 8.70186 15.6299 8.59623 15.6229 8.4906C15.6175 8.40867 15.6115 8.32674 15.6056 8.2448C15.5915 8.05121 15.5774 7.85756 15.5704 7.66369C15.5626 7.45242 15.7155 7.29652 15.9254 7.28013C16.1507 7.26264 16.2663 7.35277 16.3051 7.574C16.39 8.05776 16.4848 8.53961 16.5796 9.02147C16.6915 9.58982 16.8033 10.1582 16.8989 10.7297C16.911 10.8028 16.9359 10.8723 16.9778 10.9339C17.0457 11.0333 17.1385 11.0422 17.2248 10.9578C17.3018 10.8828 17.3337 10.784 17.3497 10.6817C17.381 10.4805 17.4111 10.2792 17.4412 10.0778C17.4797 9.8203 17.5182 9.5628 17.5592 9.30578C17.6113 8.9788 17.6651 8.65204 17.7189 8.32529C17.7727 7.99853 17.8264 7.67177 17.8786 7.3448C17.9042 7.18468 17.9805 7.06598 18.1113 6.97674C18.239 6.88948 18.3615 6.90366 18.4856 6.9805C18.604 7.05403 18.6855 7.15058 18.6749 7.30228C18.6703 7.36856 18.6638 7.43472 18.6572 7.50085C18.6547 7.52642 18.6521 7.55198 18.6497 7.57754C18.5616 8.51903 18.5013 9.46271 18.441 10.4064C18.4348 10.5031 18.4287 10.5998 18.4225 10.6965C18.422 10.7044 18.4214 10.7122 18.4209 10.7201C18.4151 10.8077 18.4093 10.8963 18.427 10.9835C18.4559 11.1252 18.5324 11.1503 18.6395 11.0531C18.7022 10.9959 18.7475 10.9248 18.7876 10.85C19.0088 10.4368 19.218 10.0173 19.4273 9.59776C19.5456 9.3607 19.6639 9.12362 19.7843 8.88767C19.8035 8.84999 19.8228 8.81229 19.842 8.7746C19.9512 8.56067 20.0604 8.3468 20.1737 8.13517C20.2531 7.98679 20.3678 7.91438 20.4873 7.94981C20.7337 8.02267 20.8581 8.08844 20.7892 8.41575C20.7497 8.60291 20.6705 8.77548 20.5915 8.94763C20.568 8.99894 20.5445 9.05021 20.522 9.10182C20.4377 9.29544 20.3525 9.48866 20.2672 9.68189C20.037 10.2038 19.8068 10.7258 19.5945 11.2559C19.593 11.2596 19.5916 11.2633 19.5901 11.2671C19.5342 11.4062 19.478 11.5466 19.4731 11.6999C19.4683 11.8556 19.5477 11.9158 19.6932 11.8749C19.8198 11.8392 19.9198 11.7633 20.0024 11.6621C20.1544 11.476 20.306 11.2897 20.4577 11.1033C20.6452 10.8729 20.8327 10.6425 21.0208 10.4126L21.0278 10.404C21.1645 10.237 21.3012 10.0699 21.4436 9.90836C21.6258 9.70196 21.9029 9.756 21.9879 10.008C22.0213 10.107 21.9794 10.1863 21.9372 10.2661C21.9349 10.2704 21.9327 10.2746 21.9305 10.2789C21.6 10.9067 21.2109 11.4962 20.8096 12.0782C20.5539 12.4489 20.3069 12.8262 20.1497 13.2548C20.0734 13.4628 20.0417 13.6805 20.01 13.8982C19.9944 14.0047 19.9789 14.1112 19.9582 14.2165C19.8472 14.7808 19.7149 15.3384 19.4965 15.8704C19.3389 16.2541 19.101 16.5717 18.7278 16.7655C18.6319 16.8151 18.5354 16.8437 18.4261 16.8233C18.1184 16.7661 17.8079 16.7684 17.4978 16.7887C17.4219 16.7938 17.3798 16.7752 17.3365 16.7157C17.1709 16.4875 17.004 16.2604 16.8371 16.0333C16.7201 15.8742 16.6032 15.715 16.4866 15.5555C16.1904 15.15 15.9159 14.7312 15.7188 14.2637C15.6875 14.1895 15.6819 14.1625 15.7777 14.1703C15.8197 14.1736 15.8616 14.1772 15.9035 14.1808ZM10.2071 14.4613C10.1058 14.1154 10.0047 13.769 9.99931 13.3647C10.0005 13.3521 10.0015 13.3369 10.0027 13.3199C10.006 13.27 10.0103 13.2038 10.0242 13.1392C10.0917 12.7975 10.1732 12.4633 10.5534 12.3353C10.5627 12.3323 10.5715 12.3272 10.5803 12.3223C10.5842 12.3201 10.5881 12.3179 10.592 12.3158C11.0322 12.0869 11.403 11.7666 11.7376 11.4001C11.8373 11.291 11.9553 11.2174 12.098 11.1906C12.4137 11.1315 12.7349 11.116 13.0432 11.2048C13.7192 11.3995 14.3535 11.7046 14.9752 12.0324C15.7161 12.423 16.4775 12.7419 17.3167 12.8259C17.3218 12.8264 17.3269 12.8269 17.332 12.8273C17.3556 12.8296 17.3794 12.8318 17.4026 12.8369L17.4038 12.8372C17.4891 12.8559 17.5771 12.8753 17.609 12.9738C17.6409 13.0723 17.5869 13.1452 17.5242 13.2092C17.3763 13.3602 17.189 13.4371 16.9904 13.4834C16.7708 13.5344 16.5481 13.5254 16.3256 13.5165C16.2846 13.5148 16.2437 13.5132 16.2028 13.5119C16.0937 13.5085 15.9852 13.498 15.8767 13.4874C15.7302 13.4731 15.5836 13.4589 15.436 13.4623C15.1311 13.4692 14.9624 13.5974 14.9279 13.8494C14.9153 13.9422 14.9322 14.0339 14.9565 14.1223C15.0782 14.5625 15.2792 14.9667 15.5249 15.3451C15.9908 16.0631 16.5063 16.744 17.0217 17.4249C17.1025 17.5316 17.1832 17.6382 17.2638 17.745C17.3183 17.8173 17.3734 17.8892 17.4285 17.9611C17.5425 18.11 17.6566 18.2589 17.7658 18.4112C17.8959 18.5928 17.8523 18.8005 17.6652 18.9548C17.5086 19.0839 17.3599 19.0634 17.2003 18.8935C17.0877 18.7737 16.9737 18.6554 16.8587 18.5383C16.8066 18.4851 16.7545 18.432 16.7023 18.3788C16.1489 17.8147 15.5954 17.2504 15.0545 16.6736C14.9973 16.6125 14.9394 16.5509 14.8665 16.5082C14.718 16.4214 14.6009 16.4894 14.5942 16.6657C14.59 16.7728 14.6293 16.8683 14.6724 16.9615C15.1369 17.9678 15.5888 18.9801 16.0265 19.999C16.0772 20.1168 16.0867 20.2315 16.0516 20.3538C16.0028 20.5245 15.9048 20.614 15.7404 20.6317C15.5607 20.651 15.4368 20.585 15.3557 20.4284C14.8331 19.4179 14.2758 18.4273 13.7101 17.4416C13.668 17.3683 13.625 17.295 13.56 17.2401C13.4878 17.1792 13.424 17.1947 13.3889 17.2831C13.3572 17.3628 13.349 17.4476 13.3577 17.5331C13.3694 17.648 13.381 17.7629 13.3926 17.8778C13.4307 18.2541 13.4688 18.6303 13.5101 19.0062C13.5256 19.1469 13.5417 19.2875 13.5579 19.428C13.6036 19.8253 13.6492 20.2226 13.6795 20.6215C13.6947 20.8213 13.6125 20.9411 13.4485 20.9811C13.2328 21.0339 13.1196 20.9792 13.0326 20.7781C13.0137 20.7344 12.9962 20.6893 12.9853 20.6432C12.9133 20.3398 12.8653 20.0319 12.8173 19.7241C12.7973 19.5956 12.7772 19.4672 12.7555 19.3391C12.732 19.2011 12.7093 19.0631 12.6865 18.9251C12.6098 18.4605 12.5331 17.9959 12.4313 17.536C12.4083 17.4317 12.3773 17.3289 12.3172 17.2394C12.2461 17.1336 12.1513 17.1263 12.0637 17.2191C11.9974 17.2893 11.9527 17.3734 11.9306 17.4684C11.9054 17.5764 11.895 17.6864 11.8845 17.7964C11.8818 17.8256 11.879 17.8549 11.8759 17.8841C11.8209 18.4118 11.7658 18.9396 11.7092 19.4671C11.6942 19.6064 11.6777 19.7454 11.6554 19.8836C11.6272 20.0577 11.5108 20.1611 11.3546 20.16C11.1883 20.1587 11.0801 20.0577 11.0595 19.8734C11.0129 19.4558 11.0022 19.0359 10.994 18.616C10.9894 18.3845 10.9966 18.1529 11.0038 17.9213C11.0149 17.5673 11.026 17.2132 10.9947 16.859C10.9675 16.5525 10.9188 16.2535 10.7899 15.9714C10.5655 15.4802 10.3593 14.9813 10.2071 14.4613Z" fill="#2365DE"/>
</g>
<path d="M17.455 19.293C17.3739 19.1146 17.196 19 17 19L12 19C11.7239 19 11.5 19.2238 11.5 19.5C11.5 19.5601 11.5108 19.6197 11.532 19.676L13.032 23.676C13.0939 23.8407 13.2379 23.9607 13.411 23.992C13.4404 23.997 13.4702 23.9997 13.5 24C13.6442 23.9998 13.7812 23.9375 13.876 23.829L17.376 19.829C17.5052 19.6813 17.5361 19.4717 17.455 19.293Z" fill="#2365DE"/>
<path d="M17.473 19.338L10.973 0.338015C10.9038 0.135843 10.7137 -9.32601e-07 10.5 -9.13999e-07L2.49998 -2.17617e-07C1.11928 -9.74307e-08 9.82724e-08 1.11928 2.19498e-07 2.49998L1.53649e-06 17.5C1.65772e-06 18.8807 1.11928 20 2.49999 20L17 20C17.2761 20 17.4999 19.7761 17.4999 19.4999C17.5 19.4449 17.4908 19.3901 17.473 19.338Z" fill="#2365DE"/>
<path d="M9.43457 14.0273L9.02441 12.9492L5.53223 12.9492L5.12207 14.0508C4.96191 14.4805 4.8252 14.7715 4.71192 14.9238C4.59863 15.0723 4.41309 15.1465 4.15527 15.1465C3.93652 15.1465 3.74317 15.0664 3.5752 14.9062C3.40723 14.7461 3.32324 14.5645 3.32324 14.3613C3.32324 14.2441 3.34277 14.123 3.38184 13.998C3.4209 13.873 3.48535 13.6992 3.5752 13.4766L5.77246 7.89844C5.83496 7.73828 5.90918 7.54687 5.99512 7.32422C6.08496 7.09766 6.17871 6.91016 6.27637 6.76172C6.37793 6.61328 6.50879 6.49414 6.66895 6.4043C6.83301 6.31055 7.03418 6.26367 7.27246 6.26367C7.51465 6.26367 7.71582 6.31055 7.87598 6.4043C8.04004 6.49414 8.1709 6.61133 8.26855 6.75586C8.37012 6.90039 8.4541 7.05664 8.52051 7.22461C8.59082 7.38867 8.67871 7.60937 8.78418 7.88672L11.0283 13.4297C11.2041 13.8516 11.292 14.1582 11.292 14.3496C11.292 14.5488 11.208 14.7324 11.04 14.9004C10.876 15.0645 10.6768 15.1465 10.4424 15.1465C10.3057 15.1465 10.1885 15.1211 10.0908 15.0703C9.99317 15.0234 9.91113 14.959 9.84473 14.877C9.77832 14.791 9.70606 14.6621 9.62793 14.4902C9.55371 14.3145 9.48926 14.1602 9.43457 14.0273ZM5.98926 11.6426L8.55566 11.6426L7.26074 8.09766L5.98926 11.6426Z" fill="white"/>
</g>
<defs>
<clipPath id="clip0">
<rect width="24" height="24" fill="white"/>
</clipPath>
</defs>
</svg>
