<svg width="24" height="24" viewBox="0 0 24 24" fill="none" xmlns="http://www.w3.org/2000/svg">
<g clip-path="url(#clip0)">
<mask id="path-1-inside-1" fill="white">
<path d="M11 22C12.4445 22 13.8749 21.7413 15.2095 21.2388C16.5441 20.7362 17.7567 19.9997 18.7782 19.0711C19.7996 18.1425 20.6099 17.0401 21.1627 15.8268C21.7155 14.6136 22 13.3132 22 12C22 10.6868 21.7155 9.38642 21.1627 8.17317C20.6099 6.95991 19.7996 5.85752 18.7782 4.92893C17.7567 4.00035 16.5441 3.26375 15.2095 2.7612C13.8749 2.25866 12.4445 2 11 2L11 12L11 22Z"/>
</mask>
<path d="M11 22C12.4445 22 13.8749 21.7413 15.2095 21.2388C16.5441 20.7362 17.7567 19.9997 18.7782 19.0711C19.7996 18.1425 20.6099 17.0401 21.1627 15.8268C21.7155 14.6136 22 13.3132 22 12C22 10.6868 21.7155 9.38642 21.1627 8.17317C20.6099 6.95991 19.7996 5.85752 18.7782 4.92893C17.7567 4.00035 16.5441 3.26375 15.2095 2.7612C13.8749 2.25866 12.4445 2 11 2L11 12L11 22Z" stroke="#1447A6" stroke-width="2" stroke-linejoin="round" stroke-dasharray="2 2" mask="url(#path-1-inside-1)"/>
<mask id="path-2-inside-2" fill="white">
<path d="M12 2C10.6868 2 9.38642 2.25866 8.17316 2.7612C6.95991 3.26375 5.85752 4.00035 4.92893 4.92893C4.00035 5.85752 3.26375 6.95991 2.7612 8.17317C2.25866 9.38642 2 10.6868 2 12C2 13.3132 2.25866 14.6136 2.7612 15.8268C3.26375 17.0401 4.00035 18.1425 4.92893 19.0711C5.85752 19.9997 6.95991 20.7362 8.17317 21.2388C9.38642 21.7413 10.6868 22 12 22L12 12L12 2Z"/>
</mask>
<path d="M12 2C10.6868 2 9.38642 2.25866 8.17316 2.7612C6.95991 3.26375 5.85752 4.00035 4.92893 4.92893C4.00035 5.85752 3.26375 6.95991 2.7612 8.17317C2.25866 9.38642 2 10.6868 2 12C2 13.3132 2.25866 14.6136 2.7612 15.8268C3.26375 17.0401 4.00035 18.1425 4.92893 19.0711C5.85752 19.9997 6.95991 20.7362 8.17317 21.2388C9.38642 21.7413 10.6868 22 12 22L12 12L12 2Z" fill="#A9BAD9" stroke="#1447A6" stroke-width="2" mask="url(#path-2-inside-2)"/>
</g>
<defs>
<clipPath id="clip0">
<rect width="24" height="24" fill="white"/>
</clipPath>
</defs>
</svg>
