<svg width="14" height="19" viewBox="0 0 14 19" fill="none" xmlns="http://www.w3.org/2000/svg">
<path fill-rule="evenodd" clip-rule="evenodd" d="M3.48336 0.162225C3.11944 0.342375 2.91798 0.625103 2.83877 1.06725L2.78711 1.35516H2.25916C1.96878 1.35516 1.70497 1.3814 1.67289 1.41349C1.64081 1.44557 1.73023 1.56912 1.87163 1.68815C2.22831 1.98824 2.20775 2.22408 1.80023 2.50648C0.689716 3.27602 0.0857602 4.52975 0.0121373 6.21815C-0.0792539 8.31258 0.309426 9.14982 2.42023 11.4052C2.91749 11.9366 3.28042 12.3936 3.28042 12.4884C3.28042 12.7837 3.37626 12.9127 3.5977 12.9155C3.71731 12.917 3.90371 12.992 4.01204 13.0823C4.19869 13.2376 4.20626 13.2797 4.15542 13.8815C4.12589 14.231 4.06683 14.5286 4.02405 14.5429C3.66548 14.6634 3.38555 14.9804 3.17258 15.5071C2.86221 16.2749 2.54765 17.5808 2.48472 18.3625L2.43347 19H5.85945H9.28542V18.708C9.28542 18.3362 9.16738 18.1111 8.33869 16.9024C7.37394 15.4951 7.36201 15.4669 7.42412 14.7323C7.48203 14.0471 7.60312 13.8013 7.97839 13.6073C8.21991 13.4823 8.26227 13.4867 8.81819 13.6926C9.52456 13.9545 10.4033 14.147 10.9482 14.1592C11.4604 14.1708 11.6814 13.9762 11.8796 13.3393C11.9596 13.082 12.0956 12.7806 12.1817 12.6695C12.2815 12.5408 12.321 12.3983 12.2906 12.2769C12.2591 12.1515 12.2838 12.0707 12.3631 12.0404C12.4293 12.0149 12.5073 11.8859 12.5364 11.7535C12.5654 11.6213 12.6634 11.4733 12.754 11.4247C12.9411 11.3246 13.1517 10.8774 13.1517 10.5802C13.1517 10.4707 13.0223 10.193 12.8641 9.96305C12.3946 9.28061 12.3001 8.96103 12.3505 8.2262C12.3815 7.775 12.4618 7.43272 12.6194 7.0818C12.8306 6.61102 12.8405 6.53633 12.7855 5.83309C12.7276 5.09282 12.7288 5.086 12.8982 5.17673C12.9923 5.22707 13.0694 5.30284 13.0694 5.34512C13.0694 5.38732 13.1254 5.4004 13.1939 5.37416C13.2623 5.34783 13.3682 5.36782 13.4294 5.41858C13.519 5.49294 13.5505 5.43708 13.5928 5.12836C13.6786 4.50236 13.65 4.25032 13.4576 3.93781C13.1207 3.39078 10.892 1.58451 10.0796 1.20019C8.5997 0.50015 6.02693 0.384821 4.73939 0.96089C4.28145 1.1658 4.25973 1.16794 4.10187 1.02514C3.91876 0.859381 3.88133 0.416985 4.03722 0.261102C4.09151 0.20681 4.2251 0.111844 4.30917 0.111844C4.39324 0.111844 4.4189 0.125372 4.39094 0.0801288C4.30711 -0.0554362 3.83732 -0.0129898 3.48336 0.162225Z" fill="#FDFDFD"/>
</svg>
