<svg width="16" height="22" viewBox="0 0 16 22" fill="none" xmlns="http://www.w3.org/2000/svg">
<path fill-rule="evenodd" clip-rule="evenodd" d="M8.40241 0.631978C8.9808 0.716853 9.16038 0.769907 9.81694 1.04987C10.3368 1.27153 10.4929 1.29756 11.002 1.2474C11.6047 1.18803 11.7875 1.22545 12.3658 1.52658C12.8876 1.79833 13.5098 2.24078 13.872 2.5977C14.4245 3.14203 14.9568 4.25334 15.0293 5.01382C15.0647 5.38446 14.9857 7.1975 14.9278 7.34425C14.9086 7.39291 14.8658 7.44131 14.8327 7.45183C14.7562 7.47609 14.6277 7.39278 14.5799 7.28788C14.5312 7.18102 14.4891 7.18571 14.4275 7.30485C14.3831 7.3907 14.3824 7.42398 14.4218 7.57474C14.4598 7.72042 14.4599 7.76892 14.4221 7.89206C14.3283 8.19814 14.2787 8.4955 14.3 8.62366C14.3568 8.96556 14.6937 9.52705 14.9792 9.75568C15.2453 9.96881 15.3003 10.0666 15.3003 10.3267C15.3003 10.6665 15.1939 10.8196 14.7916 11.0586C14.6387 11.1494 14.5516 11.2255 14.5166 11.2989C14.4673 11.4023 14.469 11.413 14.5628 11.5945C14.6409 11.7456 14.6533 11.7958 14.6253 11.8482C14.5523 11.9853 14.4879 12.0542 14.3383 12.1551L14.1839 12.2593L14.234 12.363C14.2616 12.4201 14.3052 12.5052 14.3309 12.5523C14.3745 12.6319 14.3708 12.6476 14.2788 12.7803C14.2244 12.8586 14.1423 12.9774 14.0963 13.0443C14.0306 13.1397 14.003 13.2409 13.9676 13.5165C13.9339 13.7776 13.8975 13.9171 13.8248 14.0627C13.7087 14.2953 13.6829 14.3282 13.5244 14.4466C13.206 14.6844 12.786 14.7047 11.9036 14.5249C11.1224 14.3658 11.0853 14.3615 10.871 14.4058C10.4166 14.4997 10.2533 14.677 10.0621 15.284C9.99727 15.49 9.90139 15.7734 9.84912 15.9137C9.79681 16.0541 9.75401 16.1957 9.75401 16.2285C9.75401 16.2613 9.93187 16.5275 10.1492 16.8201C11.2261 18.2696 11.886 19.4454 12.422 20.8695C12.4894 21.0487 12.5541 21.2336 12.5656 21.2805L12.5866 21.3658L10.5841 21.39C9.48268 21.4033 7.68231 21.4033 6.58328 21.3901L4.58502 21.3659L4.55007 21.0821C4.50428 20.7101 4.57726 20.0497 4.72516 19.4983C4.92653 18.7473 5.14849 18.2057 5.7315 17.0427C5.95151 16.6038 6.14734 16.1935 6.16669 16.1308C6.23603 15.906 6.27071 15.5826 6.2401 15.4464C6.20395 15.2854 6.24697 15.1027 6.33175 15.0574C6.36458 15.0398 6.55761 15.0097 6.76071 14.9906C6.97433 14.9704 7.14001 14.9395 7.15378 14.9172C7.16691 14.8959 7.19423 14.7756 7.21449 14.6497C7.23475 14.5239 7.26396 14.3722 7.2794 14.3126C7.3333 14.1045 7.29559 14.0971 7.00117 14.2575C6.70538 14.4188 6.60806 14.4244 6.64275 14.2781C6.65385 14.2313 6.69525 14.1715 6.73472 14.1453C6.84301 14.0735 7.04311 13.8612 7.139 13.7163C7.22338 13.5888 7.22368 13.5861 7.16759 13.4685C7.08155 13.2881 6.71062 12.8597 6.4514 12.6414C6.32429 12.5343 5.98043 12.2827 5.68721 12.0822C5.01593 11.6232 4.69259 11.3551 4.46415 11.0682C4.26897 10.8231 3.97262 10.2518 3.86042 9.90446C3.77171 9.62961 3.74552 9.6073 3.58075 9.66599C3.50992 9.6912 3.35668 9.71341 3.24025 9.7153C3.12381 9.71719 2.92032 9.72956 2.78803 9.74282C2.58949 9.76269 2.49563 9.75383 2.25064 9.69211C1.30751 9.45452 0.61103 8.74315 0.24792 7.64659C-0.14333 6.46499 -0.0664988 5.01141 0.442454 3.96631C0.741533 3.35216 1.23967 2.8749 1.73511 2.72775C1.82591 2.70078 2.07109 2.6575 2.27992 2.63161C2.61375 2.59021 2.70153 2.59038 3.00692 2.6332C3.40378 2.68883 3.53744 2.72111 3.75291 2.81347C3.94842 2.8973 3.99763 2.87568 4.21949 2.60855C4.47066 2.30618 5.03925 1.82136 5.49593 1.52016C6.23512 1.03267 6.87897 0.783293 7.71846 0.659336C7.95133 0.624943 8.15651 0.59827 8.17443 0.600061C8.19234 0.601852 8.29493 0.616215 8.40241 0.631978Z" fill="#FDFDFD"/>
</svg>
