<svg width="15" height="21" viewBox="0 0 15 21" fill="none" xmlns="http://www.w3.org/2000/svg">
<path d="M14.1978 0.544955C14.2458 0.210663 14.2796 0.0704356 14.3199 0.0394909C14.3947 -0.0180806 14.4181 -0.0148594 14.4941 0.0634105C14.5638 0.135272 14.8299 0.96204 14.918 1.38067C14.968 1.61832 14.9679 1.65365 14.9162 1.8705C14.8195 2.2757 14.5298 2.61636 14.0643 2.87211C13.9634 2.92752 13.671 3.02735 13.4145 3.09393C12.7982 3.2539 12.43 3.38011 11.8959 3.61448C11.6529 3.72109 11.4477 3.8145 11.4397 3.82211C11.4318 3.82968 11.4413 3.85237 11.4609 3.87252C11.4861 3.8985 11.5269 3.89284 11.6016 3.85306C11.716 3.79206 11.8364 3.81022 11.8364 3.88846C11.8364 3.91546 11.8226 3.93756 11.8057 3.93756C11.7889 3.93756 11.7293 3.97725 11.6734 4.02574C11.5234 4.15589 11.4894 4.32692 11.5567 4.61324C11.7076 5.25451 11.7067 5.52503 11.5522 6.04509C11.4789 6.2921 11.4698 6.81096 11.534 7.09029C11.5972 7.36533 11.8085 7.79674 11.996 8.03336C12.224 8.32105 12.4668 8.50309 12.8532 8.67601C13.4486 8.94241 13.6198 9.11639 13.5225 9.35614C13.4568 9.51823 13.1041 9.96167 12.8936 10.1468C12.6951 10.3214 12.4511 10.4862 12.1418 10.6546C12.0221 10.7198 11.9129 10.8069 11.8878 10.8572C11.8635 10.9058 11.8328 11.0955 11.8195 11.2788C11.8062 11.4621 11.7785 11.6263 11.7577 11.6438C11.737 11.6613 11.6571 11.693 11.5802 11.7141C11.407 11.7619 11.3819 11.7994 11.4772 11.8681C11.6465 11.9904 11.6434 12.0468 11.4506 12.3516C11.1485 12.8294 10.9934 13.328 10.854 14.2696C10.7599 14.9051 10.6978 15.0198 10.3989 15.1108C10.2332 15.1612 8.31063 14.8339 7.95594 14.6949C7.90365 14.6744 7.83733 14.6821 7.74787 14.719C7.63548 14.7654 7.59539 14.8135 7.47013 15.0525C7.38959 15.2062 7.2519 15.4981 7.16411 15.7012L7.00451 16.0706L7.14762 16.2798C7.28471 16.4802 7.29259 16.5055 7.33504 16.8818C7.36971 17.1889 7.39833 17.308 7.46628 17.4275C7.53446 17.5474 7.54483 17.5908 7.51441 17.6286C7.48124 17.6698 7.46385 17.6688 7.39451 17.622C7.25057 17.5248 7.26772 17.6057 7.42293 17.756C7.61201 17.9391 7.84294 18.3089 7.96355 18.6217C8.01441 18.7537 8.12776 19.1623 8.21542 19.5298C8.30289 19.8964 8.47092 20.5571 8.58938 21H0.959429C0.972833 20.9627 -0.0135542 20.9263 0.000141312 20.891C0.146141 20.5154 0.428168 19.9945 0.769199 19.4705C1.2794 18.6866 1.76783 17.7435 2.19379 16.7198C2.54164 15.8839 2.95523 15.5 2.95523 15.5C2.84759 15.4403 3.16022 15.5357 3.16022 15.4334C3.16022 15.3632 3.45179 14.7941 3.65539 14.4669C3.85737 14.1423 3.99114 14.0582 4.20765 14.1198C4.39653 14.1736 4.48399 14.1353 4.55316 13.9687C4.75265 13.488 5.07214 12.5469 5.17406 12.1399C5.32465 11.5384 5.32352 11.5324 4.89067 10.6326C4.25887 9.3194 3.56252 8.25152 2.69243 7.26163C2.01712 6.49329 1.68417 6.03056 1.3444 5.38799C1.26142 5.23107 1.18081 5.1027 1.16522 5.1027C1.11675 5.1027 1.09817 5.21939 1.12899 5.33021C1.16851 5.47219 1.11845 5.55875 1.05017 5.46657C0.953403 5.33604 0.933424 5.07515 0.977437 4.51787C1.01673 4.0206 1.026 3.97536 1.11406 3.84963C1.16602 3.77551 1.30298 3.64038 1.41839 3.54937C1.62699 3.38491 1.70767 3.27806 1.93026 2.87139C2.11897 2.52661 2.68432 1.99398 2.76896 2.08122C2.78422 2.09695 2.73043 2.26946 2.64945 2.46466C2.56847 2.65982 2.50907 2.83791 2.51748 2.86046C2.52779 2.88815 2.65314 2.84607 2.90465 2.73051C3.10919 2.63651 3.65802 2.39002 4.12424 2.18276C5.03322 1.7787 6.098 1.24253 6.76746 0.851763C7.27191 0.557326 7.38533 0.504758 7.75266 0.395098C8.24122 0.249284 8.67719 0.228038 9.98524 0.286329C10.6217 0.314703 11.1565 0.346847 11.1736 0.357779C11.2438 0.4025 11.1958 0.466754 11.0421 0.533681C10.8788 0.604823 10.791 0.705573 10.8332 0.773596C10.8628 0.821367 12.164 1.41189 12.4756 1.51898C12.6085 1.56469 12.837 1.62809 12.9833 1.65992C13.5575 1.78487 13.8101 1.72322 13.9718 1.41881C14.0934 1.18989 14.1197 1.08811 14.1978 0.544955Z" fill="#FDFDFD"/>
</svg>
