<svg id="vw-min-icon" width="32" height="32" viewBox="0 0 32 32" fill="none" xmlns="http://www.w3.org/2000/svg">
<path d="M11.2786 24V24.15H11.4286H13.7143H13.8643V24V18.2857V18.1357H13.7143H8H7.85V18.2857V20.5714V20.7214H8H11.2786V24ZM18.1357 24V24.15H18.2857H20.5714H20.7214V24V20.7214H24H24.15V20.5714V18.2857V18.1357H24H18.2857H18.1357V18.2857V24ZM7.85 13.7143V13.8643H8H13.7143H13.8643V13.7143V8V7.85H13.7143H11.4286H11.2786V8V11.2786H8H7.85V11.4286V13.7143ZM18.1357 13.7143V13.8643H18.2857H24H24.15V13.7143V11.4286V11.2786H24H20.7214V8V7.85H20.5714H18.2857H18.1357V8V13.7143Z" fill="#0F2B54" stroke="#0F2B54" stroke-width="0.3"/>
</svg>
