<svg width="32" height="32" viewBox="0 0 32 32" fill="none" xmlns="http://www.w3.org/2000/svg">
<path d="M21.0249 12.9H17H16.9V13V15V15.1H17H24H24.1V15V8V7.9H24H22H21.9V8V10.4844C21.1769 9.6871 20.3237 9.06605 19.3412 8.62188C18.2783 8.14071 17.1642 7.9 16 7.9C13.7407 7.9 11.8234 8.68514 10.2543 10.2543C8.68514 11.8234 7.9 13.7407 7.9 16C7.9 18.2593 8.68514 20.1766 10.2543 21.7457C11.8234 23.3149 13.7407 24.1 16 24.1C17.8554 24.1 19.5104 23.5344 20.9615 22.4039C22.4122 21.2737 23.3745 19.8132 23.8467 18.0255L23.8798 17.9H23.75H21.65H21.5789L21.5555 17.9672C21.1457 19.1476 20.4334 20.0972 19.4171 20.8184C18.4009 21.5396 17.2629 21.9 16 21.9C14.3596 21.9 12.9684 21.327 11.8207 20.1793C10.673 19.0316 10.1 17.6404 10.1 16C10.1 14.3596 10.673 12.9684 11.8207 11.8207C12.9684 10.673 14.3596 10.1 16 10.1C17.0661 10.1 18.0531 10.3622 18.9631 10.8866C19.8223 11.3822 20.5092 12.0529 21.0249 12.9Z" fill="#0F2B54" stroke="#0F2B54" stroke-width="0.2"/>
</svg>
