<svg width="32" height="32" viewBox="0 0 32 32" fill="none" xmlns="http://www.w3.org/2000/svg">
<path d="M10.4 15.8H12.1V14.1H10.4V15.8ZM10.4 19.2H17.2V17.5H10.4V19.2ZM18.9 19.2H20.6V17.5H18.9V19.2ZM13.8 15.8H20.6V14.1H13.8V15.8ZM8.7 22.6C8.2325 22.6 7.83243 22.4337 7.4998 22.1011C7.1666 21.7679 7 21.3675 7 20.9V10.7C7 10.2325 7.1666 9.83243 7.4998 9.4998C7.83243 9.1666 8.2325 9 8.7 9H22.3C22.7675 9 23.1679 9.1666 23.5011 9.4998C23.8337 9.83243 24 10.2325 24 10.7V20.9C24 21.3675 23.8337 21.7679 23.5011 22.1011C23.1679 22.4337 22.7675 22.6 22.3 22.6H8.7Z" fill="#0F2B54"/>
</svg>
