<svg width="32" height="32" viewBox="0 0 32 32" fill="none" xmlns="http://www.w3.org/2000/svg">
<path d="M15.12 20V20.08H15.2H16.8H16.88V20V15.2V15.12H16.8H15.2H15.12V15.2V20ZM16.6271 12.1731L16.6269 12.1729C16.4575 12.0042 16.2468 11.92 16 11.92C15.7532 11.92 15.5427 12.0042 15.3738 12.173C15.2045 12.3423 15.12 12.5531 15.12 12.8C15.12 13.0468 15.2045 13.2574 15.3738 13.4262C15.5426 13.5955 15.7532 13.68 16 13.68C16.2469 13.68 16.4577 13.5955 16.627 13.4262C16.7958 13.2573 16.88 13.0468 16.88 12.8C16.88 12.5532 16.7958 12.3425 16.6271 12.1731ZM12.8483 8.55614L12.8483 8.55615C11.8661 8.98026 11.0109 9.55599 10.2834 10.2834C9.55599 11.0109 8.98053 11.8661 8.55695 12.8483C8.13217 13.8321 7.92 14.8829 7.92 16C7.92 17.1171 8.13217 18.1679 8.55695 19.1517C8.98053 20.1339 9.55599 20.9891 10.2834 21.7166C11.0109 22.444 11.8661 23.0195 12.8483 23.443C13.8321 23.8678 14.8829 24.08 16 24.08C17.1171 24.08 18.1679 23.8678 19.1517 23.443C20.1339 23.0195 20.9891 22.444 21.7166 21.7166C22.444 20.9891 23.0195 20.1339 23.443 19.1517C23.8678 18.1679 24.08 17.1171 24.08 16C24.08 14.8829 23.8678 13.8321 23.443 12.8483C23.0195 11.8661 22.444 11.0109 21.7166 10.2834C20.9891 9.55599 20.1339 8.98026 19.1517 8.55615L19.1517 8.55614C18.1679 8.1319 17.1171 7.92 16 7.92C14.8829 7.92 13.8321 8.1319 12.8483 8.55614ZM20.4834 20.4834C19.2587 21.7081 17.7659 22.32 16 22.32C14.2341 22.32 12.7413 21.7081 11.5166 20.4834C10.2919 19.2587 9.68 17.7659 9.68 16C9.68 14.2341 10.2919 12.7413 11.5166 11.5166C12.7413 10.2919 14.2341 9.68 16 9.68C17.7659 9.68 19.2587 10.2919 20.4834 11.5166C21.7081 12.7413 22.32 14.2341 22.32 16C22.32 17.7659 21.7081 19.2587 20.4834 20.4834Z" fill="#FDFDFD" stroke="#FDFDFD" stroke-width="0.16"/>
</svg>
