<svg width="32" height="32" viewBox="0 0 32 32" fill="none" xmlns="http://www.w3.org/2000/svg">
<path fill-rule="evenodd" clip-rule="evenodd" d="M10.2733 10.2849C10.4483 10.11 10.6856 10.0117 10.9331 10.0117C11.1806 10.0117 11.418 10.11 11.593 10.2849L15.5998 14.2917L19.6066 10.2849C19.6927 10.1958 19.7957 10.1247 19.9096 10.0758C20.0234 10.0269 20.1459 10.0011 20.2698 10C20.3938 9.99896 20.5167 10.0226 20.6314 10.0695C20.7461 10.1164 20.8503 10.1857 20.9379 10.2734C21.0255 10.361 21.0948 10.4652 21.1418 10.5799C21.1887 10.6946 21.2123 10.8175 21.2112 10.9414C21.2102 11.0654 21.1844 11.1878 21.1355 11.3017C21.0866 11.4156 21.0155 11.5186 20.9263 11.6047L16.9195 15.6115L20.9263 19.6183C21.0963 19.7943 21.1904 20.0301 21.1883 20.2748C21.1862 20.5195 21.088 20.7536 20.915 20.9266C20.7419 21.0997 20.5078 21.1978 20.2631 21.2C20.0184 21.2021 19.7826 21.108 19.6066 20.938L15.5998 16.9312L11.593 20.938C11.417 21.108 11.1812 21.2021 10.9365 21.2C10.6918 21.1978 10.4577 21.0997 10.2846 20.9266C10.1116 20.7536 10.0134 20.5195 10.0113 20.2748C10.0092 20.0301 10.1033 19.7943 10.2733 19.6183L14.2801 15.6115L10.2733 11.6047C10.0983 11.4296 10 11.1923 10 10.9448C10 10.6973 10.0983 10.46 10.2733 10.2849V10.2849Z" fill="#FDFDFD"/>
</svg>
