<svg width="32" height="32" viewBox="0 0 32 32" fill="none" xmlns="http://www.w3.org/2000/svg">
<path d="M19.4351 18.0629H18.7124L18.4563 17.8159C19.3838 16.7401 19.8935 15.3667 19.8925 13.9463C19.8925 12.7702 19.5438 11.6206 18.8904 10.6427C18.237 9.66484 17.3083 8.90269 16.2218 8.45263C15.1353 8.00258 13.9397 7.88482 12.7862 8.11426C11.6327 8.3437 10.5732 8.91002 9.74162 9.74162C8.91002 10.5732 8.3437 11.6327 8.11426 12.7862C7.88482 13.9397 8.00258 15.1353 8.45263 16.2218C8.90269 17.3083 9.66484 18.237 10.6427 18.8904C11.6206 19.5438 12.7702 19.8925 13.9463 19.8925C15.4191 19.8925 16.773 19.3528 17.8159 18.4563L18.0629 18.7124V19.4351L22.6369 24L24 22.6369L19.4351 18.0629ZM13.9463 18.0629C11.6684 18.0629 9.82962 16.2241 9.82962 13.9463C9.82962 11.6684 11.6684 9.82962 13.9463 9.82962C16.2241 9.82962 18.0629 11.6684 18.0629 13.9463C18.0629 16.2241 16.2241 18.0629 13.9463 18.0629Z" fill="#FDFDFD"/>
</svg>
