<svg width="32" height="32" viewBox="0 0 32 32" fill="none" xmlns="http://www.w3.org/2000/svg">
<path d="M16.1726 19.34C15.3929 19.34 14.6451 19.0303 14.0937 18.4789C13.5424 17.9275 13.2326 17.1797 13.2326 16.4C13.2326 15.6203 13.5424 14.8725 14.0937 14.3211C14.6451 13.7697 15.3929 13.46 16.1726 13.46C16.9524 13.46 17.7002 13.7697 18.2515 14.3211C18.8029 14.8725 19.1126 15.6203 19.1126 16.4C19.1126 17.1797 18.8029 17.9275 18.2515 18.4789C17.7002 19.0303 16.9524 19.34 16.1726 19.34ZM22.4138 17.2148C22.4474 16.946 22.4726 16.6772 22.4726 16.4C22.4726 16.1228 22.4474 15.8456 22.4138 15.56L24.1862 14.1908C24.3458 14.0648 24.3878 13.838 24.287 13.6532L22.607 10.7468C22.5062 10.562 22.2794 10.4864 22.0946 10.562L20.003 11.402C19.5662 11.0744 19.1126 10.7888 18.5834 10.5788L18.2726 8.3528C18.2556 8.25386 18.204 8.16416 18.1272 8.09958C18.0503 8.03501 17.953 7.99973 17.8526 8H14.4926C14.2826 8 14.1062 8.1512 14.0726 8.3528L13.7618 10.5788C13.2326 10.7888 12.779 11.0744 12.3422 11.402L10.2506 10.562C10.0658 10.4864 9.83904 10.562 9.73824 10.7468L8.05824 13.6532C7.94904 13.838 7.99944 14.0648 8.15904 14.1908L9.93144 15.56C9.89784 15.8456 9.87264 16.1228 9.87264 16.4C9.87264 16.6772 9.89784 16.946 9.93144 17.2148L8.15904 18.6092C7.99944 18.7352 7.94904 18.962 8.05824 19.1468L9.73824 22.0532C9.83904 22.238 10.0658 22.3052 10.2506 22.238L12.3422 21.3896C12.779 21.7256 13.2326 22.0112 13.7618 22.2212L14.0726 24.4472C14.1062 24.6488 14.2826 24.8 14.4926 24.8H17.8526C18.0626 24.8 18.239 24.6488 18.2726 24.4472L18.5834 22.2212C19.1126 22.0028 19.5662 21.7256 20.003 21.3896L22.0946 22.238C22.2794 22.3052 22.5062 22.238 22.607 22.0532L24.287 19.1468C24.3878 18.962 24.3458 18.7352 24.1862 18.6092L22.4138 17.2148Z" fill="#FDFDFD"/>
</svg>
